<?xml version="1.0" encoding="utf-8"?>
<!-- Generator: Adobe Illustrator 19.2.1, SVG Export Plug-In . SVG Version: 6.00 Build 0)  -->
<svg version="1.1" id="Layer_1" xmlns="http://www.w3.org/2000/svg" xmlns:xlink="http://www.w3.org/1999/xlink" x="0px" y="0px"
	 viewBox="0 0 775.1 800" style="enable-background:new 0 0 775.1 800;" xml:space="preserve">
<style type="text/css">
	.st0{fill:none;}
	.st1{fill:#AC1927;}
	.st2{fill:#F69375;}
	.st3{fill:#EF4136;}
	.st4{fill:#231F20;}
	.st5{fill:#F1F2F2;}
</style>
<title>octopus</title>
<path class="st0" d="M514.5,141.4c-2.1,0.6-4.2,1.2-6.2,1.9C510.3,142.6,512.4,142,514.5,141.4z"/>
<path class="st0" d="M494.2,148.2c-2,0.8-4.1,1.6-6.1,2.4C490.1,149.8,492.1,149,494.2,148.2z"/>
<path class="st0" d="M501,145.7c-2,0.7-4,1.4-6,2.2C497,147.2,499,146.4,501,145.7z"/>
<path class="st0" d="M508.1,143.3c-2.1,0.7-4.2,1.4-6.2,2.1C503.9,144.7,506,144,508.1,143.3z"/>
<path class="st0" d="M521.3,139.5c-2,0.5-4.1,1.1-6.1,1.7C517.3,140.6,519.3,140,521.3,139.5z"/>
<path class="st0" d="M528.5,137.8c-2,0.5-4.1,1-6.1,1.5C524.5,138.7,526.5,138.2,528.5,137.8z"/>
<path class="st0" d="M535.9,136.2c-2.2,0.4-4.3,0.9-6.4,1.4C531.6,137.1,533.8,136.6,535.9,136.2z"/>
<path class="st0" d="M443.9,174.5c-3.9,2.6-7.7,5.4-11.5,8.3C436.2,179.9,440,177.2,443.9,174.5z"/>
<path class="st0" d="M468.3,159.9c-6.2,3.2-12.2,6.7-18.1,10.4C456.1,166.7,462.1,163.2,468.3,159.9z"/>
<path class="st0" d="M449.9,170.6c-1.9,1.2-3.8,2.5-5.7,3.8C446,173.1,447.9,171.9,449.9,170.6z"/>
<path class="st0" d="M487.8,150.8c-2.1,0.9-4.2,1.8-6.3,2.7C483.6,152.6,485.6,151.7,487.8,150.8z"/>
<path class="st0" d="M474.7,156.7c-2,1-4,2-5.9,3C470.8,158.7,472.7,157.7,474.7,156.7z"/>
<path class="st0" d="M481.4,153.6c-2.1,0.9-4.1,1.9-6.1,2.9C477.3,155.4,479.4,154.5,481.4,153.6z"/>
<g>
	<path class="st1" d="M353.6,214.1c0.1-0.1,0.2-0.1,0.3-0.2c5.9-4.1,9.3-10.9,12.2-17.5c30.5-70.1-10.7-138.4,46.5-179.6
		C342,55.4,379.3,141.5,353.6,214.1z"/>
	<path class="st1" d="M495.4,87.1c7.3-4.4,17.5-13.1,21.8-21.8c-1.5,2.4-3.5,4.4-5.9,5.9c-24.2,14.6-36.3,14.5-63,25.5
		c-9.3,3.8-15.2,9.8-18.7,17.2c0.9-0.5,1.9-0.9,2.9-1.3C459.1,101.6,471.2,101.7,495.4,87.1z"/>
	<path class="st1" d="M282.7,319.8c8.3-6,13.7-12.6,15.4-20.2c-1.1-5.5-3.7-11.5-8.3-18.2c-14.2-20.9-100-86.6-96.4-173.8
		c-0.2-4.1-0.1-8.3,0.1-12.5c1.6-28.7,8.2-45.2,18.2-54.2c-17.8,14.1-32,43-34.1,80.6c-5.1,88.3,82,154.8,96.3,175.9
		C279.7,305.9,282.5,313.2,282.7,319.8z"/>
	<path class="st1" d="M119.1,540.3c82.4-1.4,136.6-83.8,154.7-79.4c13.4,3.3,12.9,20.3,8.1,35.1c4.5-4.7,8.2-9.5,10.8-14.3
		c3.6-6.7,6.8-15.6,7.8-23.8c-1-6.4-4.2-11.3-10.8-12.9c-18.1-4.4-72.3,78-154.7,79.5c-68.2,1.2-108.6-36.1-119.2-58.1
		c0-0.1-0.1-0.1-0.1-0.2c-1.3-2.6-2.5-5.5-3.5-8.5c-6.2-18.1-6.9-40.1,1.2-56.1c0.4-1.2,0.9-2.3,1.3-3.5c-20,24-16.6,79.9-7.2,96.4
		C19.6,515.8,50.9,541.5,119.1,540.3z"/>
	<path class="st1" d="M574,555.3c-23.2-18.2-48-73.9-64.8-57.2c-2.5,2.5-4,7.4-4.6,13.9c15.6,6.7,35,44.8,53.5,59.2
		c55.4,43.3,145.9,60.5,190.1-2.9c2.8-4,6.5-11.2,9.8-19c-1.1,2.3-2.2,4.2-3.2,5.6C710.7,618.4,629.4,598.6,574,555.3z"/>
	<path class="st1" d="M630.6,726.5c-67.5,19.6-129.3-25.6-145-87.8c-13.3-52.8-34.4-97.3-44.6-97.3c-14.7,0-26.1,8-34.7,20.4
		c6-2.9,12.3-4.5,18.8-4.5c10.1,0,31.3,44.5,44.6,97.3c15.7,62.2,77.5,107.4,145,87.8c19.1-5.5,52-24.6,62.1-44.4
		C668.5,711.5,649.2,721.1,630.6,726.5z"/>
	<path class="st1" d="M303.8,739.5c-4.7-10.1-6.6-20.1-6.2-30.5c-3.6-23.2,4.4-46.6,17.4-76.7c-24.4,52.2-43.8,87.3-27,123.2
		c14.1,30.1,59.2,55.4,82.6,39.9c8.7-5.8,14.7-11.6,18.4-18.2c-0.8,0.8-1.6,1.6-2.6,2.2C363.3,795.3,317.9,769.6,303.8,739.5z"/>
	<path class="st1" d="M211.7,406.3c10.1,1.3,22,5.9,25.5,14.3c8.4-3.9,13.9-9,16-15.5c-3.4-8.6-15.4-13.4-25.6-14.7
		C113.4,376.2,57,255,49.4,227.2c-3-10.7-4-22.1-3.4-33.2c-1.3-33.2,12.3-67.4,31.6-78.6c-30.2,6.2-56.3,83.4-44.1,127.7
		C41.2,270.8,97.5,392,211.7,406.3z"/>
	<path class="st1" d="M136.3,745.9c-29.4,0-59.5-43.5-51.4-85.7c-18.6,46.4,3.5,103.6,35.5,101.7c27.8-1.7,43.2-19.7,54-41.2
		C164.6,735.4,152.5,745.9,136.3,745.9z"/>
	<path class="st1" d="M330.9,553.5c7,7,9.7,18.9,6.1,28.2c-0.3,0.8-0.6,1.6-1,2.4c3.1-7.5,6.4-15.3,9.6-23.5
		c1.9-4.9,4.1-12,4.7-18.5c-1-1.6-2.2-3.1-3.5-4.5c-11.3-11.3-83.6,40.7-123,89.3C262,583.5,320.4,543,330.9,553.5z"/>
	<path class="st1" d="M545.7,463.2c55.5-8.7,111.4,20.3,166.4-4.1c9-3.9,17.1-9.5,24-16.5c35.6-37,46.6-84,33.9-126.1
		c6.9,42.3-11.1,76.7-43.5,107c-7,6.8-15.1,12.4-24,16.5c-55.8,24.7-112.4-5.4-168.5,4.4c-0.7,0.1-1.5,0.3-2.3,0.5
		c-0.6,0.1-1.2,0.3-1.9,0.5c-0.2,0-0.3,0.1-0.4,0.1c-1.6,0.4-3.2,0.9-4.8,1.5c2.3,2.1,4.6,4,7,5.8
		C536.5,456.5,541.2,460,545.7,463.2z"/>
</g>
<path class="st0" d="M638.2,509.2c-0.2,0-0.5,0-0.7,0C637.7,509.1,637.9,509.1,638.2,509.2z"/>
<path class="st0" d="M646.4,509.3C646.4,509.3,646.3,509.3,646.4,509.3C646.3,509.3,646.4,509.3,646.4,509.3z"/>
<path class="st0" d="M632.9,508.6c-0.2,0-0.5-0.1-0.7-0.1C632.4,508.6,632.6,508.6,632.9,508.6z"/>
<path class="st0" d="M634.6,508.9c-0.2,0-0.5-0.1-0.7-0.1C634.2,508.8,634.4,508.8,634.6,508.9z"/>
<path class="st0" d="M636.4,509c-0.2,0-0.5,0-0.7-0.1C635.9,509,636.2,509,636.4,509z"/>
<path class="st0" d="M641.7,509.3c-0.2,0-0.5,0-0.7,0C641.2,509.3,641.5,509.3,641.7,509.3z"/>
<path class="st0" d="M645.2,509.3c-0.2,0-0.4,0-0.6,0C644.8,509.3,645,509.3,645.2,509.3z"/>
<path class="st0" d="M643.5,509.3c-0.2,0-0.5,0-0.7,0C643,509.3,643.2,509.3,643.5,509.3z"/>
<path class="st0" d="M640,509.2c-0.2,0-0.5,0-0.7,0C639.5,509.2,639.7,509.2,640,509.2z"/>
<path class="st0" d="M618.5,505.5C618.5,505.5,618.5,505.5,618.5,505.5C618.5,505.5,618.5,505.5,618.5,505.5z"/>
<path class="st0" d="M617,505c-0.1,0-0.3-0.1-0.4-0.1C616.8,505,616.9,505,617,505z"/>
<path class="st0" d="M615.3,504.5c-0.2-0.1-0.3-0.1-0.5-0.2C614.9,504.3,615.1,504.4,615.3,504.5z"/>
<path class="st0" d="M629.3,508.1c-0.2,0-0.4-0.1-0.6-0.1C628.9,508,629.1,508.1,629.3,508.1z"/>
<path class="st0" d="M613.4,503.8c-0.2-0.1-0.4-0.1-0.6-0.2C613,503.7,613.2,503.7,613.4,503.8z"/>
<path class="st0" d="M627.5,507.8c-0.2,0-0.4-0.1-0.6-0.1C627.1,507.7,627.3,507.7,627.5,507.8z"/>
<path class="st0" d="M625.7,507.4c-0.1,0-0.3-0.1-0.4-0.1C625.4,507.3,625.5,507.4,625.7,507.4z"/>
<path class="st0" d="M631.1,508.4c-0.2,0-0.4-0.1-0.7-0.1C630.6,508.3,630.8,508.4,631.1,508.4z"/>
<path class="st0" d="M664.8,506.9c-0.3,0.1-0.7,0.1-1,0.2C664.1,507,664.5,507,664.8,506.9z"/>
<path class="st0" d="M668.8,506c-0.4,0.1-0.7,0.2-1.1,0.3C668.1,506.2,668.4,506.1,668.8,506z"/>
<path class="st0" d="M666.8,506.5c-0.4,0.1-0.7,0.2-1.1,0.2C666.1,506.6,666.4,506.6,666.8,506.5z"/>
<path class="st0" d="M670.8,505.5c-0.4,0.1-0.8,0.2-1.2,0.3C670.1,505.7,670.4,505.6,670.8,505.5z"/>
<path class="st0" d="M673,505c-0.4,0.1-0.9,0.2-1.3,0.3C672.1,505.2,672.5,505.1,673,505z"/>
<path class="st0" d="M675.8,504.3c-0.7,0.2-1.4,0.4-2.1,0.5C674.4,504.6,675.1,504.5,675.8,504.3z"/>
<path class="st0" d="M651.7,508.9c-0.3,0-0.5,0-0.8,0.1C651.1,509,651.4,508.9,651.7,508.9z"/>
<path class="st0" d="M653.5,508.7c-0.3,0-0.6,0.1-0.9,0.1C652.9,508.8,653.2,508.8,653.5,508.7z"/>
<path class="st0" d="M649.8,509.1c-0.2,0-0.4,0-0.6,0C649.4,509.1,649.6,509.1,649.8,509.1z"/>
<path class="st0" d="M655.3,508.5c-0.3,0-0.6,0.1-0.9,0.1C654.7,508.6,655,508.5,655.3,508.5z"/>
<path class="st0" d="M659.1,508c-0.3,0.1-0.6,0.1-0.9,0.1C658.4,508.1,658.8,508,659.1,508z"/>
<path class="st0" d="M661,507.6c-0.3,0.1-0.6,0.1-1,0.2C660.3,507.8,660.6,507.7,661,507.6z"/>
<path class="st0" d="M657.2,508.3c-0.3,0-0.6,0.1-0.9,0.1C656.6,508.3,656.9,508.3,657.2,508.3z"/>
<path class="st0" d="M662.9,507.3c-0.3,0.1-0.7,0.1-1,0.2C662.2,507.4,662.6,507.3,662.9,507.3z"/>
<path class="st0" d="M575.5,483.9c-0.2-0.1-0.4-0.3-0.6-0.4C575.1,483.7,575.3,483.8,575.5,483.9z"/>
<path class="st0" d="M528.1,450C528.1,450,528.1,450,528.1,450C528.1,450,528.1,450,528.1,450z"/>
<path class="st0" d="M611.5,503.1c-0.2-0.1-0.4-0.2-0.6-0.2C611.1,502.9,611.3,503,611.5,503.1z"/>
<path class="st0" d="M535.6,455.8c-0.1-0.1-0.2-0.2-0.3-0.3C535.4,455.6,535.5,455.7,535.6,455.8z"/>
<polygon class="st0" points="524.7,447 524.7,447 524.7,447 "/>
<path class="st0" d="M567.9,478.9c-0.2-0.1-0.3-0.2-0.5-0.3C567.6,478.7,567.7,478.8,567.9,478.9z"/>
<path class="st0" d="M538.9,458.2c0,0-0.1-0.1-0.1-0.1C538.8,458.2,538.9,458.2,538.9,458.2z"/>
<path class="st0" d="M565.2,477.1c-0.1-0.1-0.2-0.1-0.3-0.2C565,477,565.1,477,565.2,477.1z"/>
<path class="st0" d="M425.2,135.8c0-0.1,0-0.2,0-0.3C425.2,135.6,425.2,135.7,425.2,135.8z"/>
<path class="st0" d="M425.5,144.4c0-0.2,0-0.3,0-0.5C425.5,144.1,425.5,144.2,425.5,144.4z"/>
<path class="st0" d="M425.3,140.1c0-0.1,0-0.3,0-0.4C425.3,139.8,425.3,139.9,425.3,140.1z"/>
<path class="st0" d="M570.5,480.7c-0.2-0.1-0.4-0.3-0.6-0.4C570.1,480.4,570.3,480.5,570.5,480.7z"/>
<path class="st0" d="M425.9,148.8c0-0.2,0-0.3-0.1-0.5C425.9,148.5,425.9,148.6,425.9,148.8z"/>
<polygon class="st0" points="432.4,182.8 432.4,182.8 432.4,182.8 "/>
<path class="st0" d="M427.2,157.6c0-0.1,0-0.1,0-0.2C427.1,157.5,427.1,157.6,427.2,157.6z"/>
<path class="st0" d="M426.5,153.2c0-0.1,0-0.3-0.1-0.4C426.4,152.9,426.5,153.1,426.5,153.2z"/>
<path class="st0" d="M599.6,497.8c-0.1-0.1-0.3-0.1-0.4-0.2C599.3,497.7,599.4,497.7,599.6,497.8z"/>
<path class="st0" d="M605.7,500.7c-0.2-0.1-0.4-0.2-0.6-0.3C605.3,500.5,605.5,500.6,605.7,500.7z"/>
<path class="st0" d="M601.6,498.8c-0.2-0.1-0.4-0.2-0.6-0.3C601.3,498.6,601.4,498.7,601.6,498.8z"/>
<path class="st0" d="M603.7,499.8c-0.2-0.1-0.4-0.2-0.6-0.3C603.3,499.6,603.5,499.7,603.7,499.8z"/>
<path class="st0" d="M573,482.3c-0.2-0.1-0.4-0.3-0.6-0.4C572.6,482.1,572.8,482.2,573,482.3z"/>
<path class="st0" d="M609.6,502.3c-0.2-0.1-0.4-0.2-0.6-0.3C609.2,502.2,609.4,502.3,609.6,502.3z"/>
<path class="st0" d="M607.7,501.5c-0.2-0.1-0.4-0.2-0.6-0.3C607.2,501.4,607.5,501.4,607.7,501.5z"/>
<path class="st0" d="M597.5,496.8c-0.1,0-0.1-0.1-0.2-0.1C597.3,496.7,597.4,496.7,597.5,496.8z"/>
<path class="st0" d="M580.3,487c-0.2-0.1-0.4-0.2-0.6-0.4C579.9,486.7,580.1,486.9,580.3,487z"/>
<path class="st0" d="M582.6,488.4c-0.2-0.1-0.3-0.2-0.5-0.3C582.3,488.2,582.5,488.3,582.6,488.4z"/>
<path class="st0" d="M577.9,485.5c-0.2-0.1-0.4-0.3-0.6-0.4C577.5,485.2,577.7,485.4,577.9,485.5z"/>
<path class="st0" d="M584.9,489.7c-0.1-0.1-0.3-0.2-0.4-0.2C584.6,489.6,584.7,489.7,584.9,489.7z"/>
<path class="st0" d="M586.9,491c-0.1,0-0.1-0.1-0.2-0.1C586.8,490.9,586.8,490.9,586.9,491z"/>
<g>
	<path class="st2" d="M660.4,647.9c-24.8-18.7-79.6-27-106.4-42.7c-31.9-18.7-47.6-63.7-49.4-92.7c-2,27.4,13.4,82,49.4,103.1
		c26.8,15.7,79.3,30.1,99.5,38.2c8.1,3.3,22.8,8.2,26.6,22.7c-0.1-1.5-0.3-3.1-0.8-4.8C676.7,661.7,668.7,654.1,660.4,647.9z"/>
	<path class="st2" d="M394.9,750.1c1.8-24.4-10.8-65-11.9-103.7C381.9,683,393.5,722.9,394.9,750.1z"/>
	<path class="st2" d="M300.5,457.9c-1,8.3-4.2,17.1-7.8,23.8c-2.6,4.9-6.3,9.6-10.8,14.3c-41.4,43.3-153.5,80-179.5,124
		c-3,5-5.4,10-7.4,14.9c30.4-47.9,170.8-93.1,197.7-142.8C297.9,482.4,302.1,468.3,300.5,457.9z"/>
	<path class="st2" d="M517.5,34.9c2.6,4.5,3.8,10.2,3.7,15.7c1.5-8,0.5-17.4-3.7-26.1c-9-18.7-55-35.9-93.8-14.7
		c-4.1,2.2-7.8,4.6-11.2,7c-57.2,41.2-16,109.5-46.5,179.6c-2.9,6.6-6.3,13.4-12.2,17.5c-0.1,0.1-0.2,0.1-0.3,0.2
		c-3.7,2.5-8,3.8-12.3,4.9c-45.3,11.2-70.7-29.8-72.3-77.1c-2.1,51.4,23.7,99.5,72.3,87.5c4.4-1.1,8.8-2.5,12.6-5.1
		c5.9-4.1,9.3-10.9,12.2-17.5c32.3-74.3-15.9-146.5,57.7-186.6C462.5-1,507.3,16.9,517.5,34.9z"/>
	<path class="st2" d="M254.1,411.2c0.2-2.2-0.1-4.2-0.9-6.1c-2.1,6.5-7.6,11.6-16,15.5c-17.6,8.2-47.9,11.2-85.2,11
		c-82.6-0.5-69.5-62.4-98.8-62.4c-19.2,0-31.8,12.4-38.6,29c-0.5,1.1-0.9,2.3-1.3,3.5c6.7-13.2,19.4-22.4,39.9-22
		c29.3,0.6,16.1,61.8,98.8,62.4C210.9,442.4,252.1,434.7,254.1,411.2z"/>
	<path class="st2" d="M345.6,560.6c-3.2,8.3-6.4,16.1-9.6,23.5c-7.6,18-14.9,33.8-21,48.2c-12.9,30.1-21,53.5-17.4,76.7
		c1.1-37.3,30.2-78.9,55.2-143.2c2.9-7.5,1.7-16.8-2.6-23.7C349.7,548.6,347.5,555.7,345.6,560.6z"/>
	<path class="st2" d="M193.5,105.6C196.6,52,221.3,41,249.1,41c22.1,0,28.3,11.9,28.5,29.3c2.1-22.9-2.6-39.8-33-39.6
		c-12.9,0.1-24.2,2.5-32.8,10.3c-10,9.1-16.6,25.5-18.2,54.2c-0.2,4.2-0.3,8.4-0.1,12.5C193.4,107,193.4,106.3,193.5,105.6z"/>
	<path class="st2" d="M15.7,466.2c-1.3-2.7-2.5-5.6-3.5-8.5C13.2,460.8,14.3,463.7,15.7,466.2z"/>
	<path class="st2" d="M89,122.1c17.3-2.5,42.2,3.5,51.3,44c11.7,51.7,14.3,114,49.3,146.4c19.3,17.8,46.8,42.1,76.5,27.4
		c22.5-11.1,35.1-23.1,31.9-40.2c-1.7,7.6-7.1,14.2-15.4,20.2c-4.6,3.3-10.1,6.5-16.5,9.6c-29.7,14.7-57.2-9.6-76.5-27.4
		c-35.1-32.4-37.7-94.7-49.4-146.5c-9.1-40.4-29.3-45.8-51.3-44c-4,0.3-7.8,1.6-11.4,3.7C58.3,126.6,44.7,160.7,46,194
		C47.8,158.6,65.7,125.4,89,122.1z"/>
	<path class="st2" d="M508.2,143.3c9.1-2.9,18.3-5.3,27.7-7.1c49-9.5,85.2,15.6,125.3,40.9c33.7,21.3,81.1,67.3,97.5,103.5
		c1.5,3.2,2.8,6.4,4,9.5c-2.5-14.1-7.5-27.7-14.9-40.1c-20.6-34-52.8-70.6-86.5-91.9c-40-25.3-76.3-50.4-125.3-40.9
		c-38.4,7.5-74.4,24-105.2,48c-2.4-10.8-4.2-21.6-5.4-32.6c-0.6,13.9,2,27.4,4.9,41c0.1,0.4,0.2,0.8,0.3,1.2
		c0.6,2.7,1.2,5.4,1.9,8.1c0,0,0,0,0,0c0.7-0.5,1.4-1,2.1-1.6C456.8,164.6,481.8,151.7,508.2,143.3z"/>
	<path class="st2" d="M738.5,466.7c-16.8-1.3-46.4,22.8-62.7,27.2c-45.2,12.2-69.3,4.7-141.5-49.5c-0.1,0-0.1,0-0.2,0
		c-0.7,0.1-1.5,0.3-2.3,0.5c-0.6,0.1-1.2,0.3-1.9,0.5c-0.2,0-0.3,0.1-0.4,0.1c-1.6,0.4-3.2,0.9-4.8,1.5
		c15.7,14.4,34.7,27.1,52.5,38.7c17.9,11.6,37.6,21.5,59.2,23.3c0.4,0,0.7,0.1,1.1,0.1c0.2,0,0.5,0,0.7,0
		c12.1,0.8,23.9-1.3,35.5-4.3c0.7-0.2,1.4-0.4,2.1-0.5c16.3-4.4,45.9-28.6,62.7-27.2c16.8,1.3,33.7,8.7,33.4,25.6
		c0.3-1.8,0.5-3.5,0.5-5C772.7,480.8,755.3,468.1,738.5,466.7z"/>
</g>
<path class="st3" d="M738.5,477c-12.6-1-25.9,8.2-36.3,14.1c-13.9,7.9-26.5,14.2-42.5,16.7c-13.7,2.2-27.9,1.7-41.1-2.3
	c0,0,0,0-0.1,0c-19.4-6-36.9-17.2-53.6-28.6c-7.2-4.9-14.3-9.9-21.3-15.1c-3.4-2.5-6.8-5.1-10.2-7.7c-0.8-0.6-8.2-7.4-8.8-7.2
	c17.2-5.9,36.7-5.1,54.6-3.6c18.6,1.6,37,4.7,55.7,6.1c23,1.7,46.3,0.1,67.6-9.4c8.9-4.1,17-9.7,24-16.5
	c32.3-30.3,50.4-64.7,43.5-107c-1.4-8.5-3.8-17.4-7.3-26.6c-1.2-3.1-2.5-6.3-4-9.5c-16.4-36.2-63.8-82.2-97.5-103.5
	c-40-25.3-76.3-50.4-125.3-40.9c-9.4,1.8-18.6,4.2-27.7,7.1c-22.5,7.2-44.4,17.8-64.1,31.1c-0.1,0-0.1,0.1-0.2,0.1
	c-3.9,2.7-7.7,5.4-11.5,8.3c-1.3-5.4-2.5-10.8-3.6-16.2c-2.3-11.4-4.2-23.3-3.5-35c0.4-6.5,1.7-12.5,4.2-17.8
	c3.5-7.4,9.4-13.4,18.7-17.2c26.7-11,38.8-10.9,63-25.5c2.4-1.5,4.4-3.5,5.9-5.9c2.6-4.1,4-9.4,4.1-14.7c0.1-5.6-1.2-11.2-3.7-15.7
	c-10.2-18-55-35.9-93.8-14.7c-73.6,40.2-25.4,112.4-57.7,186.6c-2.9,6.6-6.3,13.4-12.2,17.5c-3.7,2.6-8.2,4-12.6,5.1
	c-48.6,12-74.4-36.1-72.3-87.5c0.1-2.4,0.3-4.9,0.5-7.3c2-22.5,8.4-46.3,8.2-64.3c-0.2-17.4-6.5-29.3-28.5-29.3
	c-27.8,0-52.5,11.1-55.6,64.7c0,0.7-0.1,1.4-0.1,2.1c-3.6,87.2,82.2,153,96.4,173.8c4.5,6.7,7.2,12.7,8.3,18.2
	c3.3,17.1-9.4,29.1-31.9,40.2c-29.7,14.7-57.2-9.6-76.5-27.4C154.6,280,152,217.8,140.3,166c-9.1-40.4-34-46.4-51.3-44
	C65.7,125.4,47.8,158.6,46,194c-0.6,11.1,0.5,22.5,3.4,33.2c7.7,27.8,64,149,178.2,163.2c10.2,1.3,22.3,6.1,25.6,14.7
	c0.7,1.9,1.1,3.9,0.9,6.1c-2,23.5-43.2,31.2-102.1,30.8c-82.6-0.6-69.5-61.8-98.8-62.4c-20.6-0.4-33.2,8.8-39.9,22
	c-8.1,16-7.4,38-1.2,56.1c1,3,2.2,5.8,3.5,8.5c0,0.1,0.1,0.1,0.1,0.2c10.6,22,51.1,59.2,119.2,58.1c82.4-1.5,136.6-83.8,154.7-79.5
	c6.6,1.6,9.8,6.5,10.8,12.9c1.7,10.4-2.6,24.5-7.8,34.2C265.8,541.8,125.3,587,94.9,634.9c-0.1,0.1-0.1,0.2-0.2,0.2
	c-5,8-8.2,16.5-9.8,25c-8.1,42.2,22,85.7,51.4,85.7c16.1,0,28.3-10.5,38.1-25.2c11.7-17.5,20-41,27.7-59.6
	c4.3-10.5,12-22.2,21.7-34.2c39.4-48.6,111.7-100.6,123-89.3c1.3,1.3,2.5,2.8,3.5,4.5c4.3,7,5.5,16.2,2.6,23.7
	c-25,64.3-54.1,106-55.2,143.2c-0.3,10.4,1.5,20.4,6.2,30.5c14.1,30.1,59.5,55.9,82.6,39.9c0.9-0.7,1.8-1.4,2.6-2.2
	c5.2-5.6,6.5-15.1,5.9-27c-1.5-27.1-13-67.1-11.9-103.7c0.1-3.1,0.3-6.2,0.6-9.2c2.5-26.5,9.3-56.1,22.7-75.3
	c8.6-12.4,20-20.4,34.7-20.4c10.1,0,31.3,44.5,44.6,97.3c15.7,62.2,77.5,107.4,145,87.8c18.7-5.4,38-15.1,46.2-28.4
	c2.5-4,4-8.4,4.2-13.1c0.1-3.2-0.2-6-0.9-8.6c-3.8-14.5-18.4-19.5-26.6-22.7c-20.2-8.1-72.7-22.5-99.5-38.2
	c-36-21.1-51.4-75.7-49.4-103.1c0-0.2,0-0.3,0-0.5c0.5-6.5,2.1-11.4,4.6-13.9c16.8-16.8,41.6,39,64.8,57.2
	c55.4,43.3,136.7,63.1,180.9-0.3c1-1.4,2.1-3.3,3.2-5.6c6.2-12.8,13.7-37,13.8-46.7C772.1,485.7,755.3,478.4,738.5,477z"/>
<circle class="st4" cx="480.4" cy="283.5" r="36.6"/>
<circle class="st4" cx="534.4" cy="362.1" r="36.6"/>
<circle class="st5" cx="491.2" cy="268.5" r="9.5"/>
<circle class="st5" cx="545.3" cy="347.1" r="9.5"/>
</svg>
