<svg id="Layer_1" data-name="Layer 1" xmlns="http://www.w3.org/2000/svg" viewBox="0 0 796.31 800"><defs><style>.cls-1{fill:#fecb21;}.cls-2{fill:#f43b22;}.cls-3{fill:#c4790c;}</style></defs><title>u1F355-sliceofpizza800</title><g id="Layer_2" data-name="Layer 2"><path class="cls-1" d="M77.68,113.88l313-54.62,334.23,54.62c31.16,0,51.05,33.23,36.34,60.69L437.8,778.24c-15.54,29-57.12,29-72.67,0L41.35,174.59C26.62,147.12,46.51,113.88,77.68,113.88Z" transform="translate(-1.84 0)"/></g><g id="Layer_3" data-name="Layer 3"><path class="cls-2" d="M420.59,482.89a81.4,81.4,0,1,1-81.4-81.4A81.4,81.4,0,0,1,420.59,482.89ZM523.89,611.42A81.4,81.4,0,1,0,447.6,755.23m76.29-536.49a81.4,81.4,0,1,0,81.4,81.4A81.4,81.4,0,0,0,523.89,218.75Zm-285.59-53a81.4,81.4,0,1,0,81.4,81.4A81.4,81.4,0,0,0,238.29,165.8Z" transform="translate(-1.84 0)"/></g><g id="Layer_4" data-name="Layer 4"><path class="cls-3" d="M61.37,204.7A59.47,59.47,0,0,1,32.45,93.23,734.14,734.14,0,0,1,207.14,24.09a786.88,786.88,0,0,1,380.55-1.46A749,749,0,0,1,767.11,91.86a59.47,59.47,0,1,1-56.87,104.45A630,630,0,0,0,559.3,138.12a667.89,667.89,0,0,0-159.23-19.19h-2.32a661,661,0,0,0-161.18,20.38A615.18,615.18,0,0,0,90.19,197.21,59.17,59.17,0,0,1,61.37,204.7Z" transform="translate(-1.84 0)"/></g></svg>