<?xml version="1.0" encoding="utf-8"?>
<!-- Generator: Adobe Illustrator 19.2.1, SVG Export Plug-In . SVG Version: 6.00 Build 0)  -->
<svg version="1.1" id="Layer_1" xmlns="http://www.w3.org/2000/svg" xmlns:xlink="http://www.w3.org/1999/xlink" x="0px" y="0px"
	 viewBox="0 0 800 800" style="enable-background:new 0 0 800 800;" xml:space="preserve">
<style type="text/css">
	.st0{fill:#FECB21;}
	.st1{fill:#F43B22;}
	.st2{fill:#C4790C;}
</style>
<g id="Layer_2">
	<path class="st0" d="M77.7,113.9l313-54.6l334.2,54.6c31.2,0,51.1,33.2,36.3,60.7L437.8,778.2c-15.5,29-57.1,29-72.7,0L41.3,174.6
		C26.6,147.1,46.5,113.9,77.7,113.9z"/>
</g>
<g id="Layer_3">
	<path class="st1" d="M420.6,482.9c0,45-36.4,81.4-81.4,81.4s-81.4-36.4-81.4-81.4s36.4-81.4,81.4-81.4S420.6,437.9,420.6,482.9z
		 M523.9,611.4c-39.7-21.1-89-6-110.1,33.8c-21.1,39.7-6,89,33.8,110.1 M523.9,218.7c-45,0-81.4,36.4-81.4,81.4s36.4,81.4,81.4,81.4
		s81.4-36.4,81.4-81.4S568.8,218.7,523.9,218.7z M238.3,165.8c-45,0-81.4,36.4-81.4,81.4s36.4,81.4,81.4,81.4s81.4-36.4,81.4-81.4
		S283.3,165.8,238.3,165.8z"/>
</g>
<g id="Layer_4">
	<path class="st2" d="M61.4,204.7c-20.9,0-41.2-11-52-30.6c-15.9-28.7-5.6-64.9,23.1-80.9c54.3-30.1,113-53.4,174.7-69.1
		C268.8,8.3,332.8,0.2,397.3,0c64.3-0.2,128.4,7.4,190.3,22.6c63.2,15.5,123.6,38.8,179.4,69.2c28.8,15.7,39.5,51.8,23.8,80.7
		c-15.7,28.8-51.8,39.5-80.7,23.8c-46.9-25.5-97.7-45.1-150.9-58.2c-51.8-12.7-105.4-19.2-159.2-19.2c-0.8,0-1.5,0-2.3,0
		c-54.7,0.2-109,7-161.2,20.4c-51.8,13.2-101,32.7-146.4,57.9C81,202.3,71.1,204.7,61.4,204.7z"/>
</g>
</svg>
