<?xml version="1.0" encoding="utf-8"?>
<!-- Generator: Adobe Illustrator 19.2.1, SVG Export Plug-In . SVG Version: 6.00 Build 0)  -->
<svg version="1.1" id="Layer_1" xmlns="http://www.w3.org/2000/svg" xmlns:xlink="http://www.w3.org/1999/xlink" x="0px" y="0px"
	 viewBox="0 0 765.9 765.9" style="enable-background:new 0 0 765.9 765.9;" xml:space="preserve">
<style type="text/css">
	.st0{fill:#FF473E;}
	.st1{fill:#EDC0A2;}
	.st2{fill:#2B3B47;}
	.st3{fill:#D32A2A;}
</style>
<path class="st0" d="M611.5,179c0-98.9-80.2-179.1-179.1-179.1c-73,0-41.1,7.9-91.9,7.9s-17.2-7.9-101.4-7.9
	c-98.8,0-179,80.2-179,179.1l0,0c-12.3,120.3-1.5,304,27.5,385.7c34.7,97.9,94.6,125.2,236.7,187.6C481.5,821.2,611.5,627,611.5,179
	L611.5,179z"/>
<path class="st1" d="M548.4,251.3c-4,3.3-8.4,6.1-12.9,8.7c-13.9,7.8-29.2,11.7-45,11.7c-9.3,0-18.9-1.3-28.4-4
	c-2.5,5.7-4.3,11.8-4.8,18.3h-0.6v76.5h0.3l-0.1,0.1c0,29.9,24.4,54.3,54.3,54.3s54.3-24.4,54.3-54.3c0-0.1,0-0.1,0-0.1l0,0v-76.5
	H565C563.8,272.4,557.7,260.3,548.4,251.3z"/>
<path class="st1" d="M283.2,279c-8.8,3.1-18.3,4.8-28.1,4.8c-10.9,0-22.3-1.9-33.8-6c-12.7-4.3-24.4-10.9-34.7-19
	c-5.5,7.8-9.1,17.1-10,27.1h-0.4v76.5h0.1v0.1c0,29.9,24.4,54.3,54.3,54.3s54.3-24.4,54.3-54.3c0-0.1,0-0.1,0-0.1l0,0v-76.5h-0.6
	C284.1,283.6,283.7,281.2,283.2,279z"/>
<path class="st1" d="M305.1,651.1c-2.4,0-4.8-0.7-6.9-2.2c-5.4-3.9-6.7-11.4-2.8-16.8c30.8-43.7,87.7-59.7,127.9-53
	c28.6,4.8,48.9,20.6,55.7,43.8c1.8,6.4-1.8,13-8.1,15c-6.4,1.8-13-1.8-15-8.1c-5.5-19-25.3-25-36.5-26.9
	c-32-5.4-79.6,7.9-104.4,43.1C312.6,649.3,308.8,651.1,305.1,651.1z"/>
<path class="st2" d="M269.5,314.3c-0.7-8.4-7.6-15-16.2-15c-8.5,0-15.6,6.6-16.3,15h-0.1v23l0,0l0,0c0,9,7.3,16.5,16.5,16.5
	c9,0,16.5-7.3,16.5-16.5l0,0l0,0v-23H269.5z"/>
<path class="st2" d="M553.6,314.3c-0.7-8.4-7.6-15-16.2-15c-8.5,0-15.6,6.6-16.3,15H521v23l0,0l0,0c0,9,7.3,16.5,16.5,16.5
	c9,0,16.5-7.3,16.5-16.5l0,0l0,0v-23H553.6z"/>
<path class="st2" d="M296.7,206.4c-1.8-20.8-20-36.4-40.8-34.9c-16.3-17.2-37.9-44-46.5-55.1c-6.4-8.4-18.4-9.9-26.8-3.4
	c-8.4,6.4-9.9,18.4-3.4,26.8c1.2,1.6,5.4,7,11.2,14.2c-6.3-3.6-12.6-7.3-18.3-11.4c-7.2-4.9-13.8-10-19.3-14.5
	c-2.7-2.2-5.2-4.3-7.3-6.3c-2.1-1.9-4-3.6-5.5-4.9c-0.7-0.7-1.3-1.3-1.9-1.8c-0.6-0.6-1.2-1.2-1.6-1.5c-0.9-0.9-1.3-1.3-1.3-1.3
	c-9-8.7-23-9.7-33.2-2.1c-11.2,8.5-13.5,24.5-4.9,35.9c0,0,0.4,0.4,1.2,1.5c0.3,0.4,0.7,1,1.3,1.8c0.6,0.7,1.3,1.6,2.1,2.7
	c1.6,2.1,3.4,4.3,5.7,6.9c2.2,2.7,4.6,5.5,7.5,8.7c11.2,12.6,27.2,28.6,46.2,42.5c4.6,3.6,9.7,6.9,14.7,10
	c5.1,3.1,10.2,6.1,15.3,8.8c5.2,2.7,10.3,5.1,15.4,7.2c5.1,2.1,10.2,3.9,15,5.4c2.4,0.7,4.8,1.3,7,1.9c2.2,0.6,4.5,1,6.4,1.5
	c2.1,0.4,4,0.7,5.8,1c1.8,0.3,3.4,0.4,5.1,0.7c3,0.4,5.5,0.6,7.2,0.7c1.6,0.1,2.5,0.1,2.5,0.1h0.6c1.9,0.1,4,0.1,6,0
	C283,245.9,298.5,227.4,296.7,206.4z"/>
<path class="st2" d="M584.6,109.3c-12.6-5.5-27.4,0.1-32.9,12.7v0.1l0,0v0.1c0,0-0.1,0-0.1,0.3c-0.3,0.4-0.7,1.3-1.2,2.2
	c-1.2,2.1-3,5.1-5.4,8.5c-1.2,1.6-2.5,3.6-4,5.4c-1.5,1.8-3.1,3.7-4.8,5.5c-0.7,0.9-1.6,1.6-2.4,2.4c1.9-5.1,0.7-11.1-3.6-15
	c-5.5-4.8-13.9-4.3-18.9,1.3l-22.4,25.7c-0.4,0-1,0-1.5,0.1c-21.1,2.1-36.7,20.8-34.7,42c2.1,21.1,20.8,36.7,42,34.7l2.2-0.1
	c0,0,2.7-0.3,7.2-0.9c2.2-0.3,5.1-0.9,8.2-1.5c1.6-0.3,3.3-0.9,5.1-1.3c0.9-0.3,1.8-0.4,2.7-0.7c0.9-0.3,1.8-0.6,2.8-0.9
	c3.9-1.2,7.8-2.8,12-4.8c2.1-1,4.2-2.1,6.1-3.3c1.9-1.2,4-2.4,6.1-3.7c4-2.7,7.9-5.7,11.5-9c0.9-0.7,1.8-1.6,2.7-2.4l2.5-2.5
	c1.8-1.6,3.3-3.4,4.9-5.2c1.5-1.8,3-3.6,4.5-5.4c1.3-1.8,2.7-3.6,4-5.5c2.5-3.7,4.8-7.3,6.7-10.9c1.9-3.6,3.7-7,5.2-10.5
	c1.5-3.3,2.8-6.6,3.9-9.4c2.2-5.8,3.7-10.9,4.8-14.5c0.4-1.8,0.9-3.3,1.2-4.3c0.1-0.6,0.3-1.2,0.3-1.5c0-0.1,0-0.3,0-0.3v-0.1
	C601.1,125.5,595.4,114.1,584.6,109.3z"/>
<path class="st2" d="M389.3,503.3c0,0-0.3,0-0.7,0.1c-0.1,0-0.6,0-0.9,0.1c-0.1,0.1-0.4,0.1-0.6,0.3c-1.3,0.4-3.6,1.3-6.4,2.8
	c-5.8,3-14.2,8.7-24.4,15.7c-10.2,7-22.1,15.4-35.6,23.9c-13.5,8.5-28.6,17.1-44.9,24.1c-8.2,3.4-16.8,6.6-25.6,9
	c-8.8,2.4-18,4.2-27.1,4.9c-9.1,0.9-18.4,0.6-27.1-0.4c-8.8-1-17.1-3-24.5-5.5c-7.5-2.5-14.1-5.7-19.8-8.7c-5.7-3-10.2-6.1-13.9-8.7
	c-3.6-2.7-6.4-4.8-8.2-6.4c-1.8-1.5-2.8-2.4-2.8-2.4l-8.1-6.7c-19.6-16.2-22.4-45.2-6.1-64.8s45.2-22.4,64.8-6.1
	c5.1,4.2,9.3,9.6,12,15.3c0,0,0.3,0.6,0.7,1.5c0.4,1,1.2,2.4,2.1,4.2c1,1.6,2.1,3.7,3.6,5.8c1.5,2.1,3.3,4.5,5.5,6.7
	c2.2,2.2,4.9,4.6,8.5,6.7c3.4,2.1,7.8,4,12.9,5.5c5.1,1.5,10.9,2.5,17.4,3s13.3,0.3,20.6-0.3c14.5-1.2,29.8-4.5,44.3-8.4
	c14.5-3.9,28.3-8.5,40.4-12.4c12.1-3.9,22.4-7.2,30.4-8.8c4-0.7,7.3-1.2,9.9-1.2c0.7,0,1.3,0,1.9,0c0.4,0,0.7,0.1,1,0.1
	c0.4,0,0.7,0.1,0.7,0.1l0.6,0.1c3,0.4,5.1,3.3,4.6,6.3C393.7,501,391.7,503,389.3,503.3z"/>
<path class="st2" d="M421.2,491.5c0,0,0.6,0,1.9,0c0.3,0,0.6,0,1,0s1,0.1,1.6,0.1c0.6,0,1.2,0.1,1.9,0.3c0.3,0,0.7,0.1,1,0.1
	c0.3,0,0.6,0.1,0.9,0.1c2.7,0.4,5.7,1.3,9,2.4c3.3,1,6.9,2.5,10.6,4.2c7.5,3.1,16,7.2,24.8,11.1c4.5,1.9,9,3.7,13.6,5.5
	c4.6,1.6,9.3,3.1,13.9,4.3c4.6,1,9.1,2.1,13.6,2.4l1.6,0.1h1.6c1,0,2.1,0,3.1,0.1c2.1-0.1,4-0.1,6-0.4c3.9-0.3,7.3-1.5,10.5-2.4
	c1.5-0.6,3-1.2,4.5-1.9c1.3-0.7,2.7-1.3,4-2.2c1.2-0.7,2.4-1.6,3.6-2.4c1-0.9,2.1-1.6,3-2.4c0.4-0.3,0.9-0.7,1.3-1.2
	c0.4-0.4,0.9-0.7,1.2-1.2c0.7-0.7,1.5-1.5,2.1-2.1c2.5-2.7,3.9-4.3,3.9-4.3l0.6-0.6c7-7.9,19.2-8.5,27.1-1.5
	c7.9,7,8.5,19.2,1.5,27.1c-0.6,0.7-1.5,1.5-2.1,2.1c0,0-2.4,1.9-6.7,5.5c-1.2,0.9-2.4,1.6-3.9,2.7c-0.7,0.4-1.5,1-2.2,1.5
	c-0.7,0.6-1.5,1-2.4,1.5c-1.8,1-3.6,2.1-5.5,3.1c-2.1,1-4.2,1.9-6.4,3s-4.8,1.8-7.3,2.7c-2.5,0.7-5.4,1.3-8.1,1.9
	c-5.7,0.9-11.7,1.6-17.7,1.2c-3,0-6-0.4-9.1-0.7c-1.5-0.3-3-0.6-4.5-0.7l-2.2-0.4l-2.2-0.6c-5.8-1.3-11.5-3.4-16.9-5.7
	c-5.4-2.2-10.5-4.8-15.3-7.5c-4.8-2.7-9.4-5.4-13.6-8.1c-8.7-5.4-16.3-10.6-22.7-14.5c-3.3-1.9-6.3-3.7-8.8-5.1
	c-2.7-1.3-4.9-2.4-6.7-3c-0.3-0.1-0.4-0.1-0.6-0.3c-0.1,0-0.3-0.1-0.4-0.1c-0.3-0.1-0.6-0.1-0.9-0.3c-0.3-0.1-0.4-0.1-0.9-0.3
	c-0.4,0-0.7-0.1-1-0.1c-1.2-0.1-1.9-0.3-1.9-0.3l0,0c-3.4-0.4-5.8-3.7-5.4-7.2C415.5,493.7,418.2,491.5,421.2,491.5z"/>
<path class="st3" d="M231.8,479c-0.7,0-1.3,0-2.1,0c-24.2-0.6-47-11.4-63.9-30.2c-5.2-5.8-4.8-15,1.2-20.2c5.8-5.2,15-4.8,20.2,1.2
	c11.7,13,26.9,20.3,43.2,20.8c16.2,0.3,31.9-6.3,44-18.6c5.5-5.7,14.5-5.7,20.2-0.1c5.7,5.5,5.7,14.5,0.1,20.2
	C277.4,469.5,255.1,479,231.8,479z"/>
<path class="st3" d="M684.5,358.3c-22-26.5-61.2-30.1-87.5-8.1c0,0-0.3,0.3-0.7,0.7c-0.6,0.4-1.2,1.2-2.7,2.1
	c-0.3,0.3-0.7,0.4-1.2,0.7c-0.4,0.3-0.7,0.6-1.3,0.9c-1,0.6-2.2,1.2-3.4,1.9c-1.3,0.7-2.8,1.3-4.5,2.1c-0.7,0.4-1.6,0.7-2.5,1.2
	s-1.8,0.7-2.8,1.2c-3.9,1.6-8.4,3.3-13.3,4.9c-4.9,1.6-10.3,3.3-16.2,4.9c-2.8,0.7-5.8,1.5-8.8,2.4c-3,0.7-6.1,1.5-9.3,2.2
	c-6.3,1.5-12.9,2.8-19.5,4.2c-6.6,1.3-13.2,2.5-19.9,3.7c-6.6,1.2-13.2,2.2-19.5,3.1c-12.7,1.9-24.7,3.4-35,4.6
	c-10.3,1.2-18.9,2.1-24.8,2.7c-5.8,0.6-9.3,0.9-9.3,0.9l-1.2,0.1c-15.7,1.5-29,13.5-31.3,29.8c-2.7,19,10.6,36.7,29.6,39.4
	c0,0,3.7,0.6,10.3,1.5c6.4,0.9,15.6,2.1,26.6,3.3c10.9,1.2,23.8,2.5,37.7,3.7c6.3,0.4,12.7,0.9,19.3,1.3c8.7,3.1,17.7,4.8,27.1,5.1
	c0.7,0,1.3,0,2.1,0c8.4,0,16.5-1.2,24.4-3.6c1.8,0,3.6,0,5.2,0c3.7-0.1,7.5-0.1,11.2-0.3c7.5-0.3,14.7-0.7,21.7-1.3
	c7-0.6,13.9-1.5,20.3-2.4c1.6-0.3,3.3-0.4,4.8-0.7c1.5-0.3,3.1-0.4,4.6-0.9c3.1-0.6,6-1.2,8.8-1.8c2.8-0.7,5.5-1.3,8.1-2.1
	c1.2-0.3,2.5-0.7,3.7-1c1.2-0.4,2.4-0.7,3.4-1c4.2-1.2,7.9-2.8,10.5-3.7c2.5-1,3.7-1.5,3.7-1.5l6.9-2.7c5.8-2.4,11.4-5.7,16.5-9.9
	C702.8,424,706.4,384.8,684.5,358.3z"/>
</svg>
