<?xml version="1.0" encoding="utf-8"?>
<!-- Generator: Adobe Illustrator 19.1.0, SVG Export Plug-In . SVG Version: 6.00 Build 0)  -->
<svg version="1.1" id="Layer_1" xmlns="http://www.w3.org/2000/svg" xmlns:xlink="http://www.w3.org/1999/xlink" x="0px" y="0px"
	 viewBox="0 0 792 554" style="enable-background:new 0 0 792 554;" xml:space="preserve">
<style type="text/css">
	.st0{fill:#FFFFFF;}
</style>
<rect class="st0" width="792" height="554"/>
<g>
	<path d="M599.3,432.1c0.4-14.5,7.8-23,19.3-23c11.6,0,18.9,4.5,19.9,20.1c0.8,11.5-0.1,26.4-0.5,38.8c0,2.4,2,4,4.9,4h20.5v-8.4
		l-11.7-3.4c0-6.3,0.8-19.5,0-33.8c-0.9-16.2-7.4-28.9-28.9-28.9c-16.8,0-27.2,9.1-27.2,18.5l1.8,0.3l-0.7-13.2
		c-0.1-2.5-1.6-3.6-4-3.6h-17v7.8l10.3,3.7l-0.8,54.9c0,4.1,1.7,6.2,4.6,6.2h21.6v-8.4l-12.4-3.4C598.9,451.2,599,441.2,599.3,432.1
		 M539.2,472h21.6l-0.3-8.4l-12.4-3.4c-0.7-11.4-1.1-35.1-0.1-50.4l8.8-3.4l0.3-8.4h-17.8c-2.9,0-4.6,2.1-4.6,6.2
		c0,1.1,0.7,8.6,0.7,13.6l1.6-1.6c-4-11.4-13.5-18.6-27.9-18.6c-21,0-36.6,17.2-36.6,38.4c0,21.1,15.8,38.3,36.8,38.3
		c16.9,0,28-12.1,28-19.5h-1.6C535.8,461.9,535.9,472,539.2,472 M511.1,409.3c13.7,0,24.6,12.1,24.6,26.4s-9.8,26.3-24.6,26.3
		c-13.7,0-25.5-12-25.5-26.3S496.7,409.3,511.1,409.3 M361.3,463.5l-12.4-3.4c-0.1-8.8,0-18.9,0.3-28c0.4-14.5,6.6-22.7,16.9-22.7
		c7.8,0,17,4.4,18.1,19.9c0.8,11.5,0.1,26.3-0.3,38.7c0,2.4,2,4,4.9,4h20.7v-8.4l-11.9-3.4v-35.4c2.5-10.7,10.6-15.3,19.1-15.3
		c5.1,0,14.8,4.4,15.8,19.9c0.8,11.5,0.1,26.3-0.3,38.7c0,2.4,2,4,4.9,4h20.6v-8.4l-11.7-3.4c0-6.3,0.8-19.5,0-33.8
		c-0.9-16.2-8.6-28.9-25.1-28.9c-12.4,0-23.1,4.6-28.8,15.4h3.6c-5.4-11.6-12.4-15.4-24.7-15.4c-11.9,0-21,5.5-26.1,16l2,0.4
		l-0.7-10.8c-0.1-2.5-1.6-3.6-4-3.6h-17v7.8l10.3,3.7l-0.8,54.9c0,4.1,1.7,6.2,4.6,6.2h21.9V463.5z M290.3,439.2
		c-0.4,14.5-7.5,22.7-19,22.7c-10.2,0-18.5-4.4-19.5-19.9c-0.8-11.5-0.1-26.3,0.3-38.7c0-2.4-2-4-4.9-4h-20.6v8.4l11.7,3.4
		c0,6.3-0.8,19.5,0,33.8c0.9,16.2,7.4,28.9,28.9,28.9c16.8,0,27.2-9.1,27.2-18.5l-1.8-0.3l0.7,13.2c0.1,2.5,1.6,3.6,4,3.6h17v-7.8
		l-10.3-3.7l0.8-54.9c0-4.1-1.7-6.2-4.6-6.2h-21.9v8.4l12.4,3.4C290.7,420.1,290.5,430.1,290.3,439.2 M153.8,432.1
		c0.4-14.5,7.8-23,19.3-23c11.2,0,18.6,4.2,19.7,20.2c0.8,11.5,0.1,26.3-0.3,38.7c0,2.4,2,4,4.9,4h20.5v-8.4l-11.7-3.4
		c0-6.3,0.8-19.5,0-33.8c-0.9-16.2-7.4-28.9-29.8-28.9c-15.8,0-25.7,10.3-25.7,16.2l3.4-0.3v-36.8c-0.1-2.5-1.6-3.6-4-3.6h-19.8v7.8
		l9.5,3.7v81.3c0,4.1,1.7,6.2,4.6,6.2h21.6v-8.4l-12.4-3.4C153.4,451.2,153.5,441.2,153.8,432.1"/>
	<path d="M643,277.4c0,14.3,11.5,26.4,25.2,26.4c14.8,0,25.2-12.1,25.2-26.4s-11.5-26.5-25.2-26.5C653.9,250.9,643,263.1,643,277.4
		 M668.2,238.7c21,0,38.1,17.4,38.1,38.7c0,21.1-17.2,38.5-38.1,38.5c-21,0-38.1-17.4-38.1-38.5
		C630.1,256.1,647.3,238.7,668.2,238.7 M595.3,245.2l17.2-8.8h8.3l-1.5,10.4l-5.7-0.3l-11.5,5.4L595.3,245.2z M590.6,299
		c9.8,0,24.6,8.7,24.6,29.2c0,20.1-15.3,35.2-35.5,35.2c-22.8,0-31.5-19.8-31.5-35.1h9.8c0,11,7.9,23,22.2,23
		c11.5,0,21-10.3,21-22.7c0-10.8-6.9-23.6-20.6-23.6L590.6,299z M560.1,272.6c0,11.4,9,21.4,19.5,21.4c11.4,0,19.5-10,19.5-21.4
		c0-11.4-9-21.4-19.5-21.4C568.7,251.3,560.1,261.3,560.1,272.6 M579.7,239.9c18.2,0,32.9,14.8,32.9,32.6c0,18-14.7,32.7-32.9,32.7
		s-32.9-14.8-32.9-32.7C546.8,254.7,561.5,239.9,579.7,239.9 M514.7,245.2l23.2-11.7l3.3,3.6v8.4l-8.2-0.4l-13.5,5.4L514.7,245.2z
		 M503.6,300.4l18.9-8.2l-18.1,20.2l-1.3-2c13.7,0,30,6.2,30,23.8c0,15.6-13.7,29.7-33.9,29.7c-22.8,0-31.5-20.2-31.5-35.5h9.8
		c0,11,7.9,23.4,22.2,23.4c11.5,0,19.1-6.9,19.1-16.2c0-11.5-11-16.2-24.7-16.2l-3.8-6.2L503.6,300.4z M479.6,272.6
		c0,11.4,9,21.4,19.5,21.4c11.4,0,19.5-10,19.5-21.4c0-11.4-9-21.4-19.5-21.4C488.2,251.3,479.6,261.3,479.6,272.6 M499.2,239.9
		c18.2,0,32.9,14.8,32.9,32.6c0,18-14.7,32.7-32.9,32.7c-18.2,0-32.9-14.8-32.9-32.7C466.3,254.7,480.9,239.9,499.2,239.9
		 M431.4,271.6c-4.9-2-15.6-5.9-15.6-13.3c0-6.2,5.4-8.8,12-8.8c8.2,0,12.9,5.9,12.9,7.9h5.5v-14.8c0-0.5-5-3.7-17.4-3.7
		c-13.1,0-27.5,8.1-27.5,20.9c0,13.6,12.5,18.3,17.2,20.5s18.1,5.1,18.1,13.9c0,6.9-6.7,9.6-13.6,9.6c-9.8,0-14.8-7.4-14.8-11.7
		h-6.2v17c-0.5,0,7.3,6.2,22.3,6.2c14,0,26-8.4,26-22.4C450.4,278.6,435.4,273.2,431.4,271.6 M350.4,315.1c22,0,36-16,36-40.8
		c0-17.6-7.4-35.4-29.8-35.4c-10.3,0-18.1,4.4-24.9,12l2,1.5l0.7-34.3c-0.1-2.5-1.6-3.6-4-3.6h-19.8v7.8l9.5,3.7v78.5
		c0,4.1,1.7,6.2,4.6,6.2C331.3,313.3,339.2,315.1,350.4,315.1 M333.8,299.7c-0.1-8.8-0.4-16.9-0.4-26c0-14.4,8.6-23.1,20.1-23.1
		c10.2,0,19.8,9.1,19.8,24.8c0,14.3-7.5,28.6-21.9,28.6C342.6,304.1,336.7,301.8,333.8,299.7 M271.2,273.7
		c0.4-14.5,6.1-22.7,16.2-22.7c4.2,0,8.1,2.8,8.1,3l4.4-0.3c0.1-1.5,2.2-11.2,1.5-11.9c-2.8-2.2-8.2-2.9-11.7-2.9
		c-13.5,0-22.4,9.1-22.4,18.5l1.8,0.3l-0.7-13.2c-0.1-2.5-1.6-3.6-4-3.6h-16.2v7.4l9.5,4.1l-0.8,54.9c0,4.1,1.7,6.2,4.6,6.2h19.7
		V306l-10.2-4.4C270.8,292.8,270.9,282.8,271.2,273.7 M232.5,304.2c-5.4,6.9-16,11.2-31.5,11.2c-24.4,0-38.8-16.9-38.8-38
		c0-21.3,17.2-38.7,39.3-38.7c12.4,0,25.9,10.2,29.3,16.4v9.8c-19.3,12.3-40.4,21.6-57,27.9l-3.8-11.2c14.9-5,32.7-12.8,51.2-23.1
		l-0.3,4.1c-5.5-7.5-12.3-11.7-20.6-11.7c-14.4,0-24.4,12.4-24.4,26.7c0,16.5,14.7,26.3,29.4,26.3c11.4,0,19.3-4,26.8-9.8
		L232.5,304.2z M103.3,244.5c-0.1-2.5-1.6-3.6-4-3.6H79.8v7.4l9.5,3.2l20.5,62h14.1l29-65.1V241h-24.3v7.4l9.4,2.9l-19.5,47.5
		L103.3,244.5z"/>
	<path d="M515,149.6l-7.8-4.4l4.5-57.7l28.9,67.6h10.2l28.4-67.5l4.4,67.5h22v-6.1l-8.1-4.5l-8.2-81.8h-13.2L546.7,134l-31.2-71.3
		h-21.1v6.5l7.1,2.9l-8.4,83H515V149.6z M412,66.3c-0.1-2.5-1.6-3.6-4-3.6h-18.6v7.4l9.5,3.2l31.2,81.8h14.1l34.2-83
		c0.4-0.9,0.8-1.7,0.8-3.6v-5.8h-24.6v7.4l8.7,2.9l-25.5,67.3L412,66.3z M301,108.2c0-22.8,15.7-34.5,30.2-34.5
		c14.5,0,32.1,10,32.1,35.8c0,23.6-15.8,35.4-31.2,35.4C319.5,144.9,301,133.9,301,108.2 M377.5,109.5c0-35.2-23.6-48.4-46.5-48.4
		c-21.8,0-44.4,17-44.4,47c0,35.1,25.2,49.5,45.5,49.5C355.5,157.5,377.5,142.1,377.5,109.5 M244.1,62.8v6.5l7.1,2.9v83h21.9v-5.5
		l-7.8-4.4V62.8H244.1z M183.8,62.8v6.5l7.1,2.9v83h21.9v-5.5l-7.8-4.4V62.8H183.8z M196.7,109.4h60.3V95.8h-60.3V109.4z"/>
</g>
</svg>
