<?xml version="1.0" encoding="utf-8"?>
<!-- Generator: Adobe Illustrator 19.1.0, SVG Export Plug-In . SVG Version: 6.00 Build 0)  -->
<svg version="1.1" id="Layer_1" xmlns="http://www.w3.org/2000/svg" xmlns:xlink="http://www.w3.org/1999/xlink" x="0px" y="0px"
	 viewBox="0 0 801 612" style="enable-background:new 0 0 801 612;" xml:space="preserve">
<style type="text/css">
	.st0{fill:#FFFFFF;}
	.st1{clip-path:url(#SVGID_4_);}
	.st2{clip-path:url(#SVGID_6_);}
</style>
<rect class="st0" width="801" height="612"/>
<g>
	<defs>
		<rect id="SVGID_1_" x="-116" width="1008" height="612"/>
	</defs>
	<clipPath id="SVGID_2_">
		<use xlink:href="#SVGID_1_"  style="overflow:visible;"/>
	</clipPath>
</g>
<g>
	<defs>
		<rect id="SVGID_3_" x="-116" width="1008" height="612"/>
	</defs>
	<clipPath id="SVGID_4_">
		<use xlink:href="#SVGID_3_"  style="overflow:visible;"/>
	</clipPath>
	<path class="st1" d="M166.8,211.3l-22.9-6.3c-0.2-16.3,0-34.8,0.5-51.6c0.7-26.8,12.2-41.9,31.2-41.9c14.4,0,31.4,8,33.4,36.8
		c1.5,21.2,0.2,48.5-0.5,71.4c0,4.4,3.7,7.3,9,7.3h38.2v-15.6l-21.9-6.3v-65.3c4.6-19.7,19.5-28.3,35.3-28.3c9.5,0,27.3,8,29.2,36.8
		c1.5,21.2,0.2,48.5-0.5,71.4c0,4.4,3.7,7.3,9,7.3h38v-15.6l-21.7-6.3c0-11.7,1.5-36,0-62.4c-1.7-30-15.8-53.3-46.3-53.3
		c-22.9,0-42.6,8.5-53.1,28.5h6.6c-10-21.4-22.9-28.5-45.5-28.5c-21.9,0-38.7,10.2-48.2,29.5l3.7,0.7l-1.2-20
		c-0.2-4.6-2.9-6.6-7.3-6.6h-31.4v14.4l19,6.8l-1.5,101.3c0,7.5,3.2,11.4,8.5,11.4h40.4V211.3z"/>
</g>
<polygon points="153,510.1 135.4,500.2 145.6,369.7 210.9,522.6 233.9,522.6 298.1,370 308,522.6 357.8,522.6 357.8,508.9 
	339.6,498.7 321.1,313.6 291.3,313.6 224.7,474.8 154.2,313.6 106.4,313.6 106.4,328.2 122.6,334.8 103.5,522.6 153,522.6 "/>
<g>
	<defs>
		<rect id="SVGID_5_" x="-116" width="1008" height="612"/>
	</defs>
	<clipPath id="SVGID_6_">
		<use xlink:href="#SVGID_5_"  style="overflow:visible;"/>
	</clipPath>
	<path class="st2" d="M674.9,342c0-3.3,0.9-5.1,3.6-6.3c3.3-1.5,17.9-6.3,18.5-7.5c0.9-1.8,0.9-3.3,0.9-7.2c0-3.9-0.3-5.7-0.9-7.5
		h-55.5l-69.9,169.6l6.9-0.3l-74-169.3h-54.3c-0.6,1.8-0.9,3.6-0.9,7.5c0,3.9,0,5.4,0.9,7.2c0.6,1.2,15.2,6,18.5,7.5
		c2.7,1.2,3.6,3,3.6,6.3l-16.7,153.2c0,3.3-1.8,4.5-3.9,5.4c-4.2,2.1-16.4,6.3-17,7.5c-0.9,1.8-0.9,3.3-0.9,7.2
		c0,3.9,0.3,5.7,0.9,7.5H508c0.6-1.8,0.9-3.6,0.9-7.5c0-3.9,0-5.4-0.9-7.2c-0.6-1.2-15.2-6-18.5-7.5c-2.7-1.2-3.9-3-3.6-6.3
		l11-133.5l-4.2,0.6l68.4,161.2h23l67.8-160.9l-4.2-0.6l11.9,133.2c0,3.3-0.9,5.1-3.6,6.3c-3.3,1.5-17.9,6.3-18.5,7.5
		c-0.9,1.8-0.9,3.3-0.9,7.2c0,3.9,0.3,5.7,0.9,7.5H711c0.6-1.8,0.9-3.6,0.9-7.5c0-3.9,0-5.4-0.9-7.2c-0.6-1.2-12.8-5.4-17-7.5
		c-2.1-0.9-3.9-2.1-3.9-5.4L674.9,342z"/>
	<path class="st2" d="M450.1,99.5c0-2.9,0.2-6.6,1.7-6.6h29.4c4.4,0,7.8,1.9,8,6.6v29.4l-1.9-1c0-14.1,14.3-38.7,46-38.7
		c29.7,0,46.2,16.3,46.2,30.1h-4.4c0-14.1,21.9-29.9,46.9-29.9c36,0,49.8,22.6,49.8,53v62c0,1.2,1.2,2.4,2.7,3.9
		c2.2,1.2,16.5,5.6,18,6.6c1.5,1,1.7,1.7,1.7,5.6c0,3.2-1,6.3-1.7,6.3h-37c-5.3,0-8.5-3.9-8.5-11.4v-67.4
		c0-28.7-16.5-36.7-30.9-36.7c-15.3,0-30.6,12.4-30.6,34.3v57.9c0.2,2.9,1,4.6,2.9,5.1c2.9,1.7,16.3,5.6,17.3,6.1
		c0.5,0.2,1,2.7,1,5.6c0,3.4-0.7,6.3-1.7,6.3h-53.2c-0.5,0-1-2.7-1-6.1c0-2.9,0.5-4.9,1-5.8c0.5-1,5.1-4.6,7.1-6.1
		c1.5-1.2,1.9-1.9,1.9-4.1v-56.4c0-28.7-17-36.7-34.8-36.7c-16.3,0-30.6,12.9-30.6,39.9v52.3c0.2,2.9,1,4.6,2.9,5.1
		c2.9,1.7,14.6,5.6,15.6,6.1c0.5,0.2,1,2.7,1,5.6c0,3.4-0.7,6.3-1.7,6.3h-52.3c-0.5,0-1-2.7-1-6.1c0-2.9,0.5-4.9,1-5.8
		c0.5-1,6.1-4.6,8-6.1c1.5-1.2,1.9-1.9,1.9-4.1v-88.3c0-1-0.5-1.9-1.5-2.4l-17.5-7.3C450.6,106.5,450.1,102.1,450.1,99.5"/>
</g>
</svg>
