<?xml version="1.0" encoding="utf-8"?>
<!-- Generator: Adobe Illustrator 19.1.0, SVG Export Plug-In . SVG Version: 6.00 Build 0)  -->
<svg version="1.1" id="Layer_1" xmlns="http://www.w3.org/2000/svg" xmlns:xlink="http://www.w3.org/1999/xlink" x="0px" y="0px"
	 viewBox="0 0 818 612" style="enable-background:new 0 0 818 612;" xml:space="preserve">
<style type="text/css">
	.st0{fill:#FFFFFF;}
	.st1{clip-path:url(#SVGID_4_);}
</style>
<rect class="st0" width="818" height="612"/>
<g>
	<defs>
		<rect id="SVGID_1_" x="-102" width="1008" height="612"/>
	</defs>
	<clipPath id="SVGID_2_">
		<use xlink:href="#SVGID_1_"  style="overflow:visible;"/>
	</clipPath>
</g>
<g>
	<defs>
		<rect id="SVGID_3_" x="-102" width="1008" height="612"/>
	</defs>
	<clipPath id="SVGID_4_">
		<use xlink:href="#SVGID_3_"  style="overflow:visible;"/>
	</clipPath>
	<path class="st1" d="M554.7,484.3c-0.4,0-1,0.4-1,1.2v14c0,4.4,1.4,5.5,5.7,5.5c4.1,0,5.6-1.2,5.6-5.5c0-4.1-0.4-5.8-5.7-5.8
		l1.2,2.4l-0.1-10.7c0-0.8-0.1-1.1-0.7-1.1H554.7z M569.1,484.3c-0.4,0-1,0.4-1,1.2v14c0,4.4,1.4,5.5,5.7,5.5c4.1,0,5.6-1.2,5.6-5.5
		c0-4.1-0.4-5.8-5.7-5.8l1.2,2.4l-0.1-10.7c0-0.8-0.1-1.1-0.7-1.1H569.1z M545,505.1c0.4,0,1-0.4,1-1.2v-14c0-4.4-1.4-5.5-5.7-5.5
		c-4.1,0-5.6,1.2-5.6,5.5c0,4.1,0.4,5.8,5.7,5.8l-1.2-2.4l0.1,10.7c0,0.8,0.1,1.1,0.7,1.1H545z M530.6,505.1c0.4,0,1-0.4,1-1.2v-14
		c0-4.4-1.4-5.5-5.7-5.5c-4.1,0-5.6,1.2-5.6,5.5c0,4.1,0.4,5.8,5.7,5.8l-1.2-2.4L525,504c0,0.8,0.1,1.1,0.7,1.1H530.6z M508.5,541.8
		c0.4,0,1-0.4,1-1.2v-14c0-4.4-1.4-5.5-5.7-5.5c-4.1,0-5.6,1.2-5.6,5.5c0,4.1,0.4,5.8,5.7,5.8l-1.2-2.4l0.1,10.7
		c0,0.8,0.1,1.1,0.7,1.1H508.5z M503.9,512.9c4.1,0,5.5-1.2,5.5-5.7c0-4.4-1.4-5.5-5.7-5.5c-4.1,0-5.6,1.2-5.6,5.5
		C498.2,511.7,499.7,512.9,503.9,512.9 M477.7,512.9c4.1,0,5.5-1.2,5.5-5.7c0-4.4-1.4-5.5-5.7-5.5c-4.1,0-5.6,1.2-5.6,5.5
		C472,511.7,473.5,512.9,477.7,512.9 M477.7,532.4c4.1,0,5.5-1.2,5.5-5.7c0-4.4-1.4-5.5-5.7-5.5c-4.1,0-5.6,1.2-5.6,5.5
		C472,531.1,473.5,532.4,477.7,532.4 M454.9,541.8c0.4,0,1-0.4,1-1.2v-14c0-4.4-1.4-5.5-5.7-5.5c-4.1,0-5.6,1.2-5.6,5.5
		c0,4.1,0.4,5.8,5.7,5.8l-1.2-2.4l0.1,10.7c0,0.8,0.1,1.1,0.7,1.1H454.9z M425.1,538.3c4.1,0,5.5-1.2,5.5-5.7c0-4.4-1.4-5.5-5.7-5.5
		c-4.1,0-5.6,1.2-5.6,5.5C419.3,537,420.8,538.3,425.1,538.3 M396.2,530.8c0-0.9-0.4-1.2-0.9-1.2h-5c-0.6,0-0.9,0.3-0.9,1.1v14.1
		c0,0.8,0.3,1.1,0.9,1.1h5c0.4,0,0.9-0.4,0.9-1.2V530.8z M396.2,481.2c0-0.9-0.4-1.2-0.9-1.2h-5c-0.6,0-0.9,0.3-0.9,1.1v14.5
		c0,0.8,0.3,1.1,0.9,1.1h5c0.4,0,0.9-0.4,0.9-1.2V481.2z M395.7,510.1c-2.7-0.9-8.6-2.9-8.6-6.4c0-3,3.5-4.3,7.1-4.3
		c2.9,0,7.3,1,7.3,2.7l1.4,0.1l1.6-0.1l-0.6-6c0-0.2-2.4-1.7-9.1-1.7c-7.1,0-14.4,3.9-14.4,10c0,6.6,6.4,8.9,8.9,9.9
		c2.5,1,10.2,2.5,10.2,6.7c0,3.3-4.1,4.6-7.8,4.6c-5.3,0-8.7-1.9-8.7-3.9l-1.9-0.2l-1.8,0.2l1.2,5.5c-0.3,0,3.7,3.9,12,3.9
		c7.6,0,13.7-4,13.7-10.8S397.9,510.8,395.7,510.1 M338.5,502.3c-0.9,0-1.2,0.4-1.2,0.9v5c0,0.6,0.3,0.9,1.1,0.9H373
		c0.8,0,1.1-0.3,1.1-0.9v-5c0-0.4-0.4-0.9-1.2-0.9H338.5z M337,518.2c-0.9,0-1.2,0.4-1.2,0.9v5c0,0.6,0.3,0.9,1.1,0.9h34.7
		c0.8,0,1.1-0.3,1.1-0.9v-5c0-0.4-0.4-0.9-1.2-0.9H337z M367.7,493.8c0.1-0.9-0.4-1.2-0.8-1.3L362,492c-0.6-0.1-0.9,0.2-1,1
		l-3.6,40.1c-0.1,0.8,0.2,1.1,0.8,1.2l4.9,0.4c0.4,0,0.9-0.3,1-1.2L367.7,493.8z M352.5,493.8c0.1-0.9-0.4-1.2-0.8-1.3l-4.9-0.4
		c-0.6-0.1-0.9,0.2-1,1l-3.6,40.1c-0.1,0.8,0.2,1.1,0.8,1.2l4.9,0.4c0.4,0,0.9-0.3,1-1.2L352.5,493.8z M317,531
		c0.6,0,0.9-0.3,0.9-1.2l-0.6-13.2l-1.6,0.9l10.9,7.1c0.9,0.4,1.5,0.1,1.7-0.1l2.8-4.9c0.3-0.6,0.2-0.9-0.6-1.5l-11.7-6v1.8l11.7-6
		c0.7-0.5,0.9-0.9,0.6-1.5l-2.9-4.8c-0.2-0.4-0.8-0.7-1.7-0.1l-10.8,7.1l1.6,0.9l0.6-13.2c0-0.8-0.3-1.2-0.9-1.2h-5.5
		c-0.5,0-0.9,0.4-0.9,1.4l0.6,13.1l1.6-0.9l-11.2-7.2c-0.7-0.4-1.2-0.4-1.5,0.2l-2.7,4.9c-0.2,0.4-0.1,0.9,0.7,1.6l11.4,5.8v-1.8
		L298,518c-0.8,0.6-0.9,1.2-0.7,1.6l2.8,4.8c0.4,0.5,0.7,0.7,1.5,0.2l11.2-7.1l-1.6-0.9l-0.6,13.2c0,0.9,0.5,1.3,0.9,1.4H317z
		 M286.9,522.6l1.5-36.2c-0.1-1.4-0.9-1.9-2.2-1.9h-7.1c-1.2,0-2,0.9-2,2.3l2.1,35.9c0,0.4,0.4,0.6,0.9,0.6h5.7
		C286.4,523.2,286.9,523,286.9,522.6 M283.3,539.7c4.1,0,5.5-1.2,5.5-5.7c0-4.4-1.4-5.5-5.7-5.5c-4.1,0-5.6,1.2-5.6,5.5
		C277.5,538.5,279,539.7,283.3,539.7 M252.7,539.7c4.1,0,5.5-1.2,5.5-5.7c0-4.4-1.4-5.5-5.7-5.5c-4.1,0-5.6,1.2-5.6,5.5
		C247,538.5,248.5,539.7,252.7,539.7 M256.5,524.1v-4.4c0-6.3,12.8-10.4,12.8-20.6c0-9.9-5.4-15.3-16.2-15.3
		c-9.8,0-15.4,5.8-15.4,6.6l1.7,9.2h6.3c0-3.5,1-8.7,6.9-8.7c5.2,0,6.9,3.4,6.9,8.2c0,6.2-10.4,9.6-10.4,19.4v5.5
		c0,0.5,0.4,0.7,0.9,0.7h5.5C256.2,524.9,256.5,524.6,256.5,524.1"/>
	<path class="st1" d="M593.7,411.2l-20,31l3.6,4.5l20.2-30.4L593.7,411.2z M574.1,428c0-12.2,4.4-18.3,11.4-18.3
		c7.8,0,12,4.3,12,18.9c0,12.5-4.2,18.5-11.5,18.5C578.9,447.2,574.1,442.5,574.1,428 M604.4,428.7c0-18.7-6.8-24.6-19.2-24.6
		c-12,0-18.1,8-18.1,23.9c0,18.6,7.1,24.9,18.7,24.9C598.5,452.9,604.4,446,604.4,428.7 M533.7,448.5c0.1,1.4,4.5,4.6,5.8,4.6
		c9.9,0,20.8-12.6,20.8-29.1c0-10.8-4.2-20.4-18.4-20.4c-9.9,0-17.4,6.6-17.4,18.6c0,9.4,7.7,16.7,16.5,16.7
		c7.6,0,13.3-6.6,13.3-9.8l-1.4,1.2C552.9,436.7,544.9,448.5,533.7,448.5 M552.8,421.9c0,5.9-5,10.6-10.7,10.6
		c-5.8,0-10.5-4.4-10.5-10.3c0.1-6.6,3.4-12.5,10.3-12.5C548.9,409.7,552.8,416.1,552.8,421.9 M499.8,428.7c6.4,0,10.7,3.9,10.7,8.9
		c0,5.2-4,9.2-10.8,9.2c-6.3,0-10.6-4.1-10.6-9.2C489.2,432.7,493.3,428.7,499.8,428.7 M491.3,416.2c0-4.1,3.2-6.5,8.9-6.5
		c5.4,0,9.1,2.2,9.1,6.5c0,3.9-3.8,6.8-9.2,6.8C494.4,423.1,491.3,420.2,491.3,416.2 M499.8,452.9c11.8,0,18.6-7.2,18.6-15.4
		c0-6.7-6-12.4-11.4-12.4l0.1,1.2c5.4,0,9.3-4,9.3-10.6c0-5.7-5.5-11.7-16.1-11.7c-11.4,0-16.3,5.9-16.3,11.7
		c0,6.2,3.8,10.5,9.2,10.5l0.1-1.4c-5.5,0-11.4,5.8-11.4,12.7C481.8,445.7,488.5,452.9,499.8,452.9 M464.1,445.2l13-32.9
		c0.4-0.7,0.4-7.1-0.1-7.1h-25.7c-1.7,0-2.6-0.6-3.5-0.8c-0.6,0.2-0.8,0.6-0.9,1.2l-0.4,12.1c0.4,0.1,0.8,0.2,1.7,0.2
		c0.9,0,1.2,0,1.6-0.2c0.3-0.1,1.4-3.7,1.9-4.6c0.4-0.8,1.1-1.1,1.8-0.9h17.1l-0.9-1l-13.6,34.2c-0.2,0.4-0.6,0.9-1.2,1.3
		c-1,0.5-4,1.5-4.2,1.8c-0.2,0.4-0.2,0.8-0.2,1.7c0,0.9,0.1,1.4,0.2,1.8h17.4c0.1-0.4,0.2-0.9,0.2-1.8c0-0.9,0-1.3-0.2-1.7
		c-0.1-0.3-2.3-1.4-3.1-1.8C464.3,446.5,464.1,446,464.1,445.2L464.1,445.2z M429.1,409.1c-0.1-1.4-2.7-5.7-4-5.7
		c-11.3,0-21,11.3-21,28.7c0,9.6,5.4,21,18.4,21c9.6,0,17.4-7,17.4-18.7c0-10.7-7.7-16.8-16.5-16.8c-7.6,0-12.3,4.9-12.3,8.1
		l1.1-0.4C412.1,419.9,417.9,409.1,429.1,409.1 M411.6,434.3c0-6.2,4.7-10.7,10.7-10.7c5.7,0,10.2,4.3,10.2,10.8
		c-0.1,6.9-3.2,12.3-10.4,12.3C414.7,446.7,411.6,440.3,411.6,434.3 M370.2,430.6c2-2.1,5.1-4.1,9.4-4.1c6.8,0,9.3,4.4,9.3,9.1
		s-3.2,10.2-9.5,10.2c-7.1,0-11.3-4.1-11.3-8.4c0-0.3-0.9-0.4-1.7-0.4c-0.8,0-1.8,0.1-1.8,0.4v7.9c0,0.8,5.1,7.5,14.8,7.5
		c10.4,0,17.4-7.5,17.4-17.4c0-7.6-5.5-15.5-15.2-15.5c-6.9,0-12,2.8-12,4.8l1.4,0.6c0-7.5,0.1-9.4,0.1-15.3l-2,2.4h16.3
		c3.3,0,6.2,0.9,6.2,2.9c0,0.4,1.2,0.5,1.9,0.5c0.9,0,2.2-0.1,2.1-0.5l-2.3-10.1h-28.4c0,11.4-0.1,17.2-0.1,21.4
		c0,0.6,0.1,0.7,0.4,1l4.2,2.8C369.5,430.8,369.9,430.8,370.2,430.6 M342.7,410.5l-0.4,34.8c0,0.8-0.4,1.1-0.9,1.3
		c-1,0.5-4,1.5-4.1,1.8c-0.2,0.4-0.2,0.8-0.2,1.7c0,0.9,0.1,1.4,0.2,1.8h17.2c0.1-0.4,0.2-0.9,0.2-1.8c0-0.9,0-1.3-0.2-1.7
		c-0.1-0.3-3.4-1.4-4.2-1.8c-0.6-0.2-0.9-0.7-0.9-1.5l0.4-40.7h-6.6l-23.5,27.1c-0.2,0.2-0.2,0.5-0.1,0.7l1.6,6.1
		c0.1,0.4,0.3,0.7,0.6,0.7H354c0.8,0,1.3-0.6,1.5-1.4l2.4-8c0-0.6-0.9-0.9-1.9-0.9c-1.4,0-2,0.4-2,0.9c-0.6,2.9-2.5,3-5.8,3h-21.6
		l0.2,0.9l17.9-22.2L342.7,410.5z M295.9,452.9c11.2,0,17-8.9,17-16.3c0-6.7-6.3-12.6-13-12.6c-5,0-7.4,2.5-7.4,3.3l1.6-0.6
		l17.2-13.7c0.5-0.3-1.4-7.8-2.8-7.8H283c-0.4,0-1.2,11.2-1,11.3c0.4,0.4,0.9,0.2,1.8,0.2s1.3,0,1.7-0.2c0.3-0.1,1.2-2.8,1.7-3.6
		c0.2-0.6,0.6-0.9,1.2-0.9H301c0.6,0,1.1,0.6,0.7,1l-15,11.9c-0.3,0.3-0.6,0.9-0.3,1.3l3.2,4.8c0.4,0.6,0.9,0.9,1.4,0.5
		c1.3-0.8,2.4-2,6.6-2c4.3,0,7.4,3.2,7.4,7.3c0,3.8-3.4,8.9-10.2,8.9c-7.2,0-9.8-5.3-10.2-7.3c-0.1-0.6-2,1.1-2.5,1.6
		c-0.7,0.7-1,1.9-1,2.6C281.1,446.2,286.1,452.9,295.9,452.9 M240.3,445.4l1.5,6.6h28.4l2.7-13.2c0-0.4-1.1-0.8-2-0.8
		s-1.9,0.2-1.9,0.8c0,4.2-3.5,6.3-6.8,6.3H246l2.4,2.4c0-5.8,5-9,10.9-13.6c6.3-5,11.8-8.7,11.8-16.1c0-9.5-5.5-13.4-14.5-13.4
		c-9.1,0-14.6,5.8-14.6,6.6v7.9c0,0.3,1.2,0.4,1.7,0.4c0.7,0,1.9-0.1,1.9-0.4c0-3.2,4.3-7.8,10.8-7.8c4.4,0,7.1,2.6,7.1,6.5
		c0,3.7-4.9,7.6-10.3,11.8C246.6,434.6,240.3,440.8,240.3,445.4 M227.7,407.2c-0.1-1.4-0.9-1.9-2.2-1.9h-10.3
		c-0.1,0.4-0.2,0.9-0.2,1.8c0,0.9,0,1,0.2,1.4c0.1,0.3,3.2,1.6,4.3,2c0.5,0.2,0.8,0.7,0.8,1.2v33.6c0,0.8-0.4,1.1-0.9,1.3
		c-1,0.5-4,1.5-4.1,1.8c-0.2,0.4-0.2,0.8-0.2,1.7c0,0.9,0.1,1.4,0.2,1.8h17.6c0.1-0.4,0.2-0.9,0.2-1.8c0-0.9,0-1.3-0.2-1.7
		c-0.1-0.3-3.6-1.4-4.4-1.8c-0.6-0.2-0.9-0.7-0.9-1.5V407.2z"/>
	<path class="st1" d="M702.1,359.7c0.6,0,0.9-0.4,1.1-0.9c0.4-1,1.8-4.2,2.1-4.3c0.4-0.2,1.2-0.2,1.9-0.2c0.8,0,1.2,0.1,1.5,0.2
		l-1.9,11h-29.6c-0.7,0-1.2-1.4-1.2-2.4c0-0.9,0.2-2.4,0.5-2.8l22.5-28.9l0.3,0.8h-14.7c-0.6-0.1-1.3,0.2-1.7,0.8
		c-0.4,0.8-2.8,4.6-3,4.8c-0.4,0.1-0.9,0.1-1.7,0.1s-1.2-0.1-1.5-0.1l1.9-10.9c0.1-0.5,0.4-0.8,0.9-1h27c0.7,0,1.3,1.3,1.3,2
		c0,0.9,0,2.9-0.5,3.3l-22.8,29.6l-0.1-1.2H702.1z M639,327.9c-0.4-1.3-0.9-1.9-2.2-1.9h-10.2c-0.5,0-0.6,1.4-0.6,2
		c0,0.6,0.4,1.8,0.8,1.9l5.5,1.5l12.7,33.9c-1.9,3.9-5.3,9-7.8,12.4c-0.5,0.7-3.2,3.9-3.6,4.5c-0.4,0.5-0.4,1.1-0.2,1.3
		c0.4,0.4,7.3,1.3,8.1,1.3c0.6,0,1.2-0.2,1.4-0.6c1.4-2.7,25.2-50.3,26.4-52.6c0.1-0.3,0.3-0.4,0.6-0.6s1.9-0.9,2.4-1.2
		c0.3-0.1,0.4-1.2,0.4-2c0-0.6-0.1-1.8-0.6-1.8h-15.8c-0.3,0-0.4,1.3-0.4,1.9c0,0.7,0.1,1.6,0.4,1.7l4.9,1.4c0.4,0,0.4,0.4,0.4,0.5
		l-13.6,29.2l3,0.3L639,327.9z M591.3,360.2l10.2-11.4l-2.8-0.9l12.5,16.7c0.4,0.6,0.7,1,2.1,1h9c0.2,0,0.6-0.6,0.6-1.5
		c0-1.2-0.1-1.4-0.5-1.7c-0.4-0.3-4.1-1.5-4.8-1.9l-14.3-18.4l1.2,3.3l13.7-15c0.9-0.8,2.9-1.4,3-1.7c0.3-0.5,0.4-0.4,0.4-1.3
		c0-1-0.1-1.2-0.3-1.5H605c-0.1,0.4-0.1,0.5-0.2,1.5c0.1,0.9,0.1,0.8,0.2,1.3c0.2,0.2,3.5,0.9,4.1,1.3c0.1,0.1,0.2,0.3,0.1,0.5
		l-8.9,9.8l1.8,0.4L592,327.2c-0.7-1.1-1.3-1.2-2.2-1.2h-9.3c-0.2,0-0.5,0.5-0.5,1.4c0,1.2,0.2,1.4,0.6,1.7c0.4,0.3,4.3,1.3,5,1.7
		l11.9,15.8l-0.6-2.2l-14.8,15.8c-0.6,0.4-3.2,1.6-3.4,1.8c-0.1,0.5-0.1,0.9-0.2,1.7c0.1,1,0.1,1.4,0.2,1.8h17.6
		c0.1-0.4,0.3-0.8,0.3-1.8c0-0.9-0.1-1.2-0.4-1.7c-0.1-0.2-3.2-0.3-4.2-0.7C591.6,361.1,591.4,360.8,591.3,360.2 M553,365.6h7.7
		l14.1-35.5c0.2-0.2,0.4-1.4,0.4-2.3c0-0.6-0.1-1.8-0.6-1.8H563c-0.3,0-0.4,1.3-0.4,1.9c0,0.7,0.3,1.4,0.5,1.6l4,1.4
		c0.4,0,0.4,0.4,0.4,0.5l-10.6,28.2h1.7l-10.2-28.9l2.4-1.5c0-0.5,0.1-1,0.1-1.4c0-0.6-0.1-1.8-0.6-1.8h-14.8
		c-0.3,0-0.4,1.3-0.4,1.9c0,0.7,0.1,1.7,0.4,1.9l4.7,1.7l-10.7,28.2l1.6,0.1l-9.1-29.6l2.2-1.2l0.3-1.6c-0.2-1.3-0.1-1.3-1.4-1.3
		H510c-0.5,0-0.6,1.4-0.6,2c0,0.6,0.4,1.5,0.9,1.6l4.8,1.7l10.6,34.3h7.9l11.4-29.7l-1.7-0.1L553,365.6z M474.9,327.9
		c-0.2-1.3-0.9-1.9-2.2-1.9h-10.5c-0.5,0-0.6,1.4-0.6,2c0,0.6,0.4,1.7,0.8,1.7l5.6,1.4c0.6,0.4,0.6,0.9,0.7,1.2l11.2,32.3
		c0.1,0.4,0.6,0.8,1.2,0.9h5.6c0.6-0.2,1.1-0.6,1.2-1.1l15.2-32.9c0.1-0.3,0.3-0.4,0.6-0.6s1.9-0.9,2.4-1.2c0.3-0.1,0.4-1.2,0.4-2
		c0-0.6-0.1-1.8-0.6-1.8h-15c-0.3,0-0.4,1.3-0.4,1.9c0,0.7,0.1,1.7,0.4,1.9l5,1.5c0.4,0,0.4,0.4,0.4,0.5l-12.6,27.5l1.6,0.1
		L474.9,327.9z M446,349c0,5.4-4.3,11.2-11,11.3c-5.2-0.1-10.1-2.5-10.1-11v-21.1c0-1.3-1.2-2.2-2.7-2.2h-11.2
		c-0.4,0-0.6,1.2-0.6,1.8s0.4,1.8,0.6,1.9l5.9,1.7c0.3,0.1,0.6,0.4,0.6,0.6v18.8c0,8.9,5.3,15.8,15.6,15.8c8.5,0,14.8-6.3,14.8-10.6
		l-1,0.4l0.4,7.2c0.1,1.4,0.9,1.9,2.2,1.9h9.3c0.4,0,0.6-1.3,0.6-2.2c0-0.9-0.3-1.9-0.6-2.1l-4.5-1.8c-0.6-0.2-0.9-1.1-0.9-1.6
		v-28.6c0-2.2-0.9-3.4-2.5-3.4h-11.6c-0.4,0-0.7,1-0.7,1.8c0,0.7,0.1,1.7,0.7,2l6.4,1.9c0.2,0.1,0.4,0.3,0.4,0.5
		C446,337.1,446,344,446,349 M396.4,366.3c6.5,0,8.6-1.8,8.9-2.1l1.8-8.7c-0.1-0.2-1.2-0.3-1.8-0.3c-0.6,0-1.7,0.1-2,0.3
		c-1.1,3-2.2,4.8-6.5,4.8c-5.8,0-6.4-4.7-6.4-10.5v-18.4h13.2c0.3,0,0.9-1.9,0.9-3.1c0-1.4-0.6-2.3-0.9-2.3h-13.2l-0.1-9.4
		c-0.5-0.4-1.9-0.6-2.7-0.6c-0.8,0-2.2,0.3-2.7,0.7c0,8.6-6.1,10.7-7.6,10.7c-0.5,0-0.9,1.2-0.9,2.2c0,0.8,0.6,1.7,1.1,1.7h5.5v19.2
		C382.8,358.9,385.2,366.3,396.4,366.3 M360.3,342.7c-2.7-1.1-9.1-3.2-9.1-7.3c0-3.4,3.5-4.8,7.1-4.8c4.5,0,7.6,2.3,7.6,4.3l1.4,0.1
		l1.6-0.1l-0.9-8.1c0-0.3-2.4-2-9.1-2c-7.1,0-15,4.4-15,11.4c0,7.4,6.8,10,9.4,11.2c2.5,1.2,10.3,2.8,10.3,7.6
		c0,3.7-4.1,5.3-7.8,5.3c-5.3,0-8.9-2.9-8.9-6.4l-1.9-0.2l-1.8,0.2l1.4,8.3c-0.3,0,3.7,4.4,12,4.4c7.6,0,14.2-4.6,14.2-12.2
		C370.7,346.5,362.5,343.6,360.3,342.7 M314.4,359c0,0.6-0.1,0.9-0.6,1.2c-0.6,0.4-2.2,1.6-2.4,1.8c-0.1,0.5-0.1,0.9-0.2,1.7
		c0.1,1,0.1,1.4,0.2,1.8h16.3c0.2-0.4,0.3-0.8,0.2-1.8c0.1-0.9,0.1-1.2-0.2-1.7c-0.1-0.2-4.2-1.3-5.1-1.8c-0.6-0.1-0.8-0.6-0.9-1.5
		c0-1.7-0.1-12.7,0-16.8c0.1-6.4,2.9-10.8,8.7-10.8c2.3,0,4.4,1.8,4.4,1.9c0.9,0.2,1.7,0.2,2.4-0.1c0.7-0.7,1.2-6.1,0.8-6.5
		c-1.5-1.2-4.5-1.6-6.4-1.6c-4.2,0-7.9,2.9-11.6,6.8l0.6,1l0.6-4.8c-0.1-1.4-0.4-1.9-1.7-1.9h-10.4c-0.1,0.4-0.2,0.9-0.2,1.8
		s0,1,0.2,1.4c0.1,0.3,3.3,1.6,4.5,2c0.5,0.2,0.7,0.6,0.7,1.2V359z M293.2,381.7c0.1,1.4,0.9,1.9,2.2,1.9h10.3
		c0.4,0,0.7-0.9,0.7-1.8c0-0.8-0.4-1.9-0.7-1.9l-5.2-2.6v-51h-2.5c-0.8,0-1.2,0.5-1.4,1.1l-3.8,6.4l1.5-0.1c0-3.6-6.9-8.5-13.3-8.5
		c-10.2,0-19.9,7.8-19.9,21.7c0,10.9,6.8,20.1,18.8,20.1c8.4,0,14.5-5.5,14.5-9.5l-1.1,0.4V381.7z M293.6,345.7
		c0,7.8-5.3,14.9-13,14.9c-6.6,0-12.2-5-12.2-14.3c0-7.9,4.6-14.9,12.2-14.9C288.4,331.4,293.6,336.7,293.6,345.7 M214.1,332.4V377
		c0,0.6-0.8,0.9-1.2,1.3c-0.6,0.4-1.8,1.6-2,1.8c-0.1,0.5-0.1,0.9-0.2,1.7c0.1,1,0.1,1.4,0.2,1.8h16.6c0.1-0.4,0.3-0.8,0.3-1.8
		c0-0.9-0.1-1.2-0.4-1.7c-0.1-0.2-4.2-1.4-5.2-1.8c-0.6-0.2-0.8-0.6-0.9-1.2v-21.5l-1.2,0.9c0,3.7,6.4,9.7,14.3,9.7
		c11.4,0,20.2-9,20.2-20.6c0-11.5-7.9-20.6-19.4-20.6c-9.2,0-14.9,7.1-14.9,10.5l0.8,0.5l-0.3-8.2c-0.1-1.4-0.9-1.9-2.2-1.9h-9.8
		c-0.1,0.4-0.2,0.9-0.2,1.8s0,1,0.2,1.4c0.1,0.3,3.3,1.6,4.5,2C213.8,331.5,214.1,331.9,214.1,332.4 M233.8,359.6
		c-6.8,0-12.5-5.4-12.5-13.8c0-8.2,6-14.1,13.3-14.1c8,0,12.6,6.3,12.6,14.1S242.9,359.6,233.8,359.6 M169.5,345.9
		c0,7.6,5.1,14.6,13.4,14.6s13.3-7,13.3-14.6c0-7.6-5.3-14.9-13.2-14.9C174.7,331,169.5,338.2,169.5,345.9 M183,324.8
		c11.4,0,20.8,9.5,20.8,21.1c0,11.5-9.4,21-20.8,21s-20.8-9.5-20.8-21C162.2,334.3,171.5,324.8,183,324.8 M150.9,359
		c0,0.4,0.4,0.7,0.8,1.2c0.6,0.4,4.9,1.7,5.3,1.9s0.5,0.5,0.5,1.7c0,0.9-0.3,1.9-0.5,1.9h-11.1c-1.6,0-2.5-1.2-2.5-3.4
		c0.1-5,0.1-13.5,0.1-18.1c0-8.4-3.5-12.6-10.5-12.6c-6.8,0-11,4.7-11,12.7c0,5-0.1,10.1,0,14.9c0.1,0.6,0.3,0.9,0.9,1.2
		c0.9,0.4,4.9,1.6,5,1.8c0.3,0.5,0.4,0.9,0.4,1.7c0,1-0.2,1.8-0.5,1.8h-16.8c-0.3,0-0.5-0.8-0.6-1.8c0.1-0.9,0.1-1.2,0.2-1.7
		c0.2-0.2,2.8-1.4,3.4-1.8c0.4-0.4,0.7-0.6,0.7-1.3v-26.1c0-0.3-0.1-0.6-0.4-0.7l-5.2-2.2c-0.4,0-0.5-1.3-0.5-2.1
		c0-0.9,0.1-1.9,0.5-1.9h8.9c1.3,0,2.3,0.6,2.4,1.9l0.5,8.7l-1.1-0.3c0-5.1,6-11.4,14.9-11.4c10.5,0,16.3,4.8,16.3,19.4V359z"/>
	<path class="st1" d="M658.9,272.6v-16.7c0-8.5-5-10.9-10.3-10.9c-4.8,0-9.1,3.8-9.1,11.8v15.5c0.1,0.9,0.3,1.4,0.9,1.5
		c0.9,0.5,4.3,1.7,4.6,1.8c0.1,0.1,0.3,0.8,0.3,1.7c0,1-0.2,1.9-0.5,1.9h-15.5c-0.1,0-0.3-0.8-0.3-1.8c0-0.9,0.1-1.4,0.3-1.7
		s1.8-1.4,2.4-1.8c0.4-0.4,0.6-0.6,0.6-1.2v-26.1c0-0.3-0.1-0.6-0.4-0.7l-5.2-2.2c-0.4,0-0.5-1.3-0.5-2.1c0-0.9,0.1-1.9,0.5-1.9h8.7
		c1.3,0,2.3,0.6,2.4,1.9v8.7l-0.6-0.3c0-4.2,4.2-11.4,13.6-11.4c8.8,0,13.7,4.8,13.7,8.9h-1.3c0-4.2,6.5-8.9,13.9-8.9
		c10.7,0,14.8,6.7,14.8,15.7v18.4c0,0.4,0.4,0.7,0.8,1.2c0.6,0.4,4.9,1.7,5.3,1.9c0.4,0.3,0.5,0.5,0.5,1.7c0,0.9-0.3,1.9-0.5,1.9
		H687c-1.6,0-2.5-1.2-2.5-3.4v-19.9c0-8.5-4.9-10.9-9.1-10.9c-4.5,0-9.1,3.7-9.1,10.2v17.1c0.1,0.9,0.3,1.4,0.9,1.5
		c0.9,0.5,4.8,1.7,5.1,1.8c0.1,0.1,0.3,0.8,0.3,1.7c0,1-0.2,1.9-0.5,1.9h-15.8c-0.1,0-0.3-0.8-0.3-1.8c0-0.9,0.1-1.4,0.3-1.7
		c0.1-0.3,1.5-1.4,2.1-1.8C658.8,273.5,658.9,273.3,658.9,272.6 M614.2,271.9c0,0.4,0.4,0.7,0.8,1.2c0.6,0.4,5.2,2.3,5.6,2.6
		s0.5,0.5,0.5,1.7c0,0.9-0.3,1.3-0.4,1.9h-11.7c-1.6,0-2.5-1.2-2.5-3.4l0.2-44.2c0-0.5-0.2-0.9-0.7-1.2c-1.2-0.4-4.3-1.7-4.5-2
		c-0.2-0.4-0.2-0.5-0.2-1.4s0.1-1.4,0.2-1.8h10.7c1.3,0,2.1,0.6,2.2,1.9L614.2,271.9z M565.9,227.1c-0.1-1.4-0.9-1.9-2.2-1.9h-10.4
		c-0.1,0.4-0.2,0.9-0.2,1.8s0,1,0.2,1.4c0.1,0.3,3.3,1.6,4.5,2c0.5,0.2,0.7,0.6,0.7,1.2v41c0,0.6-0.3,0.9-0.7,1.3
		c-0.6,0.4-3.2,1.6-3.4,1.8c-0.1,0.5-0.1,0.9-0.2,1.7c0.1,1,0.1,1.4,0.2,1.8h17.4c0.1-0.4,0.3-0.8,0.3-1.8c0-0.9-0.1-1.2-0.4-1.7
		c-0.1-0.2-4-1.4-5-1.8c-0.6-0.2-0.8-0.6-0.9-1.2V227.1z M564.2,266.7c6.2-4.2,20.3-19.4,21.2-20.3c3.4-3.4,6.1-3.1,6.3-3.6
		c0.2-0.4,0.2-1.2,0.2-2.2s-0.1-1.5-0.2-1.9h-16.3c-0.1,0.4-0.2,0.9-0.2,1.8c0,0.9,0,1.3,0.2,1.7c0.1,0.3,1.4,0.8,2.5,1.4
		c0.5,0.2,0.8,0.6,0.8,1.1c0,0.4-11.4,12.3-16.2,14.8L564.2,266.7z M596.4,279.2c0.1-0.4,0.2-0.9,0.2-1.8s0-1.3-0.2-1.7
		c-0.1-0.3-3.4-1.4-4.2-1.8c-0.6-0.2-1-0.6-1.4-1.3l-14.5-20.9l-4.8,4.5l13.8,22.4c0.2,0.4,0.5,0.6,0.9,0.6H596.4z M539.8,235.1
		c3.2,0,4.7-0.9,4.7-4.4c0-3.4-1.4-4.2-4.7-4.2c-3.1,0-4.5,0.9-4.5,4.2C535.4,234.2,536.7,235.1,539.8,235.1 M537,279v-32.7
		c0-0.5-0.3-0.9-0.9-1.2c-0.8-0.4-4-1.7-4.2-2c-0.2-0.4-0.2-0.8-0.2-1.7s0.1-1.4,0.2-1.8h11.6c0.8,0,1,0.7,1,2.4v37.6
		c0,7.6-2.9,15.2-14.1,15.2c-6.4,0-8.9-1.8-9.1-2.1l-1.8-8.7c0.2-0.2,1.2-0.3,1.8-0.3c0.6,0,1.8,0.1,2,0.3c1.2,1.6,2.5,4.6,6.8,4.6
		C535.9,288.6,537,284.8,537,279 M505.7,235.1c3.2,0,4.7-0.9,4.7-4.4c0-3.4-1.4-4.2-4.7-4.2c-3.1,0-4.5,0.9-4.5,4.2
		C501.2,234.2,502.6,235.1,505.7,235.1 M509.9,271.9c0,0.4,0.4,0.7,0.8,1.2c0.6,0.4,5.2,2.3,5.6,2.6s0.5,0.5,0.5,1.7
		c0,0.9-0.3,1.3-0.4,1.9h-11.8c-1.6,0-2.5-1.2-2.5-3.4l0.4-29.8c0-0.5-0.2-0.9-0.7-1.2c-1.2-0.4-4.3-1.7-4.5-2
		c-0.2-0.4-0.2-0.5-0.2-1.4s0.1-1.4,0.2-1.8h10.8c1.3,0,2.1,0.6,2.2,1.9L509.9,271.9z M450,272.6c0,0.6-0.3,0.9-0.7,1.3
		c-0.6,0.4-3.2,1.6-3.4,1.8c-0.1,0.5-0.1,0.9-0.2,1.7c0.1,1,0.1,1.4,0.2,1.8h17.5c0.1-0.4,0.3-0.8,0.3-1.8c0-0.9-0.1-1.2-0.4-1.7
		c-0.1-0.2-4-1.4-5-1.8c-0.6-0.2-0.8-0.6-0.9-1.2V257c0-7.8,4.6-12.2,10.5-12.2c6.5,0,10.7,3.3,10.7,12.1c0,4.7,0.1,13.9,0,18.9
		c0,2.2,0.9,3.4,2.5,3.4h11.4c0.5,0,0.7-0.9,0.7-1.9c0-1.2-0.1-1.4-0.5-1.7s-5.2-2.2-5.8-2.6c-0.4-0.4-0.8-0.8-0.8-1.2v-16.6
		c0-9.5-4.5-16.8-16.3-16.8c-8.6,0-14,6.7-14,9.9l1.5-0.1v-21.2c-0.1-1.4-0.9-1.9-2.2-1.9h-10.3c-0.1,0.4-0.2,0.9-0.2,1.8
		s0,1,0.2,1.4c0.1,0.3,3.3,1.6,4.5,2c0.5,0.2,0.7,0.6,0.7,1.2V272.6z M419,299.1c6.8,0,16.1-3,16.1-12.2c0-7-6.6-10-11.6-10l0.2,1.1
		c3.8,0,13.4-8.3,13.4-19c0-10.9-8.4-20.2-20.7-20.2c-12.7,0-20.6,8.8-20.6,20.4c0,14.1,10.9,19.3,18.6,20.1
		c11.6,1.2,13.2,4,13.2,7.4c0,3.8-4,6.4-9.3,6.4c-6,0-11.1-4-11.1-6.8c0-0.7-1.7-0.4-2.9,0.3c-0.9,0.5-2.3,1.3-2.3,2
		C401.9,292.2,408,299.1,419,299.1 M416.3,245.2c8.3,0,13.1,6.4,13.1,14c0,8.4-5.3,14.7-13.1,14.7c-7.4-0.1-13-5.5-13.2-14.7
		C403.2,251.6,409,245.2,416.3,245.2 M425.9,244l3.5,3.7c1.1-0.7,3.9-3.7,5.8-3.7c0.7,0,2.5,1.8,2.5,2.1h2.2c1.2,0,2.4-7.3,1.7-7.3
		c-1.2,0-6.4-0.3-7.4,0.2C432.2,240.1,428.2,242.4,425.9,244 M362.3,243.9h22.2c0.4,0,0.9,1.3,0.9,2.7c0,1.2-0.2,2.5-0.5,2.5h-22.7
		c-0.2,0-0.4-1.7-0.4-2.7S362.1,243.9,362.3,243.9 M373.9,239.8v32.7c0,0.5,0.3,0.9,0.9,1.2c0.8,0.4,6,1.7,6.2,2
		c0.2,0.4,0.2,0.8,0.2,1.7s-0.1,1.4-0.2,1.8h-17.5c-0.1-0.4-0.2-0.9-0.2-1.8s0-1.3,0.2-1.7c0.1-0.3,1-1.4,2.1-2
		c0.5-0.2,0.8-0.6,0.8-1.2v-33.3c0-7.6,2.9-15.2,14.1-15.2c6.4,0,8.9,1.8,9.1,2.1l1.8,8.7c-0.2,0.2-1.2,0.3-1.8,0.3
		c-0.6,0-1.8-0.1-2-0.3c-1.2-3-2.5-4.6-6.8-4.6C375,230.2,373.9,234,373.9,239.8 M356.3,272.2c-3.2,3.4-7.8,8-17.9,8
		c-12.2,0-20.7-8.4-20.7-20.7c0-11.6,9.1-21.1,21.2-21.1c9.7,0,18,8.2,18,18.9c0,0.9-3,3-3.9,3h-30.3l0.1-5.5h28.7l-1.1,1.9
		c0-5-4.5-12.1-11.8-12.1c-8.2,0-13.3,7.1-13.3,14.8c0,9.4,6.8,14.7,13.4,14.7c6.8,0,10.6-2.4,14.8-6c0.4-0.4,1.4,0.4,2.2,1.4
		C356.2,270.4,356.4,272.1,356.3,272.2 M306.3,227.1c-0.1-1.4-0.9-1.9-2.2-1.9h-10.4c-0.4,0-0.7,0.9-0.7,1.8c0,0.8,0.4,1.9,0.7,1.9
		l5.6,2v18.6h0.9c0-4.8-7.3-11-15.2-11c-11.4,0-19.9,9.4-19.9,21c0,11.5,8.6,20.8,20.1,20.8c9.2,0,14.9-7.2,14.9-10.6h-0.8
		c0,3.6,0.9,9.5,2.7,9.5h10.3c0.4,0,0.8-1.2,0.7-2.4c0-1.1-0.2-2-0.9-2.2l-5.8-1.9C306,266.5,306.1,235.8,306.3,227.1 M286.1,244.9
		c7.5,0,13,6.8,13,14.5s-5.1,14-13.2,14c-8,0-13.2-6.3-13.2-14S278.3,244.9,286.1,244.9 M252.3,246.9c-1.8-1.4-3.7-2.4-8.4-2.4
		c-7.3,0-13.6,4.7-13.6,15.6c0,7.9,5.3,14.2,13.9,14.2c6.6,0,10.7-2.3,12.2-3.5c0.2-0.2,1.1,0.9,1.7,1.9c0.6,1,1,2.6,0.8,2.7
		c-1.6,1.7-6.6,4.9-14.7,4.9c-12,0-21.7-7.6-21.7-20.4c0-13.5,9.9-21.2,20.7-21.2c6.6,0,10.1,0.7,14.1,3.1c0.3,0,1.3,10.1,1.2,10.1
		c-0.4,0.2-0.7,0.2-1.5,0.2s-1.1,0-1.4-0.2C255.3,251.7,252.7,247.5,252.3,246.9 M183.8,227.1c-0.1-1.4-0.9-1.9-2.2-1.9h-10.2
		c-0.4,0-0.7,0.9-0.7,1.8c0,0.8,0.4,1.9,0.7,1.9l5.2,2.6v47.7h2.7c0.8,0,1.2-0.5,1.4-1.1l3.8-5.9l-1.3,0.1c0,3.3,7.7,8,13.1,8
		c10.2,0,19.9-7.8,19.9-21.7c0-10.9-6.8-20.1-18.4-20.1c-8.2,0-14.9,6.2-14.9,9.4l1.1-0.4L183.8,227.1z M183.5,259.5
		c0-7.8,5.5-14.8,12.5-14.8c7.3,0,12.9,5.1,12.9,14.5c0,7.9-4.6,14.2-12.2,14.2C188.8,273.4,183.5,268.5,183.5,259.5 M157.8,279.2
		h8.7c0.6,0,1-1.1,1-1.7c0-0.6-0.1-1.6-0.6-1.8c-1.3-0.3-4.5-1.7-4.9-1.8c-0.4-0.1-0.9-0.9-0.9-1.3v-26.9c0-0.3,0.2-0.6,0.6-0.8
		l4.3-1.8c0.4-0.1,0.6-0.8,0.6-1.9s-0.4-1.5-0.8-1.5h-8.3c-1.6,0-2.2,0.3-2.3,2.5c0,0.6-0.1,4.7-0.1,7.4l0.9-0.2
		c0-4.9-7.3-10.8-15.2-10.8c-11.4,0-19.7,9.4-19.7,21c0,11.5,8.4,20.8,19.9,20.8c9.2,0,14.9-7.2,14.9-10.6h-0.8
		C155.1,273.3,156.7,279.2,157.8,279.2 M141.6,244.9c7.5,0,12.5,6.8,12.5,14.5c0,7.3-5.8,14.6-12.7,14.6c-8,0-12.5-6.8-12.5-14.6
		S133.8,244.9,141.6,244.9"/>
	<path class="st1" d="M739.1,186.2c0.8,0,1.1-0.5,1.3-1.1c0.5-1.2,2.3-5.9,2.6-6c0.4-0.3,0.8-0.3,1.7-0.3c0.9,0,1.4,0.1,1.8,0.3
		l-0.9,13.7h-35.3c-0.9,0-1.5-0.4-1.5-1.7c0-1.2-0.1-4.3,0.3-4.9l28.6-38l0.3,1h-19.7c-0.8-0.1-1.5,0.2-1.9,1
		c-0.5,0.9-2.2,5.8-2.5,6c-0.4,0.2-0.8,0.2-1.7,0.2c-0.9,0-1.4-0.1-1.8-0.2l0.9-12.5c0.1-0.6,0.4-1,1-1.2h32.7c0.6,0,0.7,6,0.6,6.7
		l-27.9,38.7l-0.2-1.6H739.1z M685.6,173.3l14.8-25.1c0.1-0.4,0.3-0.6,0.6-0.8c0.2-0.2,3.4-1.2,3.5-1.4c0.1-0.2,0.2-1.3,0.2-1.8
		s-0.2-1.4-0.2-1.7H689c-0.1,0.4-0.3,1.3-0.3,1.7c0,0.5,0.3,1.7,0.4,1.8c0.2,0.1,2.6,1,3.2,1.4c0.1,0.1,0.1,0.6,0.1,0.8l-10.5,19.6
		h0.9l-10.7-19.7c-0.1-0.1-0.1-0.7,0-0.7c0.4-0.3,3.1-1.4,3.3-1.4c0.1-0.1,0.4-1.3,0.4-1.8c0-0.4-0.2-1.4-0.3-1.7h-15.9
		c-0.1,0.4-0.2,1.2-0.2,1.7s0.1,1.6,0.2,1.8c0.1,0.3,3.2,1.2,3.5,1.4c0.2,0.2,0.4,0.4,0.6,0.8l14.2,25.1v12.8c0,0.8-0.4,1.1-0.9,1.3
		c-1,0.5-4,1.5-4.1,1.8c-0.2,0.4-0.2,0.8-0.2,1.7c0,0.9,0.1,1.4,0.2,1.8h17.8c0.1-0.4,0.2-0.9,0.2-1.8c0-0.9,0-1.3-0.2-1.7
		c-0.1-0.3-3.4-1.4-4.2-1.8c-0.6-0.2-0.9-0.7-0.9-1.5V173.3z M625.3,191.1c0-0.7-0.2-1.7-0.4-1.9c-0.3-0.1-3.2-1.5-3.9-1.9
		c-0.1-0.1-0.2-0.6,0-1c0.4-0.7,8.4-12,11.3-15.8l-2.8,0.2c2.9,3.7,11.4,15,11.7,15.5c0.1,0.4,0.1,0.9-0.1,1.1
		c-0.9,0.6-3.5,1.8-3.7,1.9c-0.2,0.1-0.4,1.2-0.4,1.9c0,0.6,0.1,1.3,0.2,1.8h19.2c0.1-0.4,0.1-1.1,0.1-1.7c0-0.7,0-1.5-0.1-1.9
		c-0.1-0.3-4.2-1.7-4.5-1.9c-0.3-0.2-0.7-0.6-1.2-1.2c-0.4-0.4-12.4-16.1-16.4-21.7l0.4,3.5c3.7-5.2,13.8-18.6,14.4-19.2
		c0.5-0.5,0.9-0.6,1.3-0.8c0.4-0.1,4.5-1.6,4.5-1.9c0.1-0.4,0.1-1.2,0.1-1.9c0-0.6-0.1-1.3-0.1-1.7h-18.3c-0.1,0.5-0.2,1.2-0.2,1.8
		c0,0.7,0.2,1.7,0.4,1.9c0.3,0.1,2.9,1.4,3.7,1.9c0.1,0.1,0.3,0.7,0.1,1.1c-0.4,0.7-7.1,9.6-10.4,13.6h2.2
		c-2.5-3.4-9.9-13.2-10.2-13.6c-0.4-0.6-0.4-1-0.2-1.1c0.7-0.4,3.5-1.8,3.7-1.9c0.2-0.1,0.4-1.2,0.4-1.9c0-0.6-0.1-1.3-0.2-1.8h-19
		c-0.1,0.4-0.1,1.1-0.1,1.7c0,0.7,0,1.5,0.1,1.9c0.1,0.3,4.1,1.7,4.5,1.9c0.3,0.2,0.7,0.5,1,0.9c0.3,0.4,10.9,14.3,14.7,19.2
		l0.1-2.7c-3.8,5.3-14.8,20-15.5,20.7c-0.4,0.4-0.6,0.8-0.9,1c-0.4,0.3-4.9,1.7-5,1.9c-0.1,0.4-0.1,1.2-0.1,1.9
		c0,0.6,0.1,1.3,0.1,1.7H625C625.1,192.4,625.3,191.7,625.3,191.1 M575.8,192.8h8.6l12.5-43.7c0.2-0.5,0.5-0.9,0.8-1.1
		c0.4-0.3,4.5-1.7,4.5-1.9c0.1-0.4,0.1-1.2,0.1-1.9c0-0.6-0.1-1.3-0.1-1.7h-18.7c-0.1,0.5-0.2,1.2-0.2,1.8c0,0.7,0.2,1.7,0.4,1.9
		c0.3,0.1,3.7,1.4,4.6,1.9c0.1,0.1,0.2,0.7,0.1,1.1l-9.3,39h3.2L568.2,143h-8.9L547,188h2.7l-9.7-39c-0.1-0.1-0.1-0.9,0-1
		c0.7-0.4,4-1.8,4.3-1.9c0.2-0.1,0.4-1.2,0.4-1.9c0-0.6-0.1-1.3-0.2-1.8h-18.3c-0.1,0.4-0.1,1.1-0.1,1.7c0,0.7,0,1.5,0.1,1.9
		c0.1,0.3,4.2,1.7,4.5,1.9c0.3,0.2,0.6,0.6,0.8,1.1l12.2,43.7h8.9l12.2-46.3h-3.5L575.8,192.8z M499.5,192.8l18-43.7
		c0.2-0.5,0.5-0.9,0.8-1.1c0.4-0.3,4.5-1.7,4.5-1.9c0.1-0.4,0.1-1.2,0.1-1.9c0-0.6-0.1-1.3-0.1-1.7H505c-0.1,0.5-0.2,1.2-0.2,1.8
		c0,0.7,0.2,1.7,0.4,1.9c0.3,0.1,2.9,1.4,3.7,1.9c0.1,0.1,0.2,0.7,0.1,1.1l-13.7,37.1h1.9L483.4,149c-0.1-0.1-0.1-0.9,0-1
		c0.7-0.4,3.6-1.8,3.9-1.9c0.2-0.1,0.4-1.2,0.4-1.9c0-0.6-0.1-1.3-0.2-1.8h-17.9c-0.1,0.4-0.1,1.1-0.1,1.7c0,0.7,0,1.5,0.1,1.9
		c0.1,0.3,4.2,1.7,4.5,1.9c0.3,0.2,0.6,0.6,0.8,1.1c0.2,0.5,12.7,32.8,16.8,43.7H499.5z M453.6,149.1c0-0.5-0.3-0.9-0.9-1.2
		c-1.2-0.5-5-1.7-5.3-2c-0.2-0.4-0.2-0.8-0.2-1.7c0-0.9,0.1-1.4,0.2-1.8h19.6c0.1,0.4,0.2,0.9,0.2,1.8c0,0.9,0,1.3-0.2,1.7
		c-0.2,0.3-3.7,1.6-4.7,2c-0.6,0.2-0.9,0.6-0.9,1.2v17.8c0,16.8-4.3,26.9-20.2,26.9c-15.5,0-18.8-10.1-18.8-26.6v-18.1
		c0-0.5-0.4-0.9-0.9-1.2c-1.2-0.6-4.5-1.7-4.7-2c-0.3-0.4-0.3-0.8-0.3-1.7c0-0.9,0.1-1.4,0.3-1.8h19.5c0.1,0.4,0.2,0.9,0.2,1.8
		c0,0.9,0,1.3-0.2,1.7c-0.1,0.3-4.2,1.6-5.2,2c-0.6,0.2-0.9,0.6-0.9,1.2v18.5c0,11,1.4,19.4,11.1,19.4c9.7,0,12.2-8.4,12.2-19.3
		V149.1z M402.8,191c0-0.9,0-1.3-0.2-1.7c-0.1-0.3-3.2-1.6-4-2c-0.6-0.2-0.9-0.6-0.9-1.2v-36.2c0-0.5,0.4-0.9,1-1.2h8.8
		c0.4,0,0.7,0.3,0.9,0.9c0.3,0.9,1.3,4.5,1.5,4.6c0.4,0.2,1.3,0.2,2,0.2c0.7,0,1.2,0.1,1.4-0.2c0.1-0.1-0.4-12-0.7-12h-37.2
		c-0.4,0-0.9,11.8-0.8,12c0.3,0.4,0.6,0.2,1.4,0.2s1.7,0,2.1-0.2c0.2-0.1,1.2-3.7,1.5-4.6c0.1-0.6,0.5-0.9,0.9-0.9h8.5
		c0.6,0.2,1,0.6,1,1.2v36.2c0,0.5-0.3,0.9-0.9,1.2c-0.7,0.4-3.6,1.6-4,1.9l-0.1,0.1c-0.2,0.4-0.2,0.8-0.2,1.7s0.1,1.4,0.2,1.8h17.6
		C402.7,192.4,402.8,191.9,402.8,191 M355.1,164.3c-3.1-1.3-11.1-3-11.1-9.1c0-4.2,5.1-7,9.3-7c6.9,0,8.5,3.9,8.5,6.6
		c0,0.1,0.9,0.4,1.7,0.4c0.9,0,1.8-0.2,1.8-0.4v-10c0-0.4-3.5-3-11.3-3c-8.3,0-17.9,5.5-17.9,14.2c0,9.1,8,11.7,10.9,13.2
		c3,1.5,12.7,4.2,12.7,10.1c0,5.3-5.5,7.4-9.7,7.5c-7.1,0-9.9-4-9.9-9c0-0.1-0.9-0.4-1.9-0.4c-1.1,0-2,0.3-2,0.4V189
		c-0.4,0,5.1,4.2,14.5,4.2c8.8,0,16.7-5.8,16.7-14.6C367.4,168.5,357.6,165.4,355.1,164.3 M303.4,191c0-0.9,0-1.3-0.2-1.7
		c-0.1-0.3-2.9-1.4-3.7-1.8c-0.6-0.2-1.1-0.7-1.1-1.5v-13.8l-1.6,1.2c0.8,0.8,4.8,0.8,8.5,0.8c8.4,0,18.1-6.6,18.1-17.6
		c0-10.2-8-14.7-19.2-14.7c-6,0-17.3,0.3-18.4,0.6c-0.1,0.4-0.2,0.9-0.2,1.8c0,0.9,0,1.3,0.2,1.7c0.1,0.3,3.2,1.4,4.2,2
		c0.5,0.2,0.8,0.6,0.8,1.2v37.1c0,0.8-0.4,1.1-0.9,1.3c-1,0.5-4,1.5-4.1,1.8c-0.2,0.4-0.2,0.8-0.2,1.7s0.1,1.4,0.2,1.8h17.3
		C303.3,192.4,303.4,191.9,303.4,191 M304.4,167.7c-2.6,0-6-0.1-6.8-0.3l0.9,1.9l-0.1-22.4l-1.2,1.7c1.7-0.6,6-0.6,8.4-0.6
		c5.4,0,10.6,2.6,10.6,9C316.2,163.9,310.3,167.7,304.4,167.7 M329.4,192.8c0.1-0.4,0.2-0.9,0.2-1.8s-0.1-1.4-0.4-1.7
		c-0.3-0.3-3.3-1.4-4.3-1.8c-0.6-0.2-1.1-0.7-1.6-1.3c-0.6-0.8-9.1-13.8-12.2-18.3l-6.3,4l13.2,20.3c0.2,0.4,0.5,0.6,0.9,0.6H329.4z
		 M290,197.6c-8.8-0.3-25.5-3.2-28.7-6l-13,0.7l-1.8,0.3c1.7,0.5,24.3,8.9,31.5,11.2c0.8,0.1,1.5,0.1,2.3,0l9.6-2.6
		c0.3-0.2,0.6-0.7,0.6-1.6C290.5,198.6,290.6,197.6,290,197.6 M237,167.2c0-12.5,8.7-19,16.6-19c7.9,0,17.6,5.7,17.6,19.7
		c0,12.9-8.7,19.5-17.1,19.5C247,187.4,237,181.2,237,167.2 M278.9,167.9c0-19.2-12.9-26.4-25.3-26.4c-11.9,0-24.2,9.3-24.2,25.6
		c0,19.2,13.8,26.7,24.8,26.7C266.6,193.8,278.9,185.7,278.9,167.9 M195.6,175.9c0,0.4,2.2,1.1,6.3,1.1c8.3,0,20.7-5.1,20.7-19.7
		c0-11.2-8.6-15.3-19.8-15.3c-6,0-16.8,0.6-18.4,0.9c-0.1,0.4-0.2,0.9-0.2,1.8s0,1.3,0.2,1.7c0.1,0.3,3.2,1.4,4.2,2
		c0.5,0.2,0.8,0.6,0.8,1.2v37.1c0,0.8-0.4,1.1-0.9,1.3c-1,0.5-3.2,1.5-3.4,1.8c-0.2,0.4-0.2,0.8-0.2,1.7c0,0.9,0.1,1.4,0.2,1.8h17.2
		c0.1-0.4,0.2-0.9,0.2-1.8c0-0.9,0-1.3-0.2-1.7c-0.1-0.3-3.5-1.4-4.3-1.8c-0.6-0.2-1.1-0.7-1.1-1.5l-0.1-39.5l-1.2,1.7
		c1.2-0.3,6-0.5,8.4-0.5c5.4,0,10.4,3.5,10.4,10.2c0,8.6-7.5,12.3-13.4,12.3c-3.1,0-5.5-0.2-5.5-0.6V175.9z M137.4,167.2
		c0-12.5,8.6-18.8,16.5-18.8c7.9,0,17.5,5.5,17.5,19.5c0,12.9-8.6,19.3-17,19.3C147.5,187.2,137.4,181.2,137.4,167.2 M179.1,167.9
		c0-19.2-12.9-26.4-25.3-26.4c-11.9,0-24.2,9.3-24.2,25.6c0,19.2,13.8,27,24.8,27C167.1,194.1,179.1,185.7,179.1,167.9 M110,149.1
		c0-0.8-0.4-1.1-0.9-1.3c-1-0.5-5-1.5-5.1-1.8c-0.2-0.4-0.2-0.8-0.2-1.7s0.1-1.4,0.2-1.8h18.3c0.1,0.4,0.2,0.9,0.2,1.8
		s0,1.3-0.2,1.7c-0.1,0.3-3.7,1.4-4.5,1.8c-0.6,0.3-0.9,0.7-0.9,1.5v43.5h-6.4l-28.9-39.1l1-0.1l0.2,32.4c-0.1,0.8,0.2,1.2,0.9,1.5
		c0.8,0.4,4.8,1.5,5,1.8c0.2,0.4,0.2,0.8,0.2,1.7s-0.1,1.4-0.2,1.8h-18c-0.1-0.4-0.2-0.9-0.2-1.8s0-1.3,0.2-1.7
		c0.1-0.3,3.1-1.3,4.1-1.8c0.5-0.2,0.9-0.5,0.9-1.3v-36.9c0-0.8-0.2-1.2-0.9-1.5c-0.8-0.4-4.3-1.5-4.5-1.8c-0.2-0.4-0.2-0.8-0.2-1.7
		c0-0.9,0.1-1.4,0.2-1.8h13l28.7,39.8l-2,0.2V149.1z"/>
	<path class="st1" d="M705.6,62.8c0-0.8,0.2-1.2,0.9-1.5c0.8-0.4,4.3-1.5,4.5-1.8c0.2-0.4,0.2-0.8,0.2-1.7c0-0.9-0.1-1.4-0.2-1.8
		h-13.5l-16.8,40.9l1.7-0.1L664.5,56h-13.2c-0.1,0.4-0.2,0.9-0.2,1.8c0,0.9,0,1.3,0.2,1.7c0.1,0.3,3.7,1.4,4.5,1.8
		c0.6,0.3,0.9,0.7,0.9,1.5l-4,36.9c0,0.8-0.4,1.1-0.9,1.3c-1,0.5-4,1.5-4.1,1.8c-0.2,0.4-0.2,0.8-0.2,1.7s0.1,1.4,0.2,1.8h17.6
		c0.1-0.4,0.2-0.9,0.2-1.8s0-1.3-0.2-1.7c-0.1-0.3-3.7-1.4-4.5-1.8c-0.6-0.3-0.9-0.7-0.9-1.5l2.7-32.2l-1.2,0.1l16.5,38.4h5.7
		L700,67.6l-1-0.1l2.9,32.1c0,0.8-0.2,1.2-0.9,1.5c-0.8,0.4-4.3,1.5-4.5,1.8c-0.2,0.4-0.2,0.8-0.2,1.7s0.1,1.4,0.2,1.8h17.8
		c0.1-0.4,0.2-0.9,0.2-1.8s0-1.3-0.2-1.7c-0.1-0.3-3.1-1.3-4.1-1.8c-0.5-0.2-0.9-0.5-0.9-1.3L705.6,62.8z M620.8,62.7
		c0-0.5,0.3-0.9,0.9-1.2c0.8-0.4,3.9-1.7,4-2c0.2-0.4,0.2-0.8,0.2-1.7c0-0.9-0.1-1.4-0.2-1.8h-17.6c-0.1,0.4-0.2,0.9-0.2,1.8
		c0,0.9,0,1.3,0.2,1.7c0.1,0.3,3.2,1.4,4.2,2c0.5,0.2,0.8,0.6,0.8,1.2v37.1c0,0.8-0.4,1.1-0.9,1.3c-1,0.5-4,1.5-4.1,1.8
		c-0.2,0.4-0.2,0.8-0.2,1.7s0.1,1.4,0.2,1.8h33.3c0.4,0,1.2-11.2,1-11.3c-0.4-0.4-0.9-0.2-1.8-0.2s-1.3,0-1.7,0.2
		c-0.3,0.1-1.6,3.6-2,4.4c-0.2,0.6-0.6,0.9-1.2,0.9h-14c-0.6-0.2-1-0.6-1-1.2L620.8,62.7z M570,91.8c6.5-6.8,22.9-27.2,23.8-28.1
		c3.4-3.4,6.1-3.1,6.3-3.6c0.2-0.4,0.2-1.2,0.2-2.2s-0.1-1.5-0.2-1.9h-16.3c-0.1,0.4-0.2,0.9-0.2,1.8c0,0.9,0,1.3,0.2,1.7
		c0.1,0.3,1.4,0.8,2.5,1.4c0.5,0.2,0.8,0.6,0.8,1.1c0,0.4-13.8,17.4-18.9,22.5L570,91.8z M602.7,106.4c0.1-0.4,0.2-0.9,0.2-1.8
		s0-1.3-0.2-1.7c-0.1-0.3-3.4-1.4-4.2-1.8c-0.6-0.2-1-0.6-1.4-1.3l-15-24l-5.2,4.9l14.4,25.1c0.2,0.4,0.5,0.6,0.9,0.6H602.7z
		 M575.9,106.4c0.1-0.4,0.2-0.9,0.2-1.8s0-1.3-0.2-1.7c-0.1-0.3-3.4-1.4-4.2-1.8c-0.6-0.2-0.9-0.7-0.9-1.5V62.7
		c0-0.5,0.3-0.9,0.9-1.2c0.8-0.4,3.9-1.7,4-2c0.2-0.4,0.2-0.8,0.2-1.7c0-0.9-0.1-1.4-0.2-1.8h-17.6c-0.1,0.4-0.2,0.9-0.2,1.8
		c0,0.9,0,1.3,0.2,1.7c0.1,0.3,3.2,1.4,4.2,2c0.5,0.2,0.8,0.6,0.8,1.2v37.1c0,0.8-0.4,1.1-0.9,1.3c-1,0.5-4,1.5-4.1,1.8
		c-0.2,0.4-0.2,0.8-0.2,1.7s0.1,1.4,0.2,1.8H575.9z M537.5,62.7v37.1c0,8.7-6.7,12.7-12.3,12.7v5c9.2,0,19.9-6,19.9-18.3V62.7
		c0-0.5,0.3-0.9,0.8-1.2c1.1-0.6,4.8-1.7,5-2c0.2-0.4,0.2-0.8,0.2-1.7c0-0.9-0.1-1.4-0.2-1.8h-19.1c-0.1,0.4-0.2,0.9-0.2,1.8
		c0,0.9,0,1.3,0.2,1.7c0.1,0.3,4.1,1.6,4.9,2C537.2,61.8,537.5,62.2,537.5,62.7 M518,106.4c0.1-0.4,0.2-0.9,0.2-1.8s0-1.3-0.2-1.7
		c-0.1-0.3-3.4-1.4-4.2-1.8c-0.6-0.2-0.9-0.7-0.9-1.5V62.7c0-0.5,0.3-0.9,0.9-1.2c0.8-0.4,3.9-1.7,4-2c0.2-0.4,0.2-0.8,0.2-1.7
		c0-0.9-0.1-1.4-0.2-1.8h-17.6c-0.1,0.4-0.2,0.9-0.2,1.8c0,0.9,0,1.3,0.2,1.7c0.1,0.3,3.2,1.4,4.2,2c0.5,0.2,0.8,0.6,0.8,1.2v37.1
		c0,0.8-0.4,1.1-0.9,1.3c-1,0.5-4,1.5-4.1,1.8c-0.2,0.4-0.2,0.8-0.2,1.7s0.1,1.4,0.2,1.8H518z M490.9,106.4c0.1-0.4,0.2-0.9,0.2-1.8
		s0-1.3-0.2-1.7c-0.1-0.3-3.4-1.4-4.2-1.8c-0.6-0.2-0.9-0.7-0.9-1.5V62.7c0-0.5,0.3-0.9,0.9-1.2c0.8-0.4,4-1.7,4.2-2
		c0.2-0.4,0.2-0.8,0.2-1.7c0-0.9-0.1-1.4-0.2-1.8h-18c-0.1,0.4-0.2,0.9-0.2,1.8c0,0.9,0,1.3,0.2,1.7c0.1,0.3,3.5,1.5,4.5,2
		c0.5,0.2,0.8,0.6,0.8,1.2v37.1c0,0.8-0.4,1.2-0.9,1.3c-1,0.4-4.2,1.5-4.3,1.8c-0.2,0.4-0.2,0.8-0.2,1.7s0.1,1.4,0.2,1.8H490.9z
		 M460.8,106.4c0.1-0.4,0.2-0.9,0.2-1.8s0-1.3-0.2-1.7c-0.1-0.3-3.6-1.4-4.4-1.8c-0.6-0.2-0.9-0.7-0.9-1.5V62.7
		c0-0.5,0.3-0.9,0.9-1.2c0.8-0.4,4.2-1.7,4.4-2c0.2-0.4,0.2-0.8,0.2-1.7c0-0.9-0.1-1.4-0.2-1.8h-18c-0.1,0.4-0.2,0.9-0.2,1.8
		c0,0.9,0,1.3,0.2,1.7c0.1,0.3,3.2,1.4,4.2,2c0.5,0.2,0.8,0.6,0.8,1.2v37.1c0,0.8-0.4,1.1-0.9,1.3c-1,0.5-4,1.5-4.1,1.8
		c-0.2,0.4-0.2,0.8-0.2,1.7s0.1,1.4,0.2,1.8H460.8z M451,82.4h31.5v-6.7H451V82.4z M426.9,64.1c-1.7-1.4-5.4-3.1-11.5-3.1
		c-8.1,0.1-17.9,6.6-17.9,21.7c0,9.2,8,18.3,18.5,18.3c6.4,0,9.6-1.4,11.4-3.2v-8c0-0.5-0.3-1.4-0.8-1.7c-1-0.5-8.6-1.7-8.8-2
		c-0.2-0.4-0.2-1.1-0.2-2c0-0.9,0.1-1.9,0.2-2.3h16.9l-0.4,20.3c-1.9,2.2-7.9,5.6-18.4,5.6c-15,0-26.2-9.9-26.2-25.4
		c0-18.4,13.6-27.7,24.5-27.8c9.6,0,13.8,1.3,18.8,4.5c0.4,0,0,12.5-0.2,12.5c-0.4,0.2-1.2,0.2-2.1,0.2c-0.9,0-1.6,0-2-0.2
		C428.4,71.3,427.4,64.9,426.9,64.1 M362.6,99.7l-0.1-36.5c0-0.5,0.4-0.9,1-1.2h14c0.5,0,0.9,0.3,1.2,0.9c0.4,0.8,1.7,4.2,2,4.4
		c0.4,0.2,0.8,0.2,1.7,0.2c0.9,0,1.4,0.1,1.8-0.2c0.1-0.1-0.6-11.3-1-11.3h-33.3c-0.1,0.4-0.2,0.9-0.2,1.8c0,0.9,0,1.3,0.2,1.7
		c0.1,0.3,3.1,1.3,4.1,1.8c0.5,0.2,0.9,0.5,0.9,1.3v37.1c0,0.5-0.3,0.9-0.8,1.2c-1.1,0.6-3.6,1.7-3.7,2c-0.2,0.4-0.2,0.8-0.2,1.7
		s0.1,1.4,0.2,1.8h17.5c0.1-0.4,0.2-0.9,0.2-1.8s0-1.3-0.2-1.7c-0.1-0.3-3.6-1.6-4.4-2C362.9,100.6,362.6,100.2,362.6,99.7
		 M379.1,89.4c0.7,0,1-0.1,1.4-0.1V76c-0.4-0.1-0.6-0.1-1.4-0.1s-1,0-1.4,0.1c-0.2,0.1-1.2,2.2-1.5,2.8c-0.1,0.2-0.2,0.4-0.4,0.5
		h-17.4v6.3h17.4c0.1,0.1,0.2,0.2,0.3,0.4c0.5,0.9,1.3,3.2,1.5,3.3C378,89.4,378.3,89.4,379.1,89.4 M337.7,87.2c0.7,0,1-0.1,1.4-0.1
		V73.9c-0.4-0.1-0.6-0.1-1.4-0.1s-1,0-1.4,0.1c-0.2,0.1-1.2,2.2-1.5,2.8c-0.1,0.2-0.2,0.4-0.4,0.5H317v6.3h17.6
		c0.1,0.1,0.2,0.2,0.3,0.4c0.5,0.9,1.3,3.2,1.5,3.3C336.7,87.2,337,87.2,337.7,87.2 M321.4,63.6c0-0.5,0.4-0.9,1-1.2h13.4
		c0.5,0,0.9,0.3,1.2,0.9c0.4,0.8,1.7,4.2,2,4.4c0.4,0.2,0.8,0.2,1.7,0.2c0.9,0,1.4,0,1.8-0.2c0.2-0.1-0.2-11.7-0.6-11.7h-33.1
		c-0.1,0.4-0.2,0.9-0.2,1.8c0,0.9,0,1.3,0.2,1.7c0.1,0.3,3.2,1.4,4.2,2c0.5,0.2,0.8,0.6,0.8,1.2v37.1c0,0.8-0.4,1.1-0.9,1.3
		c-1,0.5-4,1.5-4.1,1.8c-0.2,0.4-0.2,0.8-0.2,1.7s0.1,1.4,0.2,1.8h33.4c0.4,0,1.2-11.2,1-11.3c-0.4-0.4-0.9-0.2-1.8-0.2
		c-0.9,0-1.3,0-1.7,0.2c-0.3,0.1-1.6,3.6-2,4.4c-0.2,0.6-0.6,0.9-1.2,0.9h-14.1c-0.6-0.2-1-0.6-1-1.2V63.6z M267.1,100.7
		c-0.6-0.2-0.9-0.7-0.9-1.5V62.6c0-0.9,3.7-1.3,9.9-1.3c11.4,0,18.1,7.3,18.1,18.6c0,14.7-9.8,21.2-19,21.2
		C271.8,101.1,268,101.2,267.1,100.7 M276.2,107.1c12,0,26.6-8.8,26.6-26.8c0-15.9-11.9-25.2-26.6-25.2c-7.5,0-19.9,0.9-22.7,0.9
		c-0.1,0.4-0.2,0.9-0.2,1.8c0,0.9,0,1.3,0.2,1.7c0.1,0.3,3.2,1.4,4.2,2c0.5,0.2,0.8,0.6,0.8,1.2v37.1c0,0.8-0.4,1.1-0.9,1.3
		c-1,0.5-4,1.5-4.1,1.8c-0.2,0.4-0.2,0.8-0.2,1.7s0.1,1.4,0.2,1.8C267.3,106.4,270.8,107.1,276.2,107.1 M241,63.9
		c-2.2-1.8-4.5-2.4-8.9-2.4c-11,0-21.5,6.2-21.5,20.9c0,9.6,8.6,18.4,19.1,18.4c6.4,0,12.5-2.2,14.4-4l3.1,4.2
		c-1.9,2.2-7,6.6-17.5,6.6c-15,0-26.9-9.9-26.9-25.8c0-18,14.3-27.4,28.2-27.4c6.6,0,10.7,0.9,15.6,4c0.4,0,0,12.5-0.2,12.5
		c-0.4,0.2-0.9,0.2-1.8,0.2s-1.3,0-1.7-0.2C242.5,70.9,241.5,64.7,241,63.9 M178.6,106.4c9.6,0,16.2-7,16.2-15.8c0-7.8-6.7-12-14-12
		l0.1,1.4c6.2,0,12.2-6.7,12.2-11.4c0-8.6-5.1-13.1-15-13.1c-6,0-17.9,0.3-19,0.6c-0.1,0.4-0.2,0.9-0.2,1.8c0,0.9,0,1.3,0.2,1.7
		c0.1,0.3,3.2,1.4,4.2,2c0.5,0.2,0.8,0.6,0.8,1.2v37.1c0,0.8-0.4,1.1-0.9,1.3c-1,0.5-4,1.5-4.1,1.8c-0.2,0.4-0.2,0.8-0.2,1.7
		s0.1,1.4,0.2,1.8H178.6z M175.7,100.5c-2.8,0-4-0.2-4-1l-0.1-18.9l-1.7,2.1c1.5-0.4,4.6-0.4,6.6-0.4c5.5,0,10.9,2.7,10.9,8.6
		C187.4,97,183.1,100.5,175.7,100.5 M176,76.8c-1.9,0-3.4-0.1-6.6-0.3l2.2,2.3l-0.1-19.1l-2.1,2.6c1.9-0.9,5.7-1.4,7.6-1.4
		c5.8,0,9,3,9,7.8C186,72.9,182,76.8,176,76.8 M112.9,91.6h27.9v-6.6h-27.9V91.6z M122.3,56l-16.6,43.7c-0.2,0.5-0.5,0.9-0.8,1.1
		c-0.4,0.3-4.5,1.7-4.5,1.9c-0.1,0.4-0.1,1.2-0.1,1.9c0,0.6,0.1,1.3,0.1,1.7h17.7c0.1-0.5,0.2-1.2,0.2-1.8c0-0.7-0.2-1.7-0.4-1.9
		c-0.3-0.1-2.9-1.4-3.7-1.9c-0.1-0.1-0.2-0.7-0.1-1.1l12.4-37.1h-1.7l15.5,37.2c0.1,0.1,0.1,0.9,0,1c-0.7,0.4-3.6,1.8-3.9,1.9
		c-0.2,0.1-0.4,1.2-0.4,1.9c0,0.6,0.1,1.3,0.2,1.8h17.4c0.1-0.4,0.1-1.1,0.1-1.7c0-0.7,0-1.5-0.1-1.9c-0.1-0.3-4.2-1.7-4.5-1.9
		c-0.3-0.2-0.6-0.6-0.8-1.1L130,56H122.3z"/>
</g>
</svg>
