<?xml version="1.0" encoding="UTF-8" standalone="no"?>
<!DOCTYPE svg PUBLIC "-//W3C//DTD SVG 1.1//EN"
"http://www.w3.org/Graphics/SVG/1.1/DTD/svg11.dtd">


<!-- Page 2 -->
<svg x="0" y="0" width="935" height="1210" version="1.1" xmlns="http://www.w3.org/2000/svg" xmlns:xlink="http://www.w3.org/1999/xlink"
style="display: block;margin-left: auto;margin-right: auto;">
<defs>
<clipPath id="c0_2"><path d="M0.5,1210.5L0.5,0.5l935,0l0,1210Z" /></clipPath>

<style type="text/css"><![CDATA[


.s1_2{
font-size: 110.00px;
font-family: RiterNeue-Italic_82;
fill: TRANSPARENT;
}
.s2_2{
font-size: 110.00px;
font-family: LucidaGrande_f2;
fill: TRANSPARENT;
}

]]></style>

</defs>
<path d="M0,0
L0,1210
L935,1210
L935,0 Z " 
fill="#FFFFFF" stroke="none" />
<g clip-path="url(#c0_2)">
<use 
xlink:href ="#Tc1_2" 
 transform="matrix(0.072 , 0, 0 , -0.072, 152.8 , 192.5)"
fill="#000000" 
stroke="none" 
 />
<use 
xlink:href ="#Tc1_4" 
 transform="matrix(0.072 , 0, 0 , -0.072, 237.6 , 192.5)"
fill="#000000" 
stroke="none" 
 />
<use 
xlink:href ="#Tc1_5" 
 transform="matrix(0.072 , 0, 0 , -0.072, 305.5 , 192.5)"
fill="#000000" 
stroke="none" 
 />
<use 
xlink:href ="#Tc1_6" 
 transform="matrix(0.072 , 0, 0 , -0.072, 377.9 , 192.5)"
fill="#000000" 
stroke="none" 
 />
<use 
xlink:href ="#Tc1_7" 
 transform="matrix(0.072 , 0, 0 , -0.072, 462.3 , 192.5)"
fill="#000000" 
stroke="none" 
 />
<use 
xlink:href ="#Tc1_8" 
 transform="matrix(0.072 , 0, 0 , -0.072, 525.1 , 192.5)"
fill="#000000" 
stroke="none" 
 />
<use 
xlink:href ="#Tc1_9" 
 transform="matrix(0.072 , 0, 0 , -0.072, 586.9 , 192.5)"
fill="#000000" 
stroke="none" 
 />
<use 
xlink:href ="#Tc1_10" 
 transform="matrix(0.072 , 0, 0 , -0.072, 152.8 , 323.9)"
fill="#000000" 
stroke="none" 
 />
</g>
<text 
x="152" 
y="192" 
dx="0,0,0,0,0,0,0,0" 
class="s1_2"
>ABCDEFG </text>

<g clip-path="url(#c0_2)">
<use 
xlink:href ="#Tc1_11" 
 transform="matrix(0.072 , 0, 0 , -0.072, 240.3 , 323.9)"
fill="#000000" 
stroke="none" 
 />
<use 
xlink:href ="#Tc1_12" 
 transform="matrix(0.072 , 0, 0 , -0.072, 280.2 , 323.9)"
fill="#000000" 
stroke="none" 
 />
<use 
xlink:href ="#Tc1_13" 
 transform="matrix(0.072 , 0, 0 , -0.072, 317.6 , 323.9)"
fill="#000000" 
stroke="none" 
 />
<use 
xlink:href ="#Tc1_14" 
 transform="matrix(0.072 , 0, 0 , -0.072, 392.5 , 323.9)"
fill="#000000" 
stroke="none" 
 />
<use 
xlink:href ="#Tc1_15" 
 transform="matrix(0.072 , 0, 0 , -0.072, 453.7 , 323.9)"
fill="#000000" 
stroke="none" 
 />
<use 
xlink:href ="#Tc1_16" 
 transform="matrix(0.072 , 0, 0 , -0.072, 563.8 , 323.9)"
fill="#000000" 
stroke="none" 
 />
<use 
xlink:href ="#Tc1_17" 
 transform="matrix(0.072 , 0, 0 , -0.072, 152.8 , 455.3)"
fill="#000000" 
stroke="none" 
 />
</g>
<text 
x="152" 
y="323" 
dx="0,0,0,0,0,0,0,0" 
class="s1_2"
>HIJKLMN </text>

<g clip-path="url(#c0_2)">
<use 
xlink:href ="#Tc1_18" 
 transform="matrix(0.072 , 0, 0 , -0.072, 237.3 , 455.3)"
fill="#000000" 
stroke="none" 
 />
<use 
xlink:href ="#Tc1_19" 
 transform="matrix(0.072 , 0, 0 , -0.072, 304.5 , 455.3)"
fill="#000000" 
stroke="none" 
 />
<use 
xlink:href ="#Tc1_20" 
 transform="matrix(0.072 , 0, 0 , -0.072, 391.8 , 455.3)"
fill="#000000" 
stroke="none" 
 />
<use 
xlink:href ="#Tc1_21" 
 transform="matrix(0.072 , 0, 0 , -0.072, 466.2 , 455.3)"
fill="#000000" 
stroke="none" 
 />
<use 
xlink:href ="#Tc1_22" 
 transform="matrix(0.072 , 0, 0 , -0.072, 525.2 , 455.3)"
fill="#000000" 
stroke="none" 
 />
<use 
xlink:href ="#Tc1_23" 
 transform="matrix(0.072 , 0, 0 , -0.072, 591 , 455.3)"
fill="#000000" 
stroke="none" 
 />
<use 
xlink:href ="#Tc1_24" 
 transform="matrix(0.072 , 0, 0 , -0.072, 152.8 , 586.7)"
fill="#000000" 
stroke="none" 
 />
</g>
<text 
x="152" 
y="455" 
dx="0,0,0,0,0,0,0,0" 
class="s1_2"
>OPQRSTU </text>

<g clip-path="url(#c0_2)">
<use 
xlink:href ="#Tc1_25" 
 transform="matrix(0.072 , 0, 0 , -0.072, 237 , 586.7)"
fill="#000000" 
stroke="none" 
 />
<use 
xlink:href ="#Tc1_26" 
 transform="matrix(0.072 , 0, 0 , -0.072, 356.2 , 586.7)"
fill="#000000" 
stroke="none" 
 />
<use 
xlink:href ="#Tc1_27" 
 transform="matrix(0.072 , 0, 0 , -0.072, 437.8 , 586.7)"
fill="#000000" 
stroke="none" 
 />
<use 
xlink:href ="#Tc1_28" 
 transform="matrix(0.072 , 0, 0 , -0.072, 509.4 , 586.7)"
fill="#000000" 
stroke="none" 
 />
<use 
xlink:href ="#Tc1_29" 
 transform="matrix(0.072 , 0, 0 , -0.072, 152.8 , 718.1)"
fill="#000000" 
stroke="none" 
 />
</g>
<text 
x="152" 
y="586" 
dx="0,0,0,0,0,0" 
class="s1_2"
>VWXYZ </text>

<g clip-path="url(#c0_2)">
<use 
xlink:href ="#Tc1_30" 
 transform="matrix(0.072 , 0, 0 , -0.072, 226.4 , 718.1)"
fill="#000000" 
stroke="none" 
 />
<use 
xlink:href ="#Tc1_31" 
 transform="matrix(0.072 , 0, 0 , -0.072, 297.1 , 718.1)"
fill="#000000" 
stroke="none" 
 />
<use 
xlink:href ="#Tc1_32" 
 transform="matrix(0.072 , 0, 0 , -0.072, 357.2 , 718.1)"
fill="#000000" 
stroke="none" 
 />
<use 
xlink:href ="#Tc1_33" 
 transform="matrix(0.072 , 0, 0 , -0.072, 436.8 , 718.1)"
fill="#000000" 
stroke="none" 
 />
<use 
xlink:href ="#Tc1_34" 
 transform="matrix(0.072 , 0, 0 , -0.072, 502.7 , 718.1)"
fill="#000000" 
stroke="none" 
 />
<use 
xlink:href ="#Tc1_35" 
 transform="matrix(0.072 , 0, 0 , -0.072, 546.5 , 718.1)"
fill="#000000" 
stroke="none" 
 />
<use 
xlink:href ="#Tc1_36" 
 transform="matrix(0.072 , 0, 0 , -0.072, 618.4 , 718.1)"
fill="#000000" 
stroke="none" 
 />
<use 
xlink:href ="#Tc1_37" 
 transform="matrix(0.072 , 0, 0 , -0.072, 152.8 , 849.4)"
fill="#000000" 
stroke="none" 
 />
</g>
<text 
x="152" 
y="718" 
dx="0,0,0,0,0,0,0,0,0" 
class="s1_2"
>abcdefgh </text>

<g clip-path="url(#c0_2)">
<use 
xlink:href ="#Tc1_38" 
 transform="matrix(0.072 , 0, 0 , -0.072, 189.1 , 849.4)"
fill="#000000" 
stroke="none" 
 />
<use 
xlink:href ="#Tc1_39" 
 transform="matrix(0.072 , 0, 0 , -0.072, 222.5 , 849.4)"
fill="#000000" 
stroke="none" 
 />
<use 
xlink:href ="#Tc1_40" 
 transform="matrix(0.072 , 0, 0 , -0.072, 294.9 , 849.4)"
fill="#000000" 
stroke="none" 
 />
<use 
xlink:href ="#Tc1_41" 
 transform="matrix(0.072 , 0, 0 , -0.072, 329.9 , 849.4)"
fill="#000000" 
stroke="none" 
 />
<use 
xlink:href ="#Tc1_42" 
 transform="matrix(0.072 , 0, 0 , -0.072, 445.8 , 849.4)"
fill="#000000" 
stroke="none" 
 />
<use 
xlink:href ="#Tc1_43" 
 transform="matrix(0.072 , 0, 0 , -0.072, 522.3 , 849.4)"
fill="#000000" 
stroke="none" 
 />
<use 
xlink:href ="#Tc1_44" 
 transform="matrix(0.072 , 0, 0 , -0.072, 592.3 , 849.4)"
fill="#000000" 
stroke="none" 
 />
<use 
xlink:href ="#Tc1_45" 
 transform="matrix(0.072 , 0, 0 , -0.072, 664.9 , 849.4)"
fill="#000000" 
stroke="none" 
 />
<use 
xlink:href ="#Tc1_46" 
 transform="matrix(0.072 , 0, 0 , -0.072, 152.8 , 980.8)"
fill="#000000" 
stroke="none" 
 />
</g>
<text 
x="152" 
y="849" 
dx="0,0,0,0,0,0,0,0,0,0" 
class="s1_2"
>ijklmnopq </text>

<g clip-path="url(#c0_2)">
<use 
xlink:href ="#Tc1_47" 
 transform="matrix(0.072 , 0, 0 , -0.072, 201 , 980.8)"
fill="#000000" 
stroke="none" 
 />
<use 
xlink:href ="#Tc1_48" 
 transform="matrix(0.072 , 0, 0 , -0.072, 250.6 , 980.8)"
fill="#000000" 
stroke="none" 
 />
<use 
xlink:href ="#Tc1_49" 
 transform="matrix(0.072 , 0, 0 , -0.072, 299.1 , 980.8)"
fill="#000000" 
stroke="none" 
 />
<use 
xlink:href ="#Tc1_50" 
 transform="matrix(0.072 , 0, 0 , -0.072, 372.2 , 980.8)"
fill="#000000" 
stroke="none" 
 />
<use 
xlink:href ="#Tc1_51" 
 transform="matrix(0.072 , 0, 0 , -0.072, 437.6 , 980.8)"
fill="#000000" 
stroke="none" 
 />
<use 
xlink:href ="#Tc1_52" 
 transform="matrix(0.072 , 0, 0 , -0.072, 547 , 980.8)"
fill="#000000" 
stroke="none" 
 />
<use 
xlink:href ="#Tc1_53" 
 transform="matrix(0.072 , 0, 0 , -0.072, 616.9 , 980.8)"
fill="#000000" 
stroke="none" 
 />
<use 
xlink:href ="#Tc1_54" 
 transform="matrix(0.072 , 0, 0 , -0.072, 689.7 , 980.8)"
fill="#000000" 
stroke="none" 
 />
<use 
xlink:href ="#Tc1_63" 
 transform="matrix(0.072 , 0, 0 , -0.072, 152.8 , 1136.7)"
fill="#000000" 
stroke="none" 
 />
</g>
<text 
x="152" 
y="980" 
dx="0,0,0,0,0,0,0,0,0,0" 
class="s1_2"
>rstuvwxyz </text>

<g clip-path="url(#c0_2)">
<use 
xlink:href ="#Tc1_56" 
 transform="matrix(0.072 , 0, 0 , -0.072, 207.4 , 1136.7)"
fill="#000000" 
stroke="none" 
 />
<use 
xlink:href ="#Tc1_61" 
 transform="matrix(0.072 , 0, 0 , -0.072, 242.1 , 1136.7)"
fill="#000000" 
stroke="none" 
 />
<use 
xlink:href ="#Tc1_62" 
 transform="matrix(0.072 , 0, 0 , -0.072, 282.1 , 1136.7)"
fill="#000000" 
stroke="none" 
 />
<use 
xlink:href ="#Tc1_59" 
 transform="matrix(0.072 , 0, 0 , -0.072, 322.3 , 1136.7)"
fill="#000000" 
stroke="none" 
 />
<use 
xlink:href ="#Tc1_60" 
 transform="matrix(0.072 , 0, 0 , -0.072, 361.8 , 1136.7)"
fill="#000000" 
stroke="none" 
 />
<use 
xlink:href ="#Tc1_58" 
 transform="matrix(0.072 , 0, 0 , -0.072, 402.7 , 1136.7)"
fill="#000000" 
stroke="none" 
 />
<use 
xlink:href ="#TT1_2" 
 transform="matrix(0.072 , 0, 0 , -0.072, 476.8 , 1136.7)"
fill="#000000" 
stroke="none" 
 />
</g>
<text 
x="152" 
y="1136" 
dx="0,0,0,0,0,0,0" 
class="s1_2"
>?!:;,.&amp;</text>

<g clip-path="url(#c0_2)">
<use 
xlink:href ="#Tc1_57" 
 transform="matrix(0.072 , 0, 0 , -0.072, 571.3 , 1136.7)"
fill="#000000" 
stroke="none" 
 />
</g>
<text 
x="476" 
y="1136" 
dx="0" 
class="s2_2"
>@</text>

<g clip-path="url(#c0_2)">
<use 
xlink:href ="#Tc1_64" 
 transform="matrix(0.072 , 0, 0 , -0.072, 635.2 , 1136.7)"
fill="#000000" 
stroke="none" 
 />
</g>
<text 
x="571" 
y="1136" 
dx="0,0" 
class="s1_2"
>#$</text>


<defs>
	<path d="M797.5,452.2L696.7,887.6L472.1,452.2ZM22.9,0c-1.5,9.2,-3,22.9,-3,36.7c0,15.2,0,32.1,3,41.2c1.5,6.1,88.6,35.2,96.3,41.3c6.1,4.6,12.2,12.2,16.8,22.9l496.5,933.5l163.5,0L1038.9,142.1c4.6,-10.7,10.7,-18.3,16.8,-22.9c7.6,-6.1,94.7,-35.2,96.2,-41.3c3.1,-9.1,3.1,-26,3.1,-41.2C1155,22.9,1153.5,9.2,1151.9,0L782.2,0c-1.5,10.7,-4.6,24.4,-4.6,38.2c0,15.3,4.6,36.7,9.2,39.7c6.1,3.1,67.2,32.1,82.5,41.3c3.1,1.5,3.1,18.3,0,21.4L829.6,313.2l-427.8,0L313.2,142.1c-3.1,-7.7,-1.5,-19.9,1.5,-22.9C333.1,106.9,388.1,81,394.2,77.9c4.6,-3,9.1,-24.4,9.1,-39.7c0,-13.8,-3,-27.5,-4.5,-38.2Z" 
	id="Tc1_2"
	 />

	<path d="M443.1,125.3c157.3,0,247.5,74.8,247.5,203.2c0,125.3,-113.1,181.8,-230.7,181.8c-29.1,0,-70.3,0,-103.9,-1.5l3,-362.1c0,-16.8,24.5,-21.4,84.1,-21.4Zm6.1,502.6c126.8,0,212.3,82.5,212.3,171.1c0,100.9,-68.7,165,-190.9,165c-29.1,0,-76.4,-4.6,-117.7,-15.2L356,631c38.2,-1.6,64.1,-3.1,93.2,-3.1ZM90.1,0c-3,9.2,-4.5,18.3,-4.5,38.2c0,19.9,0,27.5,4.5,36.7c3.1,6.1,65.7,27.5,87.1,38.2c10.7,4.5,19.9,10.7,19.9,27.5l0,786.8c0,10.7,-6.1,19.8,-16.8,24.4c-22.9,13.8,-87.1,36.7,-90.2,42.8c-4.5,9.2,-4.5,16.8,-4.5,36.7c0,19.8,1.5,29,4.5,38.1c23,6.2,275,12.3,403.4,12.3c210.8,0,319.3,-96.3,319.3,-278.1c0,-77.9,-77.9,-181.8,-174.2,-223C756.3,553.1,847.9,469,847.9,334.6C847.9,148.2,708.9,0,504.2,0Z" 
	id="Tc1_4"
	 />

	<path d="M586.7,-27.4c-322.4,0,-417.1,230.6,-417.1,436.8c0,368.2,302.5,679.9,643.2,679.9c132.9,0,207.8,-26,278,-94.7l0,-3.1c0,-32.1,-73.3,-239.8,-77.9,-239.8c-4.6,-1.6,-9.1,-3.1,-15.3,-3.1c-6.1,0,-12.2,1.5,-22.9,1.5c-19.8,1.6,-27.5,3.1,-35.1,7.7c-6.1,3,6.1,120.7,1.5,139c-30.5,36.7,-68.7,52,-160.4,53.5C582.1,948.8,343.8,739.4,343.8,404.9c0,-145.2,59.5,-298,255.1,-298c142.1,0,207.8,45.9,253.6,70.3c0.7,0.4,1.5,0.5,2.4,0.5c17.4,0,62.6,-71.4,48,-84.5C855.6,50.4,748.6,-27.4,586.7,-27.4Z" 
	id="Tc1_5"
	 />

	<path d="M473.4,111.5c16.2,0,32.8,0,49.1,0c195.6,0,403.3,139.1,403.3,450.7c0,239.9,-142,394.2,-383.4,394.2c-133,0,-210.9,-9.2,-210.9,-27.5l0,-776.1c0,-16.8,4.6,-27.5,18.4,-32.1c15.4,-8.3,66.9,-9.2,123.5,-9.2Zm69,-126.7C429.3,-15.2,354.4,0,61.1,0c-3,9.2,-4.6,18.3,-4.6,38.2c0,19.9,0,27.5,4.6,36.7c3.1,6.1,65.7,27.5,87.1,38.2c10.7,4.5,19.9,10.7,19.9,27.5l0,786.8c0,10.7,-6.2,19.8,-16.8,24.4c-23,13.8,-87.1,36.7,-90.2,42.8c-4.6,9.2,-4.6,16.8,-4.6,36.7c0,19.8,1.6,29,4.6,38.1c58.1,0,322.4,18.4,481.3,18.4c311.6,0,563.7,-197.1,563.7,-534.7c0,-382,-308.6,-568.3,-563.7,-568.3Z" 
	id="Tc1_6"
	 />

	<path d="M71.8,0c-3,9.2,-4.6,18.3,-4.6,38.2c0,19.9,0,27.5,4.6,36.7c3.1,6.1,65.7,27.5,87.1,38.2c10.7,4.5,19.9,10.7,19.9,27.5l0,786.8c0,10.7,-6.2,19.8,-16.9,24.4c-22.9,13.8,-87,36.7,-90.1,42.8c-4.6,9.2,-4.6,16.8,-4.6,36.7c0,19.8,1.6,29,4.6,38.1l702.8,0c7.6,0,16.8,-247.5,12.2,-249c-9.2,-4.6,-18.3,-4.6,-38.2,-4.6c-19.8,0,-27.5,0,-36.7,4.6c-6.1,3.1,-33.6,76.4,-42.7,93.2c-4.6,12.2,-13.8,18.3,-24.5,18.3l-284.1,0c-12.3,-4.5,-21.4,-13.7,-21.4,-24.4l0,-287.2l278,0c3.1,1.5,6.1,6.1,7.7,10.7c7.6,12.2,27.5,56.5,32,59.6c7.7,3,13.8,3,29.1,3c15.3,0,21.4,-1.5,29,-3l0,-281.2c-7.6,-1.5,-13.7,-3,-29,-3c-15.3,0,-21.4,0,-29.1,3c-4.5,3.1,-21.3,52,-32,70.3c-1.6,3.1,-3.1,6.1,-6.1,7.7l-279.6,0l0,-334.6c0,-10.7,9.1,-19.9,21.4,-24.5l299.4,0c10.7,0,19.9,6.1,24.4,18.4c9.2,16.8,36.7,90.1,42.8,93.2c9.2,4.5,16.8,4.5,36.7,4.5c8.8,0,15.8,0.6,21.6,0.6c7.2,0,12.3,-0.9,16.6,-5.1C805.1,236.8,789.9,0,780.7,0Z" 
	id="Tc1_7"
	 />

	<path d="M82.5,0C79.4,9.2,77.9,18.3,77.9,38.2c0,19.9,0,27.5,4.6,36.7c3.1,6.1,56.5,29,79.4,42.7c10.7,4.6,16.9,13.8,16.9,24.5l0,786.8c0,16.8,-9.2,22.9,-19.9,27.5c-21.4,10.7,-84,32.1,-87.1,38.2c-4.6,9.2,-4.6,16.8,-4.6,36.7c0,19.8,1.6,29,4.6,38.1l705.8,0c9.2,0,24.5,-236.8,21.4,-239.8c-4.2,-4.3,-9.4,-5.2,-16.6,-5.2c-5.7,0,-12.7,0.6,-21.6,0.6c-19.8,0,-27.5,0,-36.6,4.6c-6.1,3,-33.6,76.4,-42.8,93.2c-4.6,12.2,-13.8,18.3,-24.5,18.3l-296.3,0c-12.3,-4.6,-21.4,-13.7,-21.4,-24.4l1.5,-342.3l281.1,0c3.1,1.6,6.1,6.2,7.6,10.7c7.7,12.3,27.5,56.6,32.1,59.6c7.7,3.1,13.8,3.1,29.1,3.1c15.2,0,21.3,-1.5,29,-3.1l0,-281.1c-7.7,-1.5,-13.8,-3,-29,-3c-15.3,0,-21.4,0,-29.1,3c-4.6,3.1,-21.4,52,-32.1,70.3c-1.5,3,-3,6.1,-6.1,7.6l-282.6,0l1.5,-299.4c0,-10.7,6.1,-19.9,18.4,-24.5C377.4,108.5,450.7,81,453.8,74.9c4.5,-9.2,4.5,-16.8,4.5,-36.7c0,-19.9,-1.5,-29,-4.5,-38.2Z" 
	id="Tc1_8"
	 />

	<path d="M623.3,-27.4C305.6,-27.4,67.2,181.8,67.2,511.8c0,389.6,288.8,588.2,519.5,589.7c204.7,0,291.8,-27.5,398.7,-94.7c7.7,0,0,-264.3,-4.6,-265.8c-9.1,-4.6,-24.4,-4.6,-44.3,-4.6c-19.8,0,-33.6,0,-42.7,4.6c-6.2,3,-29.1,139,-38.2,155.8C820.4,927.4,741,962.5,611.1,962.5C440,961,230.7,821.9,230.7,502.6c0,-195.5,169.6,-388,392.6,-388c136,0,203.2,30.5,243,68.7l0,169.6c0,10.7,-6.2,30.6,-16.9,35.2c-21.3,10.7,-183.3,36.6,-186.3,42.7c-4.6,9.2,-4.6,23,-4.6,42.8c0,19.9,1.5,39.7,4.6,48.9l359,0L1014.4,91.7C973.2,45.8,846.4,-27.4,623.3,-27.4Z" 
	id="Tc1_9"
	 />

	<path d="M58.1,-68.7C55,-68.7,77.9,27.5,96.3,29C194,39.7,239.9,119.2,252.1,183.3L385,919.7c0,10.7,-1.5,39.7,-13.7,39.7c-12.3,0,-94.8,-1.5,-105.5,-1.5c-4.5,0,-9.1,24.5,-7.6,38.2c1.5,13.8,12.2,38.2,22.9,42.8c15.3,6.1,230.7,48.9,239.9,48.9c29,0,48.9,-26,48.9,-48.9c0,-7.6,-33.6,-203.2,-71.8,-414l441.5,13.7c27.5,151.3,55,288.8,70.3,356c9.1,33.6,29,59.6,51.9,73.3c35.1,21.4,134.5,41.3,215.4,41.3c3.1,0,-9.1,-87.1,-27.5,-87.1c-47.3,0,-87.1,-53.5,-96.2,-108.5L1016,139c0,-10.7,1.5,-32.1,13.7,-38.2c10.7,-6.1,91.7,-10.7,102.4,-10.7c4.6,0,10.7,-25.9,9.2,-39.7C1139.7,36.7,1127.5,12.2,1121.4,7.6C1107.6,-3,887.6,-21.3,878.5,-21.3C854,-19.8,831.1,7.6,831.1,29c0,7.7,38.2,230.7,81,466l-440,-13.7C446.1,336.1,421.7,203.2,407.9,134.4C392.6,55,334.6,4.6,311.7,-9.1C276.5,-30.5,139,-68.7,58.1,-68.7Z" 
	id="Tc1_10"
	 />

	<path d="M87.1,0C84,9.2,82.5,18.3,82.5,38.2c0,19.9,0,27.5,4.6,36.7c3,6.1,65.7,27.5,87.1,38.2c10.7,4.5,19.8,10.7,19.8,27.5l0,786.8c0,10.7,-6.1,19.8,-16.8,24.4c-22.9,13.8,-87.1,36.7,-90.1,42.8c-4.6,9.2,-4.6,16.8,-4.6,36.7c0,19.8,1.5,29,4.6,38.1l374.3,0c3,-9.1,4.6,-18.3,4.6,-38.1c0,-19.9,0,-27.5,-4.6,-36.7C458.3,988.5,392.6,961,375.8,951.8c-12.2,-4.6,-18.3,-13.7,-18.3,-24.4l0,-782.3c0,-16.8,4.6,-27.5,18.3,-32C392.6,103.9,461.4,81,464.4,74.9C469,65.7,469,58.1,469,38.2C469,18.3,467.5,9.2,464.4,0Z" 
	id="Tc1_11"
	 />

	<path d="M-80.9,-235.2l0,107c119.1,0,261.2,84,261.2,268.8l0,786.8c0,10.7,-6.1,19.8,-18.4,24.4C145.1,961,61.1,988.5,58.1,994.6c-4.6,9.2,-4.6,16.8,-4.6,36.7c0,19.8,1.5,29,4.6,38.1l404.8,0c3.1,-9.1,4.6,-18.3,4.6,-38.1c0,-19.9,0,-27.5,-4.6,-36.7c-3,-6.1,-82.5,-29,-105.4,-42.8c-10.7,-4.6,-16.8,-13.7,-16.8,-24.4l0,-774.6c0,-261.2,-226.1,-388,-421.6,-388Z" 
	id="Tc1_12"
	 />

	<path d="M79.4,0c-3,9.2,-4.5,18.3,-4.5,38.2c0,19.9,0,27.5,4.5,36.7c3.1,6.1,65.7,27.5,87.1,38.2c10.7,4.5,19.9,10.7,19.9,27.5l0,786.8c0,10.7,-6.1,19.8,-16.8,24.4c-22.9,13.8,-87.1,36.7,-90.2,42.8c-4.5,9.2,-4.5,16.8,-4.5,36.7c0,19.8,1.5,29,4.5,38.1l374.4,0c3,-9.1,4.5,-18.3,4.5,-38.1c0,-19.9,0,-27.5,-4.5,-36.7C450.7,988.5,385,961,368.2,951.8C356,947.2,349.9,938.1,349.9,927.4l0,-403.4C478.2,667.6,695.1,933.5,695.1,941.1c0,10.7,-6.1,18.3,-16.8,22.9c-22.9,13.8,-50.4,24.5,-53.4,30.6c-4.6,9.2,-4.6,16.8,-4.6,36.7c0,19.8,1.5,29,4.6,38.1l345.2,0c3.1,-9.1,4.6,-21.3,4.6,-41.2c0,-19.9,0,-36.7,-4.6,-45.8C965.6,971.7,907.5,977.8,835.7,906C826.5,896.8,719.6,765.4,603.5,624.9L906,140.6c9.1,-13.8,16.8,-23,30.5,-27.5c16.8,-9.2,85.6,-32.1,88.6,-38.2c4.6,-9.2,4.6,-16.8,4.6,-36.7c0,-19.9,-1.5,-29,-4.6,-38.2l-223,0c-7.7,1.5,-13.8,6.1,-18.3,13.8L501.1,504.2C444.6,436.9,391.1,374.3,349.9,330l0,-184.9c0,-16.8,4.5,-27.5,18.3,-32C385,103.9,453.8,81,456.8,74.9c4.6,-9.2,4.6,-16.8,4.6,-36.7c0,-19.9,-1.5,-29,-4.6,-38.2Z" 
	id="Tc1_13"
	 />

	<path d="M71.8,0c-3,9.2,-4.6,18.3,-4.6,38.2c0,19.9,0,27.5,4.6,36.7c3.1,6.1,65.7,27.5,87.1,38.2c10.7,4.5,19.9,10.7,19.9,27.5l0,786.8c0,10.7,-6.2,19.8,-16.9,24.4c-22.9,13.8,-87,36.7,-90.1,42.8c-4.6,9.2,-4.6,16.8,-4.6,36.7c0,19.8,1.6,29,4.6,38.1l374.3,0c3.1,-9.1,4.6,-18.3,4.6,-38.1c0,-19.9,0,-27.5,-4.6,-36.7c-3,-6.1,-68.7,-33.6,-85.5,-42.8c-12.3,-4.6,-18.4,-13.7,-18.4,-24.4l-3,-774.6c0,-10.7,9.1,-19.9,21.4,-24.5l296.3,0c10.7,0,19.9,6.1,24.5,18.4c9.2,16.8,36.7,90.1,42.8,93.2c9.1,4.5,16.8,4.5,36.6,4.5c8.9,0,15.9,0.6,21.6,0.6c7.2,0,12.4,-0.9,16.6,-5.1C802.1,236.8,786.8,0,777.6,0Z" 
	id="Tc1_14"
	 />

	<path d="M58.1,0C55,9.2,53.5,18.3,53.5,38.2c0,19.9,0,27.5,4.6,36.7c3,6.1,65.7,27.5,87,38.2c10.7,4.5,19.9,10.7,19.9,27.5l85.6,783.7c0,16.8,-4.6,26,-18.4,32.1c-16.8,7.6,-91.6,32.1,-94.7,38.2c-4.6,9.2,-4.6,16.8,-4.6,36.7c0,19.8,1.5,29,4.6,38.1l284.2,0L777.6,247.5l339.2,821.9l285.7,0c3.1,-9.1,4.6,-18.3,4.6,-38.1c0,-19.9,0,-27.5,-4.6,-36.7c-3.1,-6.1,-77.9,-30.6,-94.7,-38.2c-13.8,-6.1,-18.4,-15.3,-18.4,-32.1l78,-783.7c0,-16.8,9.1,-23,19.8,-27.5c21.4,-10.7,84.1,-32.1,87.1,-38.2c4.6,-9.2,4.6,-16.8,4.6,-36.7c0,-19.9,-1.5,-29,-4.6,-38.2L1093.9,0c-3.1,9.2,-4.6,18.3,-4.6,38.2c0,19.9,0,27.5,4.6,36.7c3,6.1,77.9,30.5,94.7,38.2c13.8,6.1,18.3,15.2,18.3,32l-56.5,631L823.5,10.7l-120.7,0l-330,766.9L319.3,145.1c-1.5,-16.8,4.6,-25.9,18.3,-32C354.4,105.4,429.3,81,432.4,74.9c4.5,-9.2,4.5,-16.8,4.5,-36.7c0,-19.9,-1.5,-29,-4.5,-38.2Z" 
	id="Tc1_15"
	 />

	<path d="M76.4,0C73.3,9.2,71.8,18.3,71.8,38.2c0,19.9,0,27.5,4.6,36.7c3,6.1,65.7,27.5,87.1,38.2c10.7,4.5,19.8,10.7,19.8,27.5l0,783.7c0,16.8,-4.5,26,-18.3,32.1C148.2,964,73.3,988.5,70.3,994.6c-4.6,9.2,-4.6,16.8,-4.6,36.7c0,19.8,1.5,29,4.6,38.1l275,0L912.1,284.2l0,643.2c0,16.8,-9.2,22.9,-19.9,27.5c-21.4,10.7,-105.4,32,-108.4,38.2c-4.6,9.1,-4.6,16.8,-4.6,36.6c0,19.9,1.5,29.1,4.6,38.2l388,0c3.1,-9.1,4.6,-18.3,4.6,-38.2c0,-19.8,0,-27.5,-4.6,-36.6c-3,-6.2,-77.9,-30.6,-94.7,-38.2c-13.8,-6.1,-19.9,-15.3,-18.3,-32.1L1058.8,0l-136,0L330,800.6l4.6,-655.5c-1.5,-16.8,4.6,-25.9,18.3,-32C369.7,105.4,455.3,81,458.3,74.9c4.6,-9.2,4.6,-16.8,4.6,-36.7c0,-19.9,-1.5,-29,-4.6,-38.2Z" 
	id="Tc1_16"
	 />

	<path d="M582.1,108.5c233.7,0,397.2,258.2,397.2,542.3c0,197.1,-59.6,302.5,-224.6,302.5C527.1,953.3,349.9,713.5,349.9,404.9c0,-165,65.7,-296.4,232.2,-296.4ZM551.5,-25.9c-229.1,0,-374.3,139,-374.3,392.6c0,400.2,255.2,721.1,611.1,721.1c255.2,0,375.9,-137.5,375.9,-414C1164.2,282.6,904.4,-25.9,551.5,-25.9Z" 
	id="Tc1_17"
	 />

	<path d="M409.4,470.6c125.3,0,284.2,79.4,284.2,261.2c0,143.6,-106.9,217,-221.5,217c-41.3,0,-113.1,-3.1,-154.3,-7.7l1.5,-466c21.4,-3,53.5,-4.5,90.1,-4.5ZM70.3,-9.1C67.2,0,65.7,9.2,65.7,29c0,19.9,0,27.5,4.6,36.7c3,6.1,50.4,27.5,71.8,38.2c10.7,4.6,19.8,10.7,19.8,27.5l0,786.8c0,10.7,-6.1,19.9,-16.8,24.4c-22.9,13.8,-87,36.7,-90.1,42.8c-4.6,9.2,-4.6,16.8,-4.6,36.7c0,19.8,1.5,29,4.6,38.2c33.6,6.1,261.3,18.3,389.6,18.3c236.8,0,420.1,-87.1,420.1,-323.9c0,-310.1,-264.3,-418.6,-440,-418.6c-47.3,0,-82.5,4.6,-105.4,9.2L320.8,136c0,-16.8,9.2,-27.5,23,-32.1c16.8,-9.2,88.6,-32.1,91.6,-38.2C440,56.5,440,48.9,440,29C440,9.2,438.5,0,435.4,-9.1Z" 
	id="Tc1_18"
	 />

	<path d="M609.6,114.6c177.2,0,362.1,140.5,362.1,414c0,297.9,-206.3,418.6,-374.3,418.6c-168.1,0,-353,-139,-353,-403.3C244.4,246,455.3,114.6,609.6,114.6Zm528.6,-349c-8,0,-16,0.7,-24.4,2.3C977.8,-189.3,572.9,-39.6,469,-3C271.9,48.9,81,216.9,81,545.4c0,346.8,261.2,543.9,513.3,543.9c264.3,0,537.8,-152.8,537.8,-560.7C1132.1,239.9,979.3,71.8,789.9,7.6c110,-51.8,412.5,-102.2,579,-108.3c12.2,-1.6,10.7,-23,10.7,-42.8c0,-18.3,-6.1,-29,-12.2,-33.6l-204.8,-55c-8.4,-1.6,-16.4,-2.3,-24.4,-2.3Z" 
	id="Tc1_19"
	 />

	<path d="M475.1,531.7c125.3,0,250.6,80.9,250.6,227.6c0,136,-110,191,-224.6,191c-12.2,0,-26.6,0.1,-41.8,0.1c-38.1,0,-81.9,-0.8,-112.5,-6.2l3.1,-409.5c29,-1.5,82.5,-3,125.2,-3ZM84,0C81,9.2,79.4,18.3,79.4,38.2c0,19.9,0,27.5,4.6,36.7c3.1,6.1,65.7,27.5,87.1,38.2c10.7,4.5,19.9,10.7,19.9,27.5l0,786.8c0,10.7,-6.1,19.8,-16.8,24.4C151.3,965.6,87.1,988.5,84,994.6c-4.6,9.2,-4.6,16.8,-4.6,36.7c0,19.8,1.6,29,4.6,38.1c22.9,6.2,261.3,12.3,389.6,12.3C710.4,1081.7,880,986.9,880,770C880,614.2,789.9,501.1,676.8,441.5C756.3,322.4,866.3,154.3,876.9,140.6c10.7,-12.3,19.9,-23,33.7,-27.5c21.3,-7.7,85.5,-32.1,91.6,-38.2c7.7,-7.7,9.2,-16.8,9.2,-36.7c0,-19.9,-1.5,-29,-4.6,-38.2l-223,0C776.1,1.5,770,6.1,765.4,13.8l-249,381.9l-19.9,0c-55,0,-111.5,0,-146.6,6.1l0,-256.7c0,-16.8,9.1,-27.5,22.9,-32C389.6,103.9,447.6,81,450.7,74.9c4.6,-9.2,4.6,-16.8,4.6,-36.7c0,-19.9,-1.5,-29,-4.6,-38.2Z" 
	id="Tc1_20"
	 />

	<path d="M389.6,-9.1C189.4,-9.1,73.3,81,81,81l0,241.4c0,3,19.8,9.1,42.8,9.1c22.9,0,41.2,-6.1,41.2,-9.1c0,-107,59.6,-191,210.8,-191c88.6,1.5,206.3,45.8,206.3,158.9C582.1,414,375.8,472.1,311.7,504.2C250.6,534.7,81,589.7,81,783.8c0,184.8,204.7,300.9,380.4,300.9c165,0,239.9,-56.5,239.9,-64.1l0,-212.4c0,-4.6,-19.9,-9.2,-38.2,-9.2c-18.4,0,-36.7,6.1,-36.7,9.2c0,56.5,-33.6,139,-180.3,139C357.5,947.2,249,887.6,249,799C249,669.2,418.6,632.5,484.3,605C536.3,580.6,744,514.9,744,301C744,113.1,576,-9.1,389.6,-9.1Z" 
	id="Tc1_21"
	 />

	<path d="M264.3,0c-3,9.2,-4.6,18.3,-4.6,38.2c0,19.9,0,27.5,4.6,36.7l1.5,1.5c7.7,7.6,68.8,32.1,84.1,41.2c12.2,4.6,18.3,13.8,18.3,24.5l0,768.5c0,10.7,-9.2,19.8,-21.4,24.4l-180.3,0c-7.6,0,-15.2,-6.1,-18.3,-18.3c-7.6,-18.4,-27.5,-94.8,-32.1,-97.8c-7.6,-4.6,-29,-4.6,-44.3,-4.6c-6.8,0,-12.1,-0.6,-16.4,-0.6c-5.4,0,-9.2,0.9,-12.6,5.2c-1.5,3,9.1,253.6,16.8,253.6l789.8,0c6.2,0,18.4,-250.6,15.3,-253.6c-2.5,-4.3,-6.5,-5.2,-12.1,-5.2c-4.5,0,-10.1,0.6,-16.9,0.6c-15.3,0,-35.1,0,-42.8,4.6c-4.6,3,-26,79.4,-32.1,97.8c-3,12.2,-10.7,18.3,-18.3,18.3l-186.4,0c-12.2,-4.6,-21.4,-13.7,-21.4,-24.4l0,-768.5c0,-10.7,6.1,-19.9,18.4,-24.5C569.9,108.5,635.6,81,638.6,74.9c4.6,-9.2,4.6,-16.8,4.6,-36.7c0,-19.9,-1.5,-29,-4.6,-38.2Z" 
	id="Tc1_22"
	 />

	<path d="M546.9,-21.3c-328.4,0,-398.7,213.8,-398.7,563.7l0,385c0,10.7,-7.6,19.8,-18.3,24.4c-26,13.8,-96.3,36.7,-99.3,42.8c-6.2,9.2,-6.2,16.8,-6.2,36.7c0,19.8,1.6,29,6.2,38.1l414,0c3,-9.1,4.6,-18.3,4.6,-38.1c0,-19.9,0,-27.5,-4.6,-36.7C441.5,988.5,356,961,334.6,951.8c-12.2,-4.6,-19.9,-13.7,-19.9,-24.4l0,-392.7C314.7,301,343.8,122.2,550,122.2c206.3,0,258.2,177.2,258.2,409.5l0,395.7c0,10.7,-6.1,19.8,-18.3,24.4c-26,10.7,-107,36.7,-111.6,42.8c-4.5,9.2,-4.5,16.8,-4.5,36.7c0,19.8,1.5,29,4.5,38.1l415.6,0c3,-9.1,4.6,-18.3,4.6,-38.1c0,-19.9,0,-27.5,-4.6,-36.7c-4.6,-6.1,-79.5,-33.6,-99.3,-42.8c-12.2,-4.6,-19.9,-13.7,-19.9,-24.4l0,-377.4C974.7,192.5,883.1,-21.3,546.9,-21.3Z" 
	id="Tc1_23"
	 />

	<path d="M493.5,0C404.9,232.2,140.6,916.7,136,927.4c-4.6,10.7,-10.7,18.3,-16.8,22.9c-7.7,6.1,-94.8,35.1,-96.3,41.2c-3,9.2,-3,26,-3,41.3c0,13.7,1.5,27.5,3,36.6l378.9,0c1.5,-10.6,4.6,-24.4,4.6,-38.1c0,-15.3,-4.6,-36.7,-9.2,-39.8c-6.1,-3,-67.2,-32.1,-82.5,-41.2c-3,-1.5,-3,-18.4,0,-21.4L588.2,194L858.6,927.4c3.1,7.6,1.5,19.8,-1.5,22.9c-18.3,12.2,-73.3,38.2,-79.5,41.2c-4.5,3.1,-9.1,24.5,-9.1,39.8c0,13.7,3,27.5,4.6,38.1l378.8,0c1.6,-9.1,3.1,-22.9,3.1,-36.6c0,-15.3,0,-32.1,-3.1,-41.3c-1.5,-6.1,-88.6,-35.1,-96.2,-41.2c-6.1,-4.6,-12.2,-12.2,-16.8,-22.9L656.9,0Z" 
	id="Tc1_24"
	 />

	<path d="M392.6,0L134.4,927.4c-4.5,10.7,-10.6,18.3,-16.8,22.9c-7.6,6.1,-94.7,35.1,-96.2,41.2c-3.1,9.2,-3.1,26,-3.1,41.3c0,13.7,1.6,27.5,3.1,36.6l388,0c1.6,-10.6,4.6,-24.4,4.6,-38.1c0,-15.3,-4.6,-36.7,-9.1,-39.8c-6.1,-3,-76.4,-32.1,-91.7,-41.2c-3.1,-1.5,-3.1,-18.4,0,-21.4L491.9,212.4l230.7,844.8l188,0L1171.8,223.1l168.1,704.3c3,7.6,1.5,19.8,-1.6,22.9c-18.3,12.2,-91.6,38.2,-97.7,41.2c-4.6,3.1,-9.2,24.5,-9.2,39.8c0,13.7,3,27.5,4.6,38.1l397.2,0c1.5,-9.1,3.1,-22.9,3.1,-36.6c0,-15.3,0,-32.1,-3.1,-41.3c-1.5,-6.1,-88.6,-35.1,-96.3,-41.2c-6.1,-4.6,-12.2,-12.2,-16.8,-22.9L1254.3,0L1072.5,0L806.7,854L582.1,0Z" 
	id="Tc1_25"
	 />

	<path d="M32.1,-1.4C30.6,7.6,29,21.4,29,35.1c0,15.3,0,32.1,3.1,41.3c1.5,6.1,97.8,35.1,105.4,41.2c6.1,4.6,10.7,12.3,19.9,21.4c13.7,13.8,212.3,281.1,307,409.5C372.8,670.7,178.8,921.3,172.6,930.4c-6.1,9.2,-15.2,15.3,-21.3,19.9c-7.7,6.1,-93.2,35.1,-94.8,41.2c-3,9.2,-3,26,-3,41.3c0,13.7,1.5,27.5,3,36.6l403.4,0c1.5,-10.6,4.5,-24.4,4.5,-38.1c0,-15.3,-4.5,-36.7,-9.1,-39.8c-6.1,-3,-64.2,-32.1,-79.5,-41.2c-3,-1.5,-4.5,-9.2,4.6,-22.9c6.1,-7.7,129.9,-171.1,194,-259.8c73.4,93.2,189.5,246,197.1,259.8c4.6,7.6,1.6,19.8,-1.5,22.9c-18.3,12.2,-73.3,38.2,-79.4,41.2c-4.6,3.1,-9.2,24.5,-9.2,39.8c0,13.7,3,27.5,4.6,38.1l388,0c1.6,-9.1,3.1,-22.9,3.1,-36.6c0,-15.3,0,-32.1,-3.1,-41.3c-1.5,-6.1,-88.6,-36.6,-96.2,-39.7c-9.2,-3,-16.8,-6.1,-27.5,-16.8C938.1,924.3,756.3,684.4,666.1,559.2C771.5,418.6,977.8,148.2,983.9,142.1c9.2,-10.7,18.3,-19.9,24.4,-24.5c7.7,-6.1,94.8,-35.1,96.3,-41.2c3,-9.2,3,-26,3,-41.3c0,-13.7,-1.5,-27.5,-3,-36.5l-407.9,0c-1.6,10.6,-4.6,24.3,-4.6,38.1c0,15.2,4.6,36.6,9.2,39.7c6.1,3,61.1,29,79.4,41.2c3.1,3.1,4.6,15.3,1.5,23c-4.6,9.1,-145.1,192.5,-220,291.8C485.8,331.5,359,152.8,352.9,139c-4.6,-7.6,-3,-19.8,0,-21.4c15.3,-9.1,76.4,-38.2,82.5,-41.2c4.6,-3.1,9.2,-24.5,9.2,-39.7C444.6,22.9,441.5,9.2,440,-1.4Z" 
	id="Tc1_26"
	 />

	<path d="M301,1.5c-3.1,9.2,-4.6,18.4,-4.6,38.2c0,19.9,0,27.5,4.6,36.7c3,6.1,65.7,27.5,87.1,38.2c10.7,4.6,19.8,10.7,19.8,27.5l0,271.9l-301,533.2c-3,7.7,-7.6,12.2,-12.2,16.8c-4.6,4.6,-71.8,24.5,-73.3,30.6c-1.5,4.6,-4.6,27.5,-4.6,38.2c0,10.7,3.1,29,4.6,36.6l337.6,0c1.6,-7.6,6.1,-27.5,6.1,-36.6c0,-10.7,-6.1,-36.7,-9.1,-38.2C351.4,993.1,294.9,970.1,285.7,964c-1.5,0,-1.5,-13.7,0,-15.2L502.6,550L716.5,947.2c1.6,4.6,0,13.8,-1.5,16.8c-12.2,9.2,-62.6,29.1,-67.2,30.6c-3.1,1.5,-9.2,27.5,-9.2,38.2c0,9.1,4.6,29,6.1,36.6l327,0c0,-7.6,4.6,-25.9,4.6,-36.6c0,-10.7,-3.1,-33.6,-4.6,-38.2c-1.6,-6.1,-68.8,-26,-73.4,-30.6c-6.1,-4.6,-9.1,-9.1,-12.2,-16.8L571.4,414l0,-267.3c0,-16.8,4.6,-27.5,18.3,-32.1c16.8,-9.2,85.6,-32.1,88.6,-38.2c4.6,-9.2,4.6,-16.8,4.6,-36.7c0,-19.8,-1.5,-29,-4.6,-38.2Z" 
	id="Tc1_27"
	 />

	<path d="M88.6,1.5C70.3,1.5,56.5,10.7,56.5,36.7c0,24.4,-1.5,91.6,6.1,103.9L652.4,925.8l-394.2,0c-2.4,0.5,-4.8,0.7,-7.2,0.7c-13.9,0,-26.2,-7.7,-34.1,-22.1C206.3,884.6,169.6,782.2,163.5,777.6c-9.2,-4.5,-16.8,-4.5,-36.7,-4.5c-19.9,0,-29,1.5,-38.2,4.5l19.9,265.9c3,13.7,9.1,21.4,21.4,25.9l693.6,0c13.7,0,15.3,-128.3,12.2,-142L267.4,140.6l432.3,0c16.8,0,22.9,10.7,27.5,22.9c10.7,25.9,48.9,125.3,55,128.3c9.2,6.1,16.8,6.1,36.7,6.1c19.9,0,29,-3,38.2,-6.1L837.2,1.5Z" 
	id="Tc1_28"
	 />

	<path d="M443.1,123.8c223,0,334.5,294.8,334.5,479.7c0,65.7,-62.6,131.4,-142,131.4C461.4,734.9,299.4,565.3,299.4,325.4c0,-113,48.9,-201.6,143.7,-201.6ZM414,-15.2c-183.3,0,-270.4,155.8,-270.4,317.7c0,323.9,220,568.3,469,568.3c120.7,0,198.7,-56.5,226.2,-132.9c9.1,53.5,25.9,102.4,39.7,102.4l105.4,0c22.9,-1.5,19.9,-1.5,19.9,-24.5C1003.8,796,863.2,359,863.2,140.6c0,-8.4,8.5,-11.2,21.1,-11.2c28.2,0,77,14.3,97.5,14.3c0.8,0,1.4,-0.1,2.1,-0.1c9.2,-3,13.7,-13.7,13.7,-26c0,-7.6,-1.5,-13.7,-3,-21.3C991.5,70.3,977.8,45.8,970.1,45.8C921.3,33.6,809.7,-6,773.1,-6c-21.4,1.5,-45.9,42.7,-45.9,91.6c0,12.2,6.1,51.9,12.2,97.7C682.9,82.5,576,-15.2,414,-15.2Z" 
	id="Tc1_29"
	 />

	<path d="M440,119.2c232.2,0,340.7,282.6,340.7,418.6c0,93.2,-38.2,195.5,-134.4,195.5C446.1,733.3,314.7,456.8,314.7,259.7c0,-96.2,26,-140.5,125.3,-140.5Zm-12.2,-142C267.4,-22.8,157.4,55,157.4,233.8c0,145.1,106.9,586.6,140.5,812.7l-97.8,4.6c-7.6,1.5,-12.2,24.5,-9.1,41.3c2.9,17.6,13,36.7,21.9,36.7c0.3,0,0.7,0,1,-0.1l207.8,35.2c27.5,-3.1,41.2,-16.8,38.2,-45.9L377.4,710.4c56.5,70.3,169.5,152.8,305.5,152.8c186.4,0,246,-148.2,246,-299.4C928.9,247.5,731.8,-22.8,427.8,-22.8Z" 
	id="Tc1_30"
	 />

	<path d="M493.5,-32C287.2,-32,122.2,100.8,122.2,313.2c0,325.4,246,543.9,485.9,543.9c195.5,0,253.6,-55,291.8,-107c0,-47.3,-48.9,-201.6,-52,-201.6c-6.1,-1.6,-10.7,-3.1,-16.8,-3.1c-4.6,0,-9.2,1.5,-16.8,1.5c-15.3,1.6,-21.4,1.6,-29,7.7c-3.1,1.5,-3.1,105.4,-9.2,117.6c-29,39.7,-74.8,58.1,-168,58.1c-163.5,0,-319.3,-178.8,-319.3,-411C288.8,171.1,380.4,81,516.4,81c134.4,0,192.5,50.4,224.6,77.9l1.5,0c6.1,0,18.3,-16.8,26,-36.7c6.1,-15.3,9.1,-36.6,9.1,-48.9c0,-6.1,0,-9.1,-1.5,-10.7C739.4,33.6,656.9,-28.9,493.5,-32Z" 
	id="Tc1_31"
	 />

	<path d="M517.9,125.3c157.4,0,308.6,186.4,308.6,411c0,135.9,-88.6,198.6,-168,198.6C502.6,734.9,365.1,566.8,365.1,346.8c0,-102.4,30.6,-221.5,152.8,-221.5ZM466,-15.2c-157.4,0,-261.3,155.8,-261.3,354.4c0,287.2,198.6,531.6,440,531.6c163.5,0,229.2,-97.7,244.5,-194c27.5,125.3,80.9,362.1,73.3,375.8c-2.6,4.6,-17.8,5.9,-36.2,5.9c-20.1,0,-44.3,-1.5,-60.4,-1.5c-3.3,0,-6.3,0.1,-8.8,0.2c-6.1,1.6,-9.2,13.8,-9.2,27.5c0,4.6,0,9.2,1.5,13.8c3.1,18.3,12.3,36.6,21.4,36.6l210.9,26c22.9,-1.5,38.2,-12.2,38.2,-35.1l0,-9.2C1084.7,935,919.7,158.9,938.1,140.6c6.2,-6.3,16,-8.5,27.3,-8.5c26,0,60.3,11.6,80.2,11.6c0.8,0,1.7,0,2.5,-0.1c9.1,-3,13.7,-13.7,13.7,-26c0,-7.6,-1.5,-13.7,-3,-21.3c-3.1,-26,-16.9,-50.5,-24.5,-50.5C985.4,33.6,873.9,-6,837.2,-6c-21.4,1.5,-45.8,42.7,-45.8,91.6c0,16.8,3,47.3,6.1,76.3C744,70.3,612.6,-15.2,466,-15.2Z" 
	id="Tc1_32"
	 />

	<path d="M317.8,389.6l0,0c212.3,9.2,467.5,122.2,467.5,227.6C785.3,681.4,741,744,637.1,744C456.8,744,340.7,559.2,317.8,389.6ZM473.6,-21.3c-226.1,0,-317.8,183.2,-317.8,339.1c0,249,204.8,545.4,507.3,545.4C840.3,863.2,928.9,757.8,928.9,631C928.9,433.9,597.4,302.5,314.7,287.2C326.9,177.2,391.1,96.3,501.1,96.3c137.5,0,207.8,30.5,302.5,108.4c1.9,1.9,4.2,2.9,6.8,2.9c7.7,0,18,-8.6,28.4,-25.8c7.6,-18.3,7.6,-41.2,1.5,-48.9C762.4,67.2,653.9,-21.3,473.6,-21.3Z" 
	id="Tc1_33"
	 />

	<path d="M-12.1,-274.9c-21.4,0,-24.5,18.3,-24.5,36.7c0,13.7,10.7,38.2,29.1,38.2c31.9,0,102.2,56.5,123.6,137.5c35.2,132.8,91.7,449,131.4,684.3l-74.9,0c-4.5,0,-6.1,36.7,-4.5,56.5c1.5,19.9,7.6,55,25.9,55l71.8,0c9.2,56.6,16.8,102.4,21.4,133c24.5,158.8,116.1,294.8,351.4,294.8c134.5,0,180.3,-55,183.3,-61.1L782.2,936.5c-7.6,-3,-29,-3,-41.2,-3c-13.8,1.5,-36.7,6.1,-39.7,10.7c0,32.1,-12.3,91.6,-85.6,91.6c-116.1,0,-154.3,-76.4,-180.3,-195.5c-6.1,-26,-12.2,-62.7,-19.8,-107l232.2,0c0.2,0.1,0.4,0.1,0.6,0.1c7.4,0,14.6,-26.9,11.6,-58.1c-4.6,-24.5,-22.9,-53.5,-29,-53.5l-233.8,0C359,397.2,313.2,93.2,285.7,-21.3C249,-177.1,139,-274.9,-12.1,-274.9Z" 
	id="Tc1_34"
	 />

	<path d="M447.6,122.2c243,0,330,296.4,330,481.3c0,65.7,-62.6,131.4,-142,131.4C461.4,734.9,301,545.4,301,325.4C301,223.1,346.8,122.2,447.6,122.2ZM412.5,-355.9c-139,0,-255.1,87.1,-255.1,120.7c0,16.9,20.8,71.5,32.4,71.5c1,0,1.9,-0.4,2.7,-1.2c42.8,-42.8,114.6,-77.9,238.3,-77.9c108.5,0,198.6,50.4,236.8,160.4C686,-28.9,715,82.5,733.3,165C676.8,70.3,572.9,-15.2,414,-15.2c-169.6,0,-270.4,155.8,-270.4,317.7c0,323.9,220,568.3,469,568.3c128.4,0,213.9,-62.6,239.9,-146.6c19.9,58,58.1,116.1,71.8,116.1l111.5,0c23,-1.5,29.1,-26,27.5,-44.3c-3,-30.6,-80.9,-74.9,-126.8,-246C898.3,404.9,855.6,26,818.9,-87C751.7,-291.7,589.7,-355.9,412.5,-355.9Z" 
	id="Tc1_35"
	 />

	<path d="M152.8,-12.1c0,44.2,184.8,1014.3,184.8,1025c0,16.8,-12.2,27.5,-22.9,27.5c-19.3,0,-52,-3.6,-75.4,-3.6c-13.6,0,-24.1,1.2,-26.9,5.1c-3.1,3.1,-12.3,23,-10.7,35.2c3,19.8,6.1,38.2,19.8,38.2L469,1168.8c24.5,-1.6,39.8,-13.8,39.8,-36.7l0,-7.7l-91.7,-495c56.5,100.9,171.1,230.7,349.8,230.7C915.1,860.1,973.2,736.4,973.2,579c0,-108.4,-47.4,-302.5,-73.3,-440c0,-7.6,4.5,-15.2,13.7,-25.9c10.7,-7.7,99.3,-12.3,107,-19.9c6.1,-3.1,7.6,-6.1,7.6,-13.8c0,-4.5,-1.5,-10.6,-3.1,-21.3c-3,-19.9,-10.7,-38.2,-19.8,-38.2l-1.5,0C944.2,15.3,821.9,-10.6,783.8,-10.6c-30.6,0,-56.6,32,-56.6,71.7c0,4.6,0,10.7,1.6,15.3c29,155.8,90.1,394.2,90.1,496.5c0,97.8,-36.7,136,-120.7,136c-136,0,-270.4,-195.6,-317.8,-333.1L310.1,18.3C258.2,0,210.8,-6,152.8,-12.1Z" 
	id="Tc1_36"
	 />

	<path d="M227.6,-16.7C194,-16.7,152.8,7.6,160.4,55L288.8,719.6c3,10.7,0,19.8,-10.7,24.4c-8.2,3.3,-20.9,4.2,-34.1,4.2c-18.3,0,-37.4,-1.8,-46.3,-1.8c-2.9,0,-4.7,0.2,-5.2,0.7c-3.1,3,6.1,67.2,12.2,68.7L414,863.2c27.5,0,53.5,-12.2,48.9,-41.3C430.8,650.8,334.6,151.3,334.6,137.5c0,-12.2,3,-19.9,12.2,-24.4c12.2,-6.2,96.3,-7.7,105.4,-13.8c7.7,-6.1,7.7,-10.7,3.1,-35.1C452.2,44.3,444.6,36.7,441.5,24.4L227.6,-16.7ZM356,938.1c-18.4,0,-27.5,10.7,-27.5,22.9c0,30.5,16.8,131.4,42.8,131.4l128.3,15.2c13.7,0,21.4,-13.7,21.4,-22.9c0,-19.8,-13.8,-131.4,-44.3,-131.4L356,938.1Z" 
	id="Tc1_37"
	 />

	<path d="M-62.5,-322.3c-111.6,0,-155.9,52,-160.5,59.6c-6.1,4.6,-7.6,36.7,0,64.2c6.2,19.8,19.9,42.8,33.7,42.8c16.8,-21.4,56.5,-44.3,123.7,-44.3c119.1,0,197,84,224.5,207.6c24.4,110,99.3,507.3,132.9,704.3c3.1,10.7,-1.5,21.4,-12.2,26c-5.8,4,-19.3,5,-34.2,5c-14.4,0,-30,-0.9,-40.9,-0.9c-7.5,0,-12.7,0.5,-13.5,2c-3.1,9.2,-1.6,16.8,1.5,36.7c3.1,19.9,7.6,29,10.7,38.2l244.4,29C464.4,846.4,466,831.1,459.9,796C411,519.4,333.1,108.5,307.1,-7.5C271.9,-168,165,-322.3,-62.5,-322.3ZM351.4,938.1c-18.3,0,-27.5,10.7,-27.5,22.9c0,30.5,16.8,131.4,42.8,131.4L495,1107.6c13.8,0,21.4,-13.7,21.4,-22.9c0,-19.8,-13.8,-131.4,-44.3,-131.4L351.4,938.1Z" 
	id="Tc1_38"
	 />

	<path d="M797.8,-30.7c-13.1,0,-34.4,5.6,-38.5,12.5L464.4,336.1l21.4,82.5c184.9,0,348.4,117.7,348.4,232.2c0,61.1,-15.3,99.3,-64.2,99.3C594.3,750.1,400.3,554.6,377.4,383.5C368.2,333.1,323.9,82.5,316.3,30.6c0,-12,-148.6,-50.4,-177.3,-50.4c-0.5,0,-1,0,-1.5,0c0,44.2,200.1,1022,200.1,1032.7c0,16.8,-12.2,27.5,-22.9,27.5c-19.3,0,-52,-3.6,-75.4,-3.6c-13.6,0,-24.1,1.2,-26.9,5.1c-3.1,3.1,-12.3,23,-10.7,35.2c3,19.8,6.1,38.2,19.8,38.2l246,53.5c24.4,-1.6,39.7,-13.8,39.7,-36.7l0,-7.7l-84,-467.5C491.9,750.1,641.7,875.4,854,875.4c85.6,0,146.7,-73.3,146.7,-165C1000.7,530.1,844.9,403.3,641.7,356L832.6,122.2c9.2,-13.7,35.2,-18.3,48.9,-24.4c4.7,-2.2,12.9,-2.9,22.5,-2.9c18,0,40.7,2.5,53.6,2.5c4.7,0,8,-0.3,9.5,-1.1C973.2,91.7,977.8,81,977.8,62.6c0,-19.8,-1.5,-29,-4.6,-38.2L802.1,-30.5c-1.3,-0.1,-2.7,-0.2,-4.3,-0.2Z" 
	id="Tc1_39"
	 />

	<path d="M227.6,-16.7C194,-16.7,152.8,7.6,160.4,55l177.2,957.9c3.1,10.7,0,19.9,-10.7,24.5c-6.7,2.7,-16.7,3.5,-27.4,3.5c-17.7,0,-37.4,-2.3,-48.3,-2.3c-4.9,0,-7.9,0.5,-8.3,1.8c-3,9.2,-10.7,10.7,-6.1,30.6c3.1,19.8,6.1,29,10.7,38.2l215.4,47.3c27.5,0,53.5,-12.2,48.9,-41.2L336.1,146.7c1.5,-6.1,6.1,-27.5,10.7,-33.6c12.2,-7.7,96.3,-7.7,105.4,-13.8c7.7,-6.1,7.7,-10.7,3.1,-35.1C452.2,44.3,444.6,36.7,441.5,24.4L227.6,-16.7Z" 
	id="Tc1_40"
	 />

	<path d="M720.5,-15.6c-7.1,0,-11.4,1.1,-11.6,3.5c-1.5,27.4,102.4,461.3,102.4,604.9c0,77.9,-21.4,119.1,-85.6,119.1c-139,0,-290.3,-198.6,-337.6,-336.1L325.4,29c0,-10.3,-120.6,-41.4,-157.5,-41.4c-6.6,0,-10.5,1,-10.5,3.3c0,38.1,134.4,689,134.4,708.8c0,16.8,-12.2,27.5,-22.9,27.5c-19.3,0,-52,-3.6,-75.4,-3.6c-13.7,0,-24.2,1.2,-27,5.2c-3,3,-10.7,33.6,-9.1,45.8c3,19.8,6.1,38.2,19.8,38.2l252.1,53.5C453.8,864.7,469,852.5,469,829.6l0,-7.7L423.2,631c91.7,125.3,203.2,229.1,354.4,229.1c134.5,0,178.8,-82.5,189.5,-212.3c55,91.6,192.5,212.3,349.8,212.3C1485,860.1,1514,748.6,1514,652.4C1514,522.5,1457.5,273.5,1431.5,136c0,-7.7,4.6,-15.3,13.8,-26c10.7,-7.6,99.3,-12.2,106.9,-19.9c6.1,-3,7.7,-6.1,7.7,-13.7c0,-4.6,-1.6,-10.7,-3.1,-21.4c-3,-19.9,-10.7,-38.2,-19.9,-38.2l-1.5,0C1475.8,12.2,1349,-13.7,1310.8,-13.7c-30.5,0,-56.5,32,-56.5,71.8c0,4.5,0,10.7,1.5,15.2c29.1,155.9,93.2,417.1,93.2,518c0,82.5,-16.8,120.6,-93.2,120.6c-135.9,0,-255.1,-184.8,-305.5,-320.8L880,26C877.4,14.4,758.7,-15.6,720.5,-15.6Z" 
	id="Tc1_41"
	 />

	<path d="M789.9,-13.7c-30.6,0,-56.6,32,-56.6,71.8c0,4.5,0,10.7,1.6,15.2c29,155.9,88.6,397.3,88.6,499.6c0,97.8,-26,139,-105.4,139C582.1,711.9,440,525.6,392.6,388.1L322.4,35.1c0,-16.8,-84.1,-33.6,-162,-48.8c0,44.3,131.4,702.7,131.4,713.4c0,16.8,-12.2,27.5,-22.9,27.5c-19.3,0,-52,-3.6,-75.4,-3.6c-13.7,0,-24.2,1.2,-27,5.2c-3,3,-10.7,33.6,-9.1,45.8c3,19.8,6.1,38.2,19.8,38.2l252.1,53.5C453.8,864.7,469,852.5,469,829.6l0,-7.7L426.3,640.1c67.2,99.3,190.9,220,371.2,220C930.4,860.1,977.8,744,977.8,615.7C977.8,478.2,931.9,273.5,906,136c0,-7.7,4.6,-15.3,13.7,-26c10.7,-7.6,99.3,-12.2,107,-19.9c6.1,-3,7.6,-6.1,7.6,-13.7c0,-4.6,-1.5,-10.7,-3,-21.4c-3.1,-19.9,-10.7,-38.2,-19.9,-38.2l-1.5,0C950.3,12.2,828.1,-13.7,789.9,-13.7Z" 
	id="Tc1_42"
	 />

	<path d="M481.3,88.6C666.1,88.6,799,331.5,799,540.8c0,105.5,-44.3,215.5,-177.2,215.5C461.4,756.3,310.1,511.8,310.1,311.7C310.1,189.4,342.2,88.6,481.3,88.6Zm-24.5,-116c-203.2,0,-305.5,142,-305.5,323.8c0,281.1,172.6,569.9,495,569.9c180.2,0,310.1,-116.2,310.1,-291.9c0,-311.6,-162,-601.8,-499.6,-601.8Z" 
	id="Tc1_43"
	 />

	<path d="M550,122.2c177.2,0,297.9,212.4,297.9,374.3c0,146.7,-44.3,230.7,-163.5,230.7c-166.5,0,-294.8,-168,-294.8,-372.8c0,-139,53.5,-232.2,160.4,-232.2ZM145.1,-305.5c-16.8,0,-41.2,16.8,-41.2,39.8c0,45.8,197.1,956.3,175.7,977.6c-9.6,9.6,-26.3,12.2,-44.3,12.2C215.5,724.1,194.1,721,179,721c-1.7,0,-3.3,0,-4.8,0.1c-15.3,4.6,-19.9,19.9,-15.3,39.7c3,26,16.8,45.9,24.4,45.9c48.9,12.2,165,45.8,201.7,45.8c21.4,-1.5,45.8,-36.7,45.8,-85.6c0,-13.7,-3,-35.1,-6.1,-56.5c55,79.5,174.2,157.4,305.6,157.4c187.9,0,281.1,-122.2,281.1,-323.9C1011.4,256.7,815.8,-18.2,565.3,-18.2C430.8,-18.2,356,53.5,333.1,149.7C307.1,26,267.4,-166.4,271.9,-184.8c4.6,-16.8,73.4,-12.2,97.8,-15.2c6.1,-1.6,9.2,-13.8,9.2,-27.5c0,-4.6,0,-9.2,-1.5,-13.8C374.3,-259.6,365.1,-278,356,-278c-50.4,-7.6,-169.6,-27.5,-210.9,-27.5Z" 
	id="Tc1_44"
	 />

	<path d="M446.1,113.1c226.1,0,314.7,305.5,314.7,490.4c0,65.7,-62.6,139,-142,139C444.6,742.5,305.6,545.4,305.6,325.4c0,-102.3,29,-212.3,140.5,-212.3ZM684.4,-339.1c-21.3,0,-48.8,35.2,-48.8,41.3c0,24.4,45.8,265.8,74.8,424.6C647.8,48.9,554.6,-15.2,430.8,-15.2c-197,0,-287.2,155.8,-287.2,317.7c0,323.9,203.2,568.3,452.2,568.3c125.3,0,209.3,-59.5,238.4,-140.5c13.7,56.5,39.7,110,53.4,110l116.2,0c22.9,-1.5,29,-26,27.5,-44.3c-3.1,-30.6,-74.9,-71.8,-107,-246C896.8,401.8,809.7,-68.7,794.4,-189.3c-0.9,-8.6,7,-11.2,18.8,-11.2c19.2,0,48.7,7,67.2,7c6.8,0,12.1,-1,14.9,-3.5c9.1,-7.6,9.1,-26,1.5,-39.7C880,-267.3,739.4,-339.1,684.4,-339.1Z" 
	id="Tc1_45"
	 />

	<path d="M174.6,-1.7c-3.5,0,-6.7,0.1,-9.6,0.3c-10.7,0,-32.1,32,-30.6,45.7L249,690.6c0,10.7,-4.6,19.8,-15.2,24.4c-24.5,9.2,-91.7,26,-94.8,32.1c-4.6,9.2,-4.6,10.7,-4.6,30.5c0,19.9,9.2,38.2,15.3,38.2l215.4,24.5c27.5,0,33.7,-10.7,35.2,-39.7L388.1,705.8C433.9,768.5,534.7,863.2,605,863.2c48.9,0,110,-6.1,137.5,-33.6c9.2,-9.2,-50.4,-139,-67.2,-151.3C667.3,672.1,655.7,668,645,668c-7.7,0,-15,2.1,-20.1,7.3c-10.7,10.7,6.1,47.3,-64.2,47.3C472.1,722.6,377.4,582.1,365.1,524C334.6,377.4,304,204.7,304,136c1.6,-18.4,4.6,-26,16.8,-29.1c5,-2.8,12.9,-3.8,21.7,-3.8c19.5,0,44,4.7,53.7,4.7c2.2,0,3.7,-0.2,4.1,-0.9c4.6,-7.6,9.1,-21.3,6.1,-38.1C403.3,55,395.7,35.1,391.1,33.6C345.2,19.3,228,-1.7,174.6,-1.7Z" 
	id="Tc1_46"
	 />

	<path d="M336.1,-15.2C149.7,-15.2,81,102.4,81,110l36.6,149.7c1.6,3.1,21.4,7.7,38.2,7.7c16.8,0,38.2,-4.6,38.2,-10.7C172.6,152.8,256.7,105.4,342.2,105.4c97.8,0,162,35.2,162,136c0,74.9,-113.1,114.6,-171.1,148.2C279.6,420.1,158.9,481.3,158.9,592.8c0,194,186.4,264.3,337.6,264.3c145.2,0,217,-52,217,-58.1L669.2,643.2c-7.7,-4.6,-18.4,-7.6,-33.6,-7.6c-16.8,0,-29.1,9.1,-33.7,13.7c7.7,47.4,-22.9,107,-119.1,108.5C401.8,756.3,307.1,721.1,307.1,640.1c0,-88.6,110,-117.6,168,-148.2c64.2,-33.6,191,-99.3,191,-227.6C666.1,93.2,550,-15.2,336.1,-15.2Z" 
	id="Tc1_47"
	 />

	<path d="M362.1,-21.3c-174.2,0,-207.8,142,-180.3,307L258.2,744l-114.6,0c-10.7,0,-19.8,19.9,-16.8,36.7c3.1,21.4,13.8,44.3,24.5,44.3c0.9,-0.1,2,-0.1,3.2,-0.1c37.1,0,167.3,48.4,198.4,223.2c9.3,6.6,34.9,10.9,52.4,10.9c2.6,0,5,-0.1,7.2,-0.2c15.3,0,44.3,-7.7,53.5,-16.9L433.9,841.8l262.8,0c7.6,-1.5,16.8,-19.9,12.2,-50.4C702.8,766.9,684.4,741,678.3,741L411,741L345.3,337.6c-22.9,-142,-22.9,-233.7,55,-233.7c93.2,0,140.5,85.5,178.7,148.2c3.6,1.8,13.5,2.5,23.5,2.5c7.1,0,14.2,-0.4,19.3,-1c13.8,-1.5,35.1,-22.9,36.7,-27.5C603.5,91.7,533.2,-21.3,362.1,-21.3Z" 
	id="Tc1_48"
	 />

	<path d="M771.5,-13.7C747.1,-12.1,725.7,0,725.7,22.9l0,7.7l27.5,161.9C698.2,99.3,589.7,-7.5,412.5,-7.5C275,-7.5,209.3,87.1,209.3,186.4c0,105.4,64.2,417.1,82.5,545.4c1.5,7.6,-4.6,15.3,-13.7,26c-3.2,2.2,-12.4,2.9,-24,2.9c-15.9,0,-36.4,-1.3,-51.8,-1.3c-11.2,0,-19.8,0.7,-22,3c-9.2,4.5,-18.4,6.1,-13.8,35.1c3.1,19.9,10.7,38.2,19.9,38.2l1.5,0c59.6,4.6,186.4,30.6,224.6,30.6c30.6,0,48.9,-32.1,48.9,-71.9c0,-4.5,0,-10.6,-1.5,-15.2C438.5,664.6,368.2,339.2,368.2,244.4c0,-80.9,33.6,-122.2,117.6,-122.2c136,0,264.3,194.1,311.7,331.6c9.2,50.4,47.4,220,55,271.9c0,12.2,-3.1,24.4,-13.7,26c-5.5,0.9,-17,1.1,-30.5,1.1c-14.4,0,-31,-0.3,-45.1,-0.3c-17.3,0,-30.8,0.4,-31.4,2.2c-6.1,12.2,-12.2,21.4,-9.2,36.7c3.1,21.4,9.2,30.5,12.3,38.2c61.1,10.7,198.6,35.1,227.6,35.1c35.1,0,51.9,-16.8,51.9,-55c0,-44.3,-131.3,-658.4,-131.3,-669.1c0,-16.8,12.2,-27.5,22.9,-27.5c20.3,0,50.2,2.7,68.8,2.7c9.3,0,15.7,-0.7,16.7,-2.7c1.6,-3.1,10.7,-33.7,9.2,-45.9C997.6,47.4,986.9,27.5,973.2,27.5L771.5,-13.7Z" 
	id="Tc1_49"
	 />

	<path d="M447.6,-18.2c-12.2,3,-21.3,10.7,-24.4,19.7C381.9,220,308.6,612.6,259.7,731.8c-3,6.1,-6.1,9.2,-13.7,13.8c-2,1.1,-7.8,1.5,-15.4,1.5c-12.6,0,-30.3,-1,-44.8,-1c-10.9,0,-20,0.6,-23.9,2.5c-6.1,3.1,-9.1,19.9,-9.1,38.2c0,12.2,3,38.2,13.7,38.2l187.9,45.8c24.5,0,35.2,-16.8,45.9,-61.1c15.3,-55,97.8,-391.1,139,-638.6C643.2,348.3,786.8,594.3,846.4,737.9c0,3.1,0,18.4,-7.6,18.4l-65.7,-4.6c-4.6,3,-18.4,24.4,-18.4,39.7c0,12.2,3.1,39.7,9.2,39.7l218.5,39.7c12.2,0,42.7,-13.7,42.7,-33.6c0,-21.4,-7.6,-68.7,-10.7,-85.5C930.4,568.3,611.1,58.1,598.9,33.6C586.7,19.9,576,9.2,563.8,4.6L447.6,-18.2Z" 
	id="Tc1_50"
	 />

	<path d="M455.3,-18.2c-12.2,3,-21.4,10.7,-24.5,19.7C389.6,220,346.8,612.6,297.9,731.8c-3,6.1,-6.1,9.2,-13.7,13.8c-2,1.1,-7.8,1.5,-15.4,1.5c-12.6,0,-30.3,-1,-44.8,-1c-10.9,0,-20,0.6,-23.9,2.5c-6.1,3.1,-9.1,19.9,-9.1,38.2c0,12.2,3,38.2,13.7,38.2l187.9,45.8c24.5,0,35.2,-16.8,45.9,-61.1C452.2,757.8,501.1,452.2,546.9,171.1C667.6,381.9,796,631,852.5,765.4c-10.7,33.6,-7.6,73.4,22.9,81c22.9,6.1,76.4,24.4,105.4,24.4c26,0,103.9,-326.9,168.1,-699.7c117.6,206.3,230.7,432.4,287.2,566.8c0,3.1,0,18.4,-7.6,18.4l-65.7,-4.6c-4.6,3,-18.4,24.4,-18.4,39.7c0,12.2,3.1,39.7,9.2,39.7l218.5,39.7c12.2,0,42.8,-13.7,42.8,-33.6c0,-21.4,-7.7,-68.7,-10.7,-85.5C1520.1,568.3,1220.7,58.1,1208.5,33.6C1196.3,19.9,1185.6,9.2,1173.3,4.6L1057.2,-18.2c-12.2,3,-21.4,10.7,-24.4,19.7C1005.3,146.7,967.1,366.7,918.2,569.9C776.1,319.3,615.7,50.4,606.5,33.6C594.3,19.9,583.6,9.2,571.4,4.6L455.3,-18.2Z" 
	id="Tc1_51"
	 />

	<path d="M756.3,-16.7c-29.1,0,-35.2,9.2,-44.4,21.3L530.1,339.2L281.1,113.1c-13.7,-13.8,0,-13.8,3.1,-21.4C302.5,87.1,345.3,74.9,356,74.9c10.7,0,21.4,-18.4,19.8,-26C374.3,42.8,365.1,18.3,363.6,13.8C317.8,9.2,155.8,-4.5,116.1,-4.5c-26,0,-53.5,94.6,-32.1,116L464.4,456.8L305.6,747.1c-2.3,1.2,-6.5,1.8,-12,1.8c-23,0,-68.6,-9.1,-87.4,-9.1c-3.7,0,-6.3,0.3,-7.6,1.2c-9.2,6.1,-13.7,12.2,-13.7,36.6c0,19.9,6.1,30.6,10.7,30.6l186.3,67.2c18.4,0,30.6,-3,45.9,-26l165,-296.3L803.6,744c1.5,4.6,0,7.7,-3,10.7c-12.3,9.2,-79.5,15.3,-84.1,19.9c-3,10.7,-3,9.2,-4.6,27.5c1.6,21.4,3.1,24.4,4.6,32.1L965.6,851c13.7,0,29,-1.6,33.6,-15.3c4.6,-13.8,27.5,-71.8,12.2,-90.1L656.9,424.7L831.1,123.8c2.7,-1.5,8.6,-2.1,16.6,-2.1c26.9,0,76.8,6.5,99.3,6.5c5.6,0,9.5,-0.4,10.9,-1.4c9.2,-6.1,10.7,-10.7,10.7,-35.1c0,-19.9,-9.2,-32.1,-13.7,-32.1L756.3,-16.7Z" 
	id="Tc1_52"
	 />

	<path d="M478.2,-336c-154.3,0,-270.4,94.7,-270.4,128.3c0,16.8,21.7,71.8,32.4,71.8c1,0,1.9,-0.5,2.7,-1.5C273.5,-180.2,357.5,-223,481.3,-223c102.3,0,210.8,93.2,239.8,192.5c13.8,48.8,29,109.9,47.4,212.3C687.5,73.3,594.3,-7.5,429.3,-7.5C291.8,-7.5,244.4,87.1,244.4,186.4c0,105.4,70.3,417.1,88.7,545.4c1.5,7.6,-4.6,15.3,-13.8,26c-3.2,2.2,-12.3,2.9,-23.9,2.9c-16,0,-36.4,-1.3,-51.9,-1.3c-11.2,0,-19.7,0.7,-22,3c-9.1,4.5,-18.3,6.1,-13.7,35.1c3,19.9,10.7,38.2,19.8,38.2l1.6,0c59.6,0,180.2,30.6,218.4,30.6c30.6,0,48.9,-32.1,48.9,-71.9c0,-4.5,0,-10.6,-1.5,-15.2C473.6,664.6,403.3,323.9,403.3,229.2c0,-81,19.9,-102.4,90.2,-102.4c126.8,0,294.8,201.7,322.3,340.7c10.7,50.4,39.8,200.1,47.4,252.1c0,12.2,-3.1,19.8,-13.8,26c-18.3,10.7,-97.7,4.5,-99.3,9.1c-6.1,12.2,-12.2,21.4,-9.1,36.7c3,21.4,9.1,30.5,12.2,38.2c61.1,10.7,198.6,35.1,227.6,35.1c35.2,0,59.6,-16.8,52,-55C962.5,429.3,902.9,145.1,863.2,-36.6C820.4,-233.7,640.1,-336,478.2,-336Z" 
	id="Tc1_53"
	 />

	<path d="M96.3,1.5c-15.3,0,-26,36.7,-26,58.1c0,18.3,10.7,59.6,16.8,68.7L603.5,702.8l-268.9,0c-1.4,0.1,-2.8,0.2,-4.2,0.2c-12.3,0,-24.1,-6,-31,-17c-9.1,-16.8,-59.5,-84.1,-64.1,-88.6c-7.7,-3.1,-18.4,-3.1,-35.2,-3.1c-16.8,0,-24.4,1.5,-32,3.1l56.5,221.5c3,10.7,7.6,16.8,18.3,21.4l557.7,0c15.2,0,27.5,-27.5,27.5,-42.8c0,-19.9,0,-61.1,-10.7,-70.3L291.8,136L634,136c13.8,0,19.9,9.1,22.9,18.3c9.2,21.4,55,79.5,61.2,81c7.6,4.6,24.4,4.6,41.2,4.6c16.8,0,24.5,-1.6,32.1,-4.6L716.5,1.5Z" 
	id="Tc1_54"
	 />

	<path d="M357.5,-27.4c-90.1,0,-122.2,26,-122.2,120.6c0,93.2,32.1,117.6,119.1,117.6c90.2,0,120.7,-24.4,120.7,-117.6C475.1,-1.4,444.6,-27.4,357.5,-27.4ZM297.9,287.2c-12.2,0,-19.8,4.6,-19.8,15.3l0,117.6c0,209.3,221.5,281.2,221.5,412.5c0,102.4,-36.7,174.2,-146.7,174.2c-125.3,0,-146.6,-110,-146.6,-184.9l-133,0L38.2,1017.5c0,16.8,119.2,140.6,326.9,140.6c229.2,0,343.8,-113.1,343.8,-323.9c0,-217,-272,-304.1,-272,-437l0,-93.2c0,-10.7,-6.1,-16.8,-21.3,-16.8Z" 
	id="Tc1_63"
	 />

	<path d="M246,-27.4c-90.2,0,-122.2,26,-122.2,120.6c0,93.2,32,117.6,119.1,117.6c90.2,0,120.7,-24.4,120.7,-117.6C363.6,-1.4,333.1,-27.4,246,-27.4ZM180.3,322.4c-12.2,0,-19.9,6.1,-19.9,13.7l-44.3,760.8c0,29.1,18.3,48.9,42.8,48.9l151.2,0c27.5,0,44.3,-12.2,45.9,-41.2L323.9,336.1c0,-9.2,-12.2,-13.7,-22.9,-13.7Z" 
	id="Tc1_56"
	 />

	<path d="M282.6,128.3c-90.1,0,-122.2,26,-122.2,120.7c0,93.2,32.1,117.7,119.2,117.7c90.1,0,120.7,-24.5,120.7,-117.7c0,-94.7,-30.6,-120.7,-117.7,-120.7Zm0,412.5c-90.1,0,-122.2,26,-122.2,120.7c0,93.2,32.1,117.7,119.2,117.7c90.1,0,120.7,-24.5,120.7,-117.7c0,-94.7,-30.6,-120.7,-117.7,-120.7Z" 
	id="Tc1_61"
	 />

	<path d="M273.5,-71.7c-12.2,0,-15.3,6.1,-15.3,22.9l-1.5,175.6c-88.6,6.1,-96.3,42.8,-96.3,123.8c0,93.2,32.1,117.6,119.2,117.6c90.1,0,120.7,-24.4,120.7,-117.6l0,-296.3c0,-18.4,-12.2,-26,-21.4,-26Zm9.1,612.5c-90.1,0,-122.2,26,-122.2,120.7c0,93.2,32.1,117.7,119.2,117.7c90.1,0,120.7,-24.5,120.7,-117.7c0,-94.7,-30.6,-120.7,-117.7,-120.7Z" 
	id="Tc1_62"
	 />

	<path d="M241.4,-71.7c-12.2,0,-15.3,6.1,-15.3,22.9l-1.5,175.6c-88.6,6.1,-96.3,42.8,-96.3,123.8c0,93.2,32.1,117.6,119.2,117.6c90.1,0,120.7,-24.4,120.7,-117.6l0,-296.3c0,-18.4,-12.2,-26,-21.4,-26Z" 
	id="Tc1_59"
	 />

	<path d="M282.6,3.1C192.5,3.1,160.4,29,160.4,123.8c0,93.1,32.1,117.6,119.2,117.6c90.1,0,120.7,-24.5,120.7,-117.6C400.3,29,369.7,3.1,282.6,3.1Z" 
	id="Tc1_60"
	 />

	<path d="M374.3,103.9c114.6,0,195.6,70.3,250.6,157.4c-71.8,62.6,-157.4,126.8,-246,184.8C261.3,383.5,195.6,328.5,195.6,244.4c0,-80.9,59.5,-140.5,178.7,-140.5Zm18.3,487.4C536.3,660,574.4,693.6,574.4,771.5c0,62.7,-55,132.9,-165,132.9C305.6,904.4,255.1,837.2,255.1,779.2c0,-56.6,50.5,-120.7,137.5,-187.9ZM383.5,-22.8C122.2,-22.8,45.8,117.6,45.8,236.8c0,139,87.1,218.5,220,291.8C160.4,612.6,111.5,692.1,111.5,788.3c0,105.5,85.6,229.2,299.5,229.2c249,0,307.1,-132.9,307.1,-238.3C718.1,655.4,632.5,579,507.2,511.8C566.8,470.6,627.9,426.3,684.4,380.4c23,64.2,36.7,123.8,41.3,160.4c3.1,9.2,15.3,10.7,27.5,10.7l213.9,0c15.3,0,19.8,-15.2,19.8,-36.6c0,-15.3,-3,-33.6,-18.3,-39.8L854,430.8c-19.8,-6.1,-35.1,-13.7,-38.2,-27.5C811.3,385,802.1,345.3,785.3,296.4C872.4,218.5,933.5,146.7,933.5,100.8L878.5,-3l-44.3,0c0,41.2,-42.8,102.3,-111.6,172.6C658.5,70.3,553.1,-22.8,383.5,-22.8Z" 
	id="Tc1_58"
	 />

	<path d="M597.4,134.4c0,0,111.5,0,198.6,177.3l0,359c0,0,-58.1,13.7,-90.2,13.7c0,0,-227.6,0,-227.6,-348.3c0,0,0,-201.7,119.2,-201.7Zm110,-446c0,0,-290.3,0,-464.5,186.4c0,0,-174.1,186.3,-174.1,498c0,0,0,311.6,186.3,521c0,0,186.4,210.8,463,210.8c0,0,239.8,0,388,-169.6c0,0,149.7,-171.1,149.7,-443.1c0,0,0,-215.4,-70.2,-336.1c0,0,-71.8,-120.7,-198.7,-120.7c0,0,-126.8,0,-181.8,152.8C805.1,187.9,689,35.1,569.9,35.1c0,0,-94.8,0,-149.8,78c0,0,-56.5,79.4,-56.5,212.3c0,0,0,197.1,102.4,320.9c0,0,103.9,125.2,265.8,125.2c0,0,59.6,0,174.2,-12.2l0,-385l1.5,-68.7c0,0,0,-105.5,19.9,-143.7c0,0,21.4,-38.1,77.9,-38.1c0,0,163.5,0,163.5,330c0,0,0,268.8,-116.2,415.5c0,0,-117.6,146.7,-333,146.7c0,0,-242.9,0,-401.8,-181.8c0,0,-160.4,-183.4,-160.4,-459.9c0,0,0,-275,146.6,-436.8c0,0,148.2,-162,398.8,-162c0,0,99.3,0,226.1,32.1l0,-88.6c0,0,-125.3,-30.6,-221.5,-30.6Z" 
	id="TT1_2"
	 />

	<path d="M527.1,427.8l16.8,195.5l-178.8,0L346.8,427.8ZM296.4,77.9L192.5,87.1c-12.2,1.5,-18.3,7.6,-16.8,24.4L191,285.7l-128.4,0c-16.8,0,-22.9,6.1,-22.9,18.3l0,105.4c0,9.2,7.7,18.4,26,18.4l139,0l16.8,195.5l-128.3,0c-16.8,0,-22.9,6.1,-22.9,18.4l0,105.4c0,9.2,7.6,18.3,26,18.3l137.5,0l18.3,197.1c1.4,15.2,7.7,21.6,17.9,21.6c1.1,0,2.3,-0.1,3.5,-0.2l103.9,-9.2c9.1,-1.5,18.3,-9.1,16.8,-27.5L377.4,765.4l178.7,0l18.3,197.1c1.4,15.2,7.8,21.6,18,21.6c1.1,0,2.2,-0.1,3.4,-0.2l103.9,-9.2c9.2,-1.5,18.4,-9.1,16.8,-27.5L699.7,765.4l126.8,0c18.4,0,26,-9.1,26,-18.3l0,-105.4c0,-12.3,-6.1,-18.4,-22.9,-18.4l-142.1,0L669.2,427.8l126.8,0c18.3,0,25.9,-9.2,25.9,-18.4l0,-105.4c0,-12.2,-6.1,-18.3,-22.9,-18.3l-142.1,0L640.1,102.4C638.6,84,627.9,77.9,618.8,77.9L514.9,87.1c-12.3,1.5,-18.4,7.6,-16.8,24.4l15.2,174.2l-178.7,0L317.8,102.4C316.3,84,305.6,77.9,296.4,77.9Z" 
	id="Tc1_57"
	 />

	<path d="M310.1,-157.3c-12.2,0,-18.3,6.1,-18.3,23l0,293.2C157.4,174.2,91.7,238.3,97.8,238.3L73.3,356l38.2,4.6L151.3,356c0,-42.8,71.8,-82.5,184.8,-82.5c79.5,0,166.5,27.5,166.5,97.8c0,88.6,-161.9,120.6,-215.4,142C233.8,534.7,97.8,583.6,97.8,722.6c0,97.8,87.1,168.1,194,197.1l0,297.9c0,16.8,6.1,23,18.3,23l105.5,0c9.1,0,18.3,-7.7,18.3,-26l0,-279.6c120.7,-4.6,163.5,-32.1,163.5,-36.7L609.6,770L576,766.9L545.4,770c0,36.7,-93.2,58.1,-154.3,58.1c-76.4,0,-151.2,-27.5,-151.2,-91.7c0,-74.9,126.8,-116.1,183.3,-136C469,585.1,641.7,528.6,641.7,385C641.7,267.4,554.6,187.9,433.9,163.5l0,-1.6l0,-293.2c0,-18.3,-9.2,-26,-18.3,-26Z" 
	id="Tc1_64"
	 />


</defs>

<!-- Any embedded fonts defined here -->
<style type="text/css" ><![CDATA[

@font-face {
	font-family: LucidaGrande_f2;
	src: url("fonts/LucidaGrande_f.woff") format("woff");
}

@font-face {
	font-family: RiterNeue-Italic_82;
	src: url("fonts/RiterNeue-Italic_8.woff") format("woff");
}

]]></style>

<title>riter_italic Page2</title>
</svg>
