<?xml version="1.0" encoding="UTF-8" standalone="no"?>
<!DOCTYPE svg PUBLIC "-//W3C//DTD SVG 1.1//EN"
"http://www.w3.org/Graphics/SVG/1.1/DTD/svg11.dtd">


<!-- Page 2 -->
<svg x="0" y="0" width="935" height="1210" version="1.1" xmlns="http://www.w3.org/2000/svg" xmlns:xlink="http://www.w3.org/1999/xlink"
style="display: block;margin-left: auto;margin-right: auto;">
<defs>
<clipPath id="c0_2"><path d="M0.5,1210.5L0.5,0.5l935,0l0,1210Z" /></clipPath>

<style type="text/css"><![CDATA[


.s1_2{
font-size: 110.00px;
font-family: RiterNeue-Regular_82;
fill: TRANSPARENT;
}
.s2_2{
font-size: 110.00px;
font-family: LucidaGrande_f2;
fill: TRANSPARENT;
}

]]></style>

</defs>
<path d="M0,0
L0,1210
L935,1210
L935,0 Z " 
fill="#FFFFFF" stroke="none" />
<g clip-path="url(#c0_2)">
<use 
xlink:href ="#Tc1_2" 
 transform="matrix(0.072 , 0, 0 , -0.072, 152.8 , 192.5)"
fill="#000000" 
stroke="none" 
 />
<use 
xlink:href ="#Tc1_4" 
 transform="matrix(0.072 , 0, 0 , -0.072, 237.6 , 192.5)"
fill="#000000" 
stroke="none" 
 />
<use 
xlink:href ="#Tc1_5" 
 transform="matrix(0.072 , 0, 0 , -0.072, 305.5 , 192.5)"
fill="#000000" 
stroke="none" 
 />
<use 
xlink:href ="#Tc1_6" 
 transform="matrix(0.072 , 0, 0 , -0.072, 383 , 192.5)"
fill="#000000" 
stroke="none" 
 />
<use 
xlink:href ="#Tc1_7" 
 transform="matrix(0.072 , 0, 0 , -0.072, 467.4 , 192.5)"
fill="#000000" 
stroke="none" 
 />
<use 
xlink:href ="#Tc1_8" 
 transform="matrix(0.072 , 0, 0 , -0.072, 530.2 , 192.5)"
fill="#000000" 
stroke="none" 
 />
<use 
xlink:href ="#Tc1_9" 
 transform="matrix(0.072 , 0, 0 , -0.072, 592 , 192.5)"
fill="#000000" 
stroke="none" 
 />
<use 
xlink:href ="#Tc1_10" 
 transform="matrix(0.072 , 0, 0 , -0.072, 152.8 , 323.9)"
fill="#000000" 
stroke="none" 
 />
</g>
<text 
x="152" 
y="192" 
dx="0,0,0,0,0,0,0,0" 
class="s1_2"
>ABCDEFG </text>

<g clip-path="url(#c0_2)">
<use 
xlink:href ="#Tc1_11" 
 transform="matrix(0.072 , 0, 0 , -0.072, 240.3 , 323.9)"
fill="#000000" 
stroke="none" 
 />
<use 
xlink:href ="#Tc1_12" 
 transform="matrix(0.072 , 0, 0 , -0.072, 280.2 , 323.9)"
fill="#000000" 
stroke="none" 
 />
<use 
xlink:href ="#Tc1_13" 
 transform="matrix(0.072 , 0, 0 , -0.072, 317.6 , 323.9)"
fill="#000000" 
stroke="none" 
 />
<use 
xlink:href ="#Tc1_14" 
 transform="matrix(0.072 , 0, 0 , -0.072, 392.5 , 323.9)"
fill="#000000" 
stroke="none" 
 />
<use 
xlink:href ="#Tc1_15" 
 transform="matrix(0.072 , 0, 0 , -0.072, 453.7 , 323.9)"
fill="#000000" 
stroke="none" 
 />
<use 
xlink:href ="#Tc1_16" 
 transform="matrix(0.072 , 0, 0 , -0.072, 563.8 , 323.9)"
fill="#000000" 
stroke="none" 
 />
<use 
xlink:href ="#Tc1_17" 
 transform="matrix(0.072 , 0, 0 , -0.072, 152.8 , 455.3)"
fill="#000000" 
stroke="none" 
 />
</g>
<text 
x="152" 
y="323" 
dx="0,0,0,0,0,0,0,0" 
class="s1_2"
>HIJKLMN </text>

<g clip-path="url(#c0_2)">
<use 
xlink:href ="#Tc1_18" 
 transform="matrix(0.072 , 0, 0 , -0.072, 240.2 , 455.3)"
fill="#000000" 
stroke="none" 
 />
<use 
xlink:href ="#Tc1_19" 
 transform="matrix(0.072 , 0, 0 , -0.072, 307.4 , 455.3)"
fill="#000000" 
stroke="none" 
 />
<use 
xlink:href ="#Tc1_20" 
 transform="matrix(0.072 , 0, 0 , -0.072, 394.8 , 455.3)"
fill="#000000" 
stroke="none" 
 />
<use 
xlink:href ="#Tc1_21" 
 transform="matrix(0.072 , 0, 0 , -0.072, 469.1 , 455.3)"
fill="#000000" 
stroke="none" 
 />
<use 
xlink:href ="#Tc1_22" 
 transform="matrix(0.072 , 0, 0 , -0.072, 528.2 , 455.3)"
fill="#000000" 
stroke="none" 
 />
<use 
xlink:href ="#Tc1_23" 
 transform="matrix(0.072 , 0, 0 , -0.072, 594 , 455.3)"
fill="#000000" 
stroke="none" 
 />
<use 
xlink:href ="#Tc1_24" 
 transform="matrix(0.072 , 0, 0 , -0.072, 152.8 , 586.7)"
fill="#000000" 
stroke="none" 
 />
</g>
<text 
x="152" 
y="455" 
dx="0,0,0,0,0,0,0,0" 
class="s1_2"
>OPQRSTU </text>

<g clip-path="url(#c0_2)">
<use 
xlink:href ="#Tc1_25" 
 transform="matrix(0.072 , 0, 0 , -0.072, 237 , 586.7)"
fill="#000000" 
stroke="none" 
 />
<use 
xlink:href ="#Tc1_26" 
 transform="matrix(0.072 , 0, 0 , -0.072, 356.2 , 586.7)"
fill="#000000" 
stroke="none" 
 />
<use 
xlink:href ="#Tc1_27" 
 transform="matrix(0.072 , 0, 0 , -0.072, 437.8 , 586.7)"
fill="#000000" 
stroke="none" 
 />
<use 
xlink:href ="#Tc1_28" 
 transform="matrix(0.072 , 0, 0 , -0.072, 509.4 , 586.7)"
fill="#000000" 
stroke="none" 
 />
<use 
xlink:href ="#Tc1_29" 
 transform="matrix(0.072 , 0, 0 , -0.072, 152.8 , 718.1)"
fill="#000000" 
stroke="none" 
 />
</g>
<text 
x="152" 
y="586" 
dx="0,0,0,0,0,0" 
class="s1_2"
>VWXYZ </text>

<g clip-path="url(#c0_2)">
<use 
xlink:href ="#Tc1_30" 
 transform="matrix(0.072 , 0, 0 , -0.072, 231 , 718.1)"
fill="#000000" 
stroke="none" 
 />
<use 
xlink:href ="#Tc1_31" 
 transform="matrix(0.072 , 0, 0 , -0.072, 306.1 , 718.1)"
fill="#000000" 
stroke="none" 
 />
<use 
xlink:href ="#Tc1_32" 
 transform="matrix(0.072 , 0, 0 , -0.072, 370.6 , 718.1)"
fill="#000000" 
stroke="none" 
 />
<use 
xlink:href ="#Tc1_33" 
 transform="matrix(0.072 , 0, 0 , -0.072, 450.2 , 718.1)"
fill="#000000" 
stroke="none" 
 />
<use 
xlink:href ="#Tc1_34" 
 transform="matrix(0.072 , 0, 0 , -0.072, 520 , 718.1)"
fill="#000000" 
stroke="none" 
 />
<use 
xlink:href ="#Tc1_35" 
 transform="matrix(0.072 , 0, 0 , -0.072, 564.8 , 718.1)"
fill="#000000" 
stroke="none" 
 />
<use 
xlink:href ="#Tc1_36" 
 transform="matrix(0.072 , 0, 0 , -0.072, 639.1 , 718.1)"
fill="#000000" 
stroke="none" 
 />
<use 
xlink:href ="#Tc1_37" 
 transform="matrix(0.072 , 0, 0 , -0.072, 152.8 , 849.4)"
fill="#000000" 
stroke="none" 
 />
</g>
<text 
x="152" 
y="718" 
dx="0,0,0,0,0,0,0,0,0" 
class="s1_2"
>abcdefgh </text>

<g clip-path="url(#c0_2)">
<use 
xlink:href ="#Tc1_38" 
 transform="matrix(0.072 , 0, 0 , -0.072, 189.7 , 849.4)"
fill="#000000" 
stroke="none" 
 />
<use 
xlink:href ="#Tc1_39" 
 transform="matrix(0.072 , 0, 0 , -0.072, 220.3 , 849.4)"
fill="#000000" 
stroke="none" 
 />
<use 
xlink:href ="#Tc1_40" 
 transform="matrix(0.072 , 0, 0 , -0.072, 292.7 , 849.4)"
fill="#000000" 
stroke="none" 
 />
<use 
xlink:href ="#Tc1_41" 
 transform="matrix(0.072 , 0, 0 , -0.072, 326.6 , 849.4)"
fill="#000000" 
stroke="none" 
 />
<use 
xlink:href ="#Tc1_42" 
 transform="matrix(0.072 , 0, 0 , -0.072, 442.5 , 849.4)"
fill="#000000" 
stroke="none" 
 />
<use 
xlink:href ="#Tc1_43" 
 transform="matrix(0.072 , 0, 0 , -0.072, 519.8 , 849.4)"
fill="#000000" 
stroke="none" 
 />
<use 
xlink:href ="#Tc1_44" 
 transform="matrix(0.072 , 0, 0 , -0.072, 592.6 , 849.4)"
fill="#000000" 
stroke="none" 
 />
<use 
xlink:href ="#Tc1_45" 
 transform="matrix(0.072 , 0, 0 , -0.072, 669.2 , 849.4)"
fill="#000000" 
stroke="none" 
 />
<use 
xlink:href ="#Tc1_46" 
 transform="matrix(0.072 , 0, 0 , -0.072, 152.8 , 980.8)"
fill="#000000" 
stroke="none" 
 />
</g>
<text 
x="152" 
y="849" 
dx="0,0,0,0,0,0,0,0,0,0" 
class="s1_2"
>ijklmnopq </text>

<g clip-path="url(#c0_2)">
<use 
xlink:href ="#Tc1_47" 
 transform="matrix(0.072 , 0, 0 , -0.072, 202.4 , 980.8)"
fill="#000000" 
stroke="none" 
 />
<use 
xlink:href ="#Tc1_48" 
 transform="matrix(0.072 , 0, 0 , -0.072, 253.1 , 980.8)"
fill="#000000" 
stroke="none" 
 />
<use 
xlink:href ="#Tc1_49" 
 transform="matrix(0.072 , 0, 0 , -0.072, 300.2 , 980.8)"
fill="#000000" 
stroke="none" 
 />
<use 
xlink:href ="#Tc1_50" 
 transform="matrix(0.072 , 0, 0 , -0.072, 379.4 , 980.8)"
fill="#000000" 
stroke="none" 
 />
<use 
xlink:href ="#Tc1_51" 
 transform="matrix(0.072 , 0, 0 , -0.072, 448.2 , 980.8)"
fill="#000000" 
stroke="none" 
 />
<use 
xlink:href ="#Tc1_52" 
 transform="matrix(0.072 , 0, 0 , -0.072, 548.8 , 980.8)"
fill="#000000" 
stroke="none" 
 />
<use 
xlink:href ="#Tc1_53" 
 transform="matrix(0.072 , 0, 0 , -0.072, 618.6 , 980.8)"
fill="#000000" 
stroke="none" 
 />
<use 
xlink:href ="#Tc1_54" 
 transform="matrix(0.072 , 0, 0 , -0.072, 691.4 , 980.8)"
fill="#000000" 
stroke="none" 
 />
<use 
xlink:href ="#Tc1_63" 
 transform="matrix(0.072 , 0, 0 , -0.072, 152.8 , 1136.7)"
fill="#000000" 
stroke="none" 
 />
</g>
<text 
x="152" 
y="980" 
dx="0,0,0,0,0,0,0,0,0,0" 
class="s1_2"
>rstuvwxyz </text>

<g clip-path="url(#c0_2)">
<use 
xlink:href ="#Tc1_56" 
 transform="matrix(0.072 , 0, 0 , -0.072, 207.4 , 1136.7)"
fill="#000000" 
stroke="none" 
 />
<use 
xlink:href ="#Tc1_61" 
 transform="matrix(0.072 , 0, 0 , -0.072, 242.1 , 1136.7)"
fill="#000000" 
stroke="none" 
 />
<use 
xlink:href ="#Tc1_62" 
 transform="matrix(0.072 , 0, 0 , -0.072, 282.1 , 1136.7)"
fill="#000000" 
stroke="none" 
 />
<use 
xlink:href ="#Tc1_59" 
 transform="matrix(0.072 , 0, 0 , -0.072, 322.3 , 1136.7)"
fill="#000000" 
stroke="none" 
 />
<use 
xlink:href ="#Tc1_60" 
 transform="matrix(0.072 , 0, 0 , -0.072, 361.8 , 1136.7)"
fill="#000000" 
stroke="none" 
 />
<use 
xlink:href ="#Tc1_58" 
 transform="matrix(0.072 , 0, 0 , -0.072, 402.7 , 1136.7)"
fill="#000000" 
stroke="none" 
 />
<use 
xlink:href ="#TT1_2" 
 transform="matrix(0.072 , 0, 0 , -0.072, 476.8 , 1136.7)"
fill="#000000" 
stroke="none" 
 />
</g>
<text 
x="152" 
y="1136" 
dx="0,0,0,0,0,0,0" 
class="s1_2"
>?!:;,.&amp;</text>

<g clip-path="url(#c0_2)">
<use 
xlink:href ="#Tc1_57" 
 transform="matrix(0.072 , 0, 0 , -0.072, 571.3 , 1136.7)"
fill="#000000" 
stroke="none" 
 />
</g>
<text 
x="476" 
y="1136" 
dx="0" 
class="s2_2"
>@</text>

<g clip-path="url(#c0_2)">
<use 
xlink:href ="#Tc1_64" 
 transform="matrix(0.072 , 0, 0 , -0.072, 635.2 , 1136.7)"
fill="#000000" 
stroke="none" 
 />
</g>
<text 
x="571" 
y="1136" 
dx="0,0" 
class="s1_2"
>#$</text>


<defs>
	<path d="M739.4,452.2L560.7,881.5L417.1,452.2ZM22.9,0c-1.5,9.2,-3,22.9,-3,36.7c0,15.2,0,32.1,3,41.2c1.5,6.1,88.6,35.2,96.3,41.3c6.1,4.6,12.2,12.2,16.8,22.9l351.4,927.3l163.4,0L1038.9,142.1c4.6,-10.7,10.7,-18.3,16.8,-22.9c7.6,-6.1,94.7,-35.2,96.2,-41.3c3.1,-9.1,3.1,-26,3.1,-41.2C1155,22.9,1153.5,9.2,1151.9,0L782.2,0c-1.5,10.7,-4.6,24.4,-4.6,38.2c0,15.3,4.6,36.7,9.2,39.7c6.1,3.1,67.2,32.1,82.5,41.3c3.1,1.5,3.1,18.3,0,21.4L797.5,313.2l-427.8,0L313.2,142.1c-3.1,-7.7,-1.5,-19.9,1.5,-22.9C333.1,106.9,388.1,81,394.2,77.9c4.6,-3,9.1,-24.4,9.1,-39.7c0,-13.8,-3,-27.5,-4.5,-38.2Z" 
	id="Tc1_2"
	 />

	<path d="M443.1,125.3c157.3,0,247.5,74.8,247.5,203.2c0,125.3,-113.1,181.8,-230.7,181.8c-29.1,0,-70.3,0,-103.9,-1.5l3,-362.1c0,-16.8,24.5,-21.4,84.1,-21.4Zm6.1,502.6c126.8,0,212.3,82.5,212.3,171.1c0,100.9,-68.7,165,-190.9,165c-29.1,0,-76.4,-4.6,-117.7,-15.2L356,631c38.2,-1.6,64.1,-3.1,93.2,-3.1ZM90.1,0c-3,9.2,-4.5,18.3,-4.5,38.2c0,19.9,0,27.5,4.5,36.7c3.1,6.1,65.7,27.5,87.1,38.2c10.7,4.5,19.9,10.7,19.9,27.5l0,786.8c0,10.7,-6.1,19.8,-16.8,24.4c-22.9,13.8,-87.1,36.7,-90.2,42.8c-4.5,9.2,-4.5,16.8,-4.5,36.7c0,19.8,1.5,29,4.5,38.1c23,6.2,275,12.3,403.4,12.3c210.8,0,319.3,-96.3,319.3,-278.1c0,-77.9,-77.9,-181.8,-174.2,-223C756.3,553.1,847.9,469,847.9,334.6C847.9,148.2,708.9,0,504.2,0Z" 
	id="Tc1_4"
	 />

	<path d="M647.8,-27.4C330,-27.4,76.4,181.8,76.4,519.4c0,382,304,580.6,597.4,580.6c139,0,226.1,-19.9,330,-84c7.6,0,0,-264.3,-4.6,-265.9C990,745.6,980.8,745.6,961,745.6c-19.9,0,-27.5,0,-36.7,4.5c-6.1,3.1,-29,134.5,-38.2,151.3c-45.8,38.2,-96.2,51.9,-187.9,51.9c-233.8,0,-455.3,-131.4,-455.3,-443c0,-203.2,181.8,-391.1,404.9,-391.1c136,0,265.8,45.8,305.5,84L1019,113.1C977.8,67.2,870.8,-27.4,647.8,-27.4Z" 
	id="Tc1_5"
	 />

	<path d="M473.4,111.5c16.2,0,32.8,0,49.1,0c195.6,0,403.3,139.1,403.3,450.7c0,239.9,-142,394.2,-383.4,394.2c-133,0,-210.9,-9.2,-210.9,-27.5l0,-776.1c0,-16.8,4.6,-27.5,18.4,-32.1c15.4,-8.3,66.9,-9.2,123.5,-9.2Zm69,-126.7C429.3,-15.2,354.4,0,61.1,0c-3,9.2,-4.6,18.3,-4.6,38.2c0,19.9,0,27.5,4.6,36.7c3.1,6.1,65.7,27.5,87.1,38.2c10.7,4.5,19.9,10.7,19.9,27.5l0,786.8c0,10.7,-6.2,19.8,-16.8,24.4c-23,13.8,-87.1,36.7,-90.2,42.8c-4.6,9.2,-4.6,16.8,-4.6,36.7c0,19.8,1.6,29,4.6,38.1c58.1,0,322.4,18.4,481.3,18.4c311.6,0,563.7,-197.1,563.7,-534.7c0,-382,-308.6,-568.3,-563.7,-568.3Z" 
	id="Tc1_6"
	 />

	<path d="M71.8,0c-3,9.2,-4.6,18.3,-4.6,38.2c0,19.9,0,27.5,4.6,36.7c3.1,6.1,65.7,27.5,87.1,38.2c10.7,4.5,19.9,10.7,19.9,27.5l0,786.8c0,10.7,-6.2,19.8,-16.9,24.4c-22.9,13.8,-87,36.7,-90.1,42.8c-4.6,9.2,-4.6,16.8,-4.6,36.7c0,19.8,1.6,29,4.6,38.1l702.8,0c7.6,0,16.8,-247.5,12.2,-249c-9.2,-4.6,-18.3,-4.6,-38.2,-4.6c-19.8,0,-27.5,0,-36.7,4.6c-6.1,3.1,-33.6,76.4,-42.7,93.2c-4.6,12.2,-13.8,18.3,-24.5,18.3l-284.1,0c-12.3,-4.5,-21.4,-13.7,-21.4,-24.4l0,-287.2l278,0c3.1,1.5,6.1,6.1,7.7,10.7c7.6,12.2,27.5,56.5,32,59.6c7.7,3,13.8,3,29.1,3c15.3,0,21.4,-1.5,29,-3l0,-281.2c-7.6,-1.5,-13.7,-3,-29,-3c-15.3,0,-21.4,0,-29.1,3c-4.5,3.1,-21.3,52,-32,70.3c-1.6,3.1,-3.1,6.1,-6.1,7.7l-279.6,0l0,-334.6c0,-10.7,9.1,-19.9,21.4,-24.5l299.4,0c10.7,0,19.9,6.1,24.4,18.4c9.2,16.8,36.7,90.1,42.8,93.2c9.2,4.5,16.8,4.5,36.7,4.5c8.8,0,15.8,0.6,21.6,0.6c7.2,0,12.3,-0.9,16.6,-5.1C805.1,236.8,789.9,0,780.7,0Z" 
	id="Tc1_7"
	 />

	<path d="M82.5,0C79.4,9.2,77.9,18.3,77.9,38.2c0,19.9,0,27.5,4.6,36.7c3.1,6.1,56.5,29,79.4,42.7c10.7,4.6,16.9,13.8,16.9,24.5l0,786.8c0,16.8,-9.2,22.9,-19.9,27.5c-21.4,10.7,-84,32.1,-87.1,38.2c-4.6,9.2,-4.6,16.8,-4.6,36.7c0,19.8,1.6,29,4.6,38.1l705.8,0c9.2,0,24.5,-236.8,21.4,-239.8c-4.2,-4.3,-9.4,-5.2,-16.6,-5.2c-5.7,0,-12.7,0.6,-21.6,0.6c-19.8,0,-27.5,0,-36.6,4.6c-6.1,3,-33.6,76.4,-42.8,93.2c-4.6,12.2,-13.8,18.3,-24.5,18.3l-296.3,0c-12.3,-4.6,-21.4,-13.7,-21.4,-24.4l1.5,-342.3l281.1,0c3.1,1.6,6.1,6.2,7.6,10.7c7.7,12.3,27.5,56.6,32.1,59.6c7.7,3.1,13.8,3.1,29.1,3.1c15.2,0,21.3,-1.5,29,-3.1l0,-281.1c-7.7,-1.5,-13.8,-3,-29,-3c-15.3,0,-21.4,0,-29.1,3c-4.6,3.1,-21.4,52,-32.1,70.3c-1.5,3,-3,6.1,-6.1,7.6l-282.6,0l1.5,-299.4c0,-10.7,6.1,-19.9,18.4,-24.5C377.4,108.5,450.7,81,453.8,74.9c4.5,-9.2,4.5,-16.8,4.5,-36.7c0,-19.9,-1.5,-29,-4.5,-38.2Z" 
	id="Tc1_8"
	 />

	<path d="M623.3,-27.4C305.6,-27.4,67.2,181.8,67.2,511.8c0,389.6,288.8,588.2,519.5,589.7c204.7,0,291.8,-27.5,398.7,-94.7c7.7,0,0,-264.3,-4.6,-265.8c-9.1,-4.6,-24.4,-4.6,-44.3,-4.6c-19.8,0,-33.6,0,-42.7,4.6c-6.2,3,-29.1,139,-38.2,155.8C820.4,927.4,741,962.5,611.1,962.5C440,961,230.7,821.9,230.7,502.6c0,-195.5,169.6,-388,392.6,-388c136,0,203.2,30.5,243,68.7l0,169.6c0,10.7,-6.2,30.6,-16.9,35.2c-21.3,10.7,-183.3,36.6,-186.3,42.7c-4.6,9.2,-4.6,23,-4.6,42.8c0,19.9,1.5,39.7,4.6,48.9l359,0L1014.4,91.7C973.2,45.8,846.4,-27.4,623.3,-27.4Z" 
	id="Tc1_9"
	 />

	<path d="M84,0C81,9.2,79.4,18.3,79.4,38.2c0,19.9,0,27.5,4.6,36.7c3.1,6.1,65.7,27.5,87.1,38.2c10.7,4.5,19.9,10.7,19.9,27.5l0,786.8c0,10.7,-6.1,19.8,-16.8,24.4C151.3,965.6,87.1,988.5,84,994.6c-4.6,9.2,-4.6,16.8,-4.6,36.7c0,19.8,1.6,29,4.6,38.1l382,0c3,-9.1,4.6,-18.3,4.6,-38.1c0,-19.9,0,-27.5,-4.6,-36.7C462.9,988.5,389.6,961,372.8,951.8c-12.2,-4.6,-18.4,-13.7,-18.4,-24.4l0,-276.6l481.3,0l0,276.6c0,10.7,-6.1,19.8,-16.8,24.4c-21.4,10.7,-91.7,36.7,-94.7,42.8c-4.6,9.2,-4.6,16.8,-4.6,36.7c0,19.8,1.5,29,4.6,38.1l381.9,0c3.1,-9.1,4.6,-18.3,4.6,-38.1c0,-19.9,0,-27.5,-4.6,-36.7c-3,-6.1,-71.8,-33.6,-88.6,-42.8c-12.2,-4.6,-18.3,-13.7,-18.3,-24.4l0,-782.3c0,-16.8,4.6,-27.5,18.3,-32c16.8,-9.2,85.6,-32.1,88.6,-38.2c4.6,-9.2,4.6,-16.8,4.6,-36.7c0,-19.9,-1.5,-29,-4.6,-38.2L724.2,0c-3.1,9.2,-4.6,18.3,-4.6,38.2c0,19.9,0,27.5,4.6,36.7c3,6.1,70.2,30.5,91.6,38.2c10.7,3,19.9,10.7,19.9,27.5l0,368.2l-481.3,0l0,-363.7c0,-16.8,4.6,-27.5,18.4,-32C389.6,103.9,462.9,81,466,74.9c4.6,-9.2,4.6,-16.8,4.6,-36.7C470.6,18.3,469,9.2,466,0Z" 
	id="Tc1_10"
	 />

	<path d="M87.1,0C84,9.2,82.5,18.3,82.5,38.2c0,19.9,0,27.5,4.6,36.7c3,6.1,65.7,27.5,87.1,38.2c10.7,4.5,19.8,10.7,19.8,27.5l0,786.8c0,10.7,-6.1,19.8,-16.8,24.4c-22.9,13.8,-87.1,36.7,-90.1,42.8c-4.6,9.2,-4.6,16.8,-4.6,36.7c0,19.8,1.5,29,4.6,38.1l374.3,0c3,-9.1,4.6,-18.3,4.6,-38.1c0,-19.9,0,-27.5,-4.6,-36.7C458.3,988.5,392.6,961,375.8,951.8c-12.2,-4.6,-18.3,-13.7,-18.3,-24.4l0,-782.3c0,-16.8,4.6,-27.5,18.3,-32C392.6,103.9,461.4,81,464.4,74.9C469,65.7,469,58.1,469,38.2C469,18.3,467.5,9.2,464.4,0Z" 
	id="Tc1_11"
	 />

	<path d="M-80.9,-235.2l0,107c119.1,0,261.2,84,261.2,268.8l0,786.8c0,10.7,-6.1,19.8,-18.4,24.4C145.1,961,61.1,988.5,58.1,994.6c-4.6,9.2,-4.6,16.8,-4.6,36.7c0,19.8,1.5,29,4.6,38.1l404.8,0c3.1,-9.1,4.6,-18.3,4.6,-38.1c0,-19.9,0,-27.5,-4.6,-36.7c-3,-6.1,-82.5,-29,-105.4,-42.8c-10.7,-4.6,-16.8,-13.7,-16.8,-24.4l0,-774.6c0,-261.2,-226.1,-388,-421.6,-388Z" 
	id="Tc1_12"
	 />

	<path d="M79.4,0c-3,9.2,-4.5,18.3,-4.5,38.2c0,19.9,0,27.5,4.5,36.7c3.1,6.1,65.7,27.5,87.1,38.2c10.7,4.5,19.9,10.7,19.9,27.5l0,786.8c0,10.7,-6.1,19.8,-16.8,24.4c-22.9,13.8,-87.1,36.7,-90.2,42.8c-4.5,9.2,-4.5,16.8,-4.5,36.7c0,19.8,1.5,29,4.5,38.1l374.4,0c3,-9.1,4.5,-18.3,4.5,-38.1c0,-19.9,0,-27.5,-4.5,-36.7C450.7,988.5,385,961,368.2,951.8C356,947.2,349.9,938.1,349.9,927.4l0,-403.4C478.2,667.6,695.1,933.5,695.1,941.1c0,10.7,-6.1,18.3,-16.8,22.9c-22.9,13.8,-50.4,24.5,-53.4,30.6c-4.6,9.2,-4.6,16.8,-4.6,36.7c0,19.8,1.5,29,4.6,38.1l345.2,0c3.1,-9.1,4.6,-21.3,4.6,-41.2c0,-19.9,0,-36.7,-4.6,-45.8C965.6,971.7,907.5,977.8,835.7,906C826.5,896.8,719.6,765.4,603.5,624.9L906,140.6c9.1,-13.8,16.8,-23,30.5,-27.5c16.8,-9.2,85.6,-32.1,88.6,-38.2c4.6,-9.2,4.6,-16.8,4.6,-36.7c0,-19.9,-1.5,-29,-4.6,-38.2l-223,0c-7.7,1.5,-13.8,6.1,-18.3,13.8L501.1,504.2C444.6,436.9,391.1,374.3,349.9,330l0,-184.9c0,-16.8,4.5,-27.5,18.3,-32C385,103.9,453.8,81,456.8,74.9c4.6,-9.2,4.6,-16.8,4.6,-36.7c0,-19.9,-1.5,-29,-4.6,-38.2Z" 
	id="Tc1_13"
	 />

	<path d="M71.8,0c-3,9.2,-4.6,18.3,-4.6,38.2c0,19.9,0,27.5,4.6,36.7c3.1,6.1,65.7,27.5,87.1,38.2c10.7,4.5,19.9,10.7,19.9,27.5l0,786.8c0,10.7,-6.2,19.8,-16.9,24.4c-22.9,13.8,-87,36.7,-90.1,42.8c-4.6,9.2,-4.6,16.8,-4.6,36.7c0,19.8,1.6,29,4.6,38.1l374.3,0c3.1,-9.1,4.6,-18.3,4.6,-38.1c0,-19.9,0,-27.5,-4.6,-36.7c-3,-6.1,-68.7,-33.6,-85.5,-42.8c-12.3,-4.6,-18.4,-13.7,-18.4,-24.4l-3,-774.6c0,-10.7,9.1,-19.9,21.4,-24.5l296.3,0c10.7,0,19.9,6.1,24.5,18.4c9.2,16.8,36.7,90.1,42.8,93.2c9.1,4.5,16.8,4.5,36.6,4.5c8.9,0,15.9,0.6,21.6,0.6c7.2,0,12.4,-0.9,16.6,-5.1C802.1,236.8,786.8,0,777.6,0Z" 
	id="Tc1_14"
	 />

	<path d="M58.1,0C55,9.2,53.5,18.3,53.5,38.2c0,19.9,0,27.5,4.6,36.7c3,6.1,65.7,27.5,87,38.2c10.7,4.5,19.9,10.7,19.9,27.5l85.6,783.7c0,16.8,-4.6,26,-18.4,32.1c-16.8,7.6,-91.6,32.1,-94.7,38.2c-4.6,9.2,-4.6,16.8,-4.6,36.7c0,19.8,1.5,29,4.6,38.1l284.2,0L777.6,247.5l339.2,821.9l285.7,0c3.1,-9.1,4.6,-18.3,4.6,-38.1c0,-19.9,0,-27.5,-4.6,-36.7c-3.1,-6.1,-77.9,-30.6,-94.7,-38.2c-13.8,-6.1,-18.4,-15.3,-18.4,-32.1l78,-783.7c0,-16.8,9.1,-23,19.8,-27.5c21.4,-10.7,84.1,-32.1,87.1,-38.2c4.6,-9.2,4.6,-16.8,4.6,-36.7c0,-19.9,-1.5,-29,-4.6,-38.2L1093.9,0c-3.1,9.2,-4.6,18.3,-4.6,38.2c0,19.9,0,27.5,4.6,36.7c3,6.1,77.9,30.5,94.7,38.2c13.8,6.1,18.3,15.2,18.3,32l-56.5,631L823.5,10.7l-120.7,0l-330,766.9L319.3,145.1c-1.5,-16.8,4.6,-25.9,18.3,-32C354.4,105.4,429.3,81,432.4,74.9c4.5,-9.2,4.5,-16.8,4.5,-36.7c0,-19.9,-1.5,-29,-4.5,-38.2Z" 
	id="Tc1_15"
	 />

	<path d="M76.4,0C73.3,9.2,71.8,18.3,71.8,38.2c0,19.9,0,27.5,4.6,36.7c3,6.1,65.7,27.5,87.1,38.2c10.7,4.5,19.8,10.7,19.8,27.5l0,783.7c0,16.8,-4.5,26,-18.3,32.1C148.2,964,73.3,988.5,70.3,994.6c-4.6,9.2,-4.6,16.8,-4.6,36.7c0,19.8,1.5,29,4.6,38.1l275,0L912.1,284.2l0,643.2c0,16.8,-9.2,22.9,-19.9,27.5c-21.4,10.7,-105.4,32,-108.4,38.2c-4.6,9.1,-4.6,16.8,-4.6,36.6c0,19.9,1.5,29.1,4.6,38.2l388,0c3.1,-9.1,4.6,-18.3,4.6,-38.2c0,-19.8,0,-27.5,-4.6,-36.6c-3,-6.2,-77.9,-30.6,-94.7,-38.2c-13.8,-6.1,-19.9,-15.3,-18.3,-32.1L1058.8,0l-136,0L330,800.6l4.6,-655.5c-1.5,-16.8,4.6,-25.9,18.3,-32C369.7,105.4,455.3,81,458.3,74.9c4.6,-9.2,4.6,-16.8,4.6,-36.7c0,-19.9,-1.5,-29,-4.6,-38.2Z" 
	id="Tc1_16"
	 />

	<path d="M609.6,119.2c177.2,0,360.5,135.9,360.5,409.4c0,297.9,-203.2,414,-371.2,414C430.8,942.6,249,808.2,249,543.9C249,246,462.9,119.2,609.6,119.2Zm0,-146.6C374.3,-27.4,82.5,139,82.5,545.4c0,346.8,261.3,543.9,513.3,543.9c264.3,0,537.8,-152.8,537.8,-560.7c0,-377.3,-253.6,-556,-524,-556Z" 
	id="Tc1_17"
	 />

	<path d="M409.4,470.6c125.3,0,284.2,79.4,284.2,261.2c0,143.6,-106.9,217,-221.5,217c-41.3,0,-113.1,-3.1,-154.3,-7.7l1.5,-466c21.4,-3,53.5,-4.5,90.1,-4.5ZM70.3,-9.1C67.2,0,65.7,9.2,65.7,29c0,19.9,0,27.5,4.6,36.7c3,6.1,50.4,27.5,71.8,38.2c10.7,4.6,19.8,10.7,19.8,27.5l0,786.8c0,10.7,-6.1,19.9,-16.8,24.4c-22.9,13.8,-87,36.7,-90.1,42.8c-4.6,9.2,-4.6,16.8,-4.6,36.7c0,19.8,1.5,29,4.6,38.2c33.6,6.1,261.3,18.3,389.6,18.3c236.8,0,420.1,-87.1,420.1,-323.9c0,-310.1,-264.3,-418.6,-440,-418.6c-47.3,0,-82.5,4.6,-105.4,9.2L320.8,136c0,-16.8,9.2,-27.5,23,-32.1c16.8,-9.2,88.6,-32.1,91.6,-38.2C440,56.5,440,48.9,440,29C440,9.2,438.5,0,435.4,-9.1Z" 
	id="Tc1_18"
	 />

	<path d="M609.6,114.6c177.2,0,362.1,140.5,362.1,414c0,297.9,-206.3,418.6,-374.3,418.6c-168.1,0,-353,-139,-353,-403.3C244.4,246,455.3,114.6,609.6,114.6Zm528.6,-349c-8,0,-16,0.7,-24.4,2.3C977.8,-189.3,572.9,-39.6,469,-3C271.9,48.9,81,216.9,81,545.4c0,346.8,261.2,543.9,513.3,543.9c264.3,0,537.8,-152.8,537.8,-560.7C1132.1,239.9,979.3,71.8,789.9,7.6c110,-51.8,412.5,-102.2,579,-108.3c12.2,-1.6,10.7,-23,10.7,-42.8c0,-18.3,-6.1,-29,-12.2,-33.6l-204.8,-55c-8.4,-1.6,-16.4,-2.3,-24.4,-2.3Z" 
	id="Tc1_19"
	 />

	<path d="M475.1,531.7c125.3,0,250.6,80.9,250.6,227.6c0,136,-110,191,-224.6,191c-12.2,0,-26.6,0.1,-41.8,0.1c-38.1,0,-81.9,-0.8,-112.5,-6.2l3.1,-409.5c29,-1.5,82.5,-3,125.2,-3ZM84,0C81,9.2,79.4,18.3,79.4,38.2c0,19.9,0,27.5,4.6,36.7c3.1,6.1,65.7,27.5,87.1,38.2c10.7,4.5,19.9,10.7,19.9,27.5l0,786.8c0,10.7,-6.1,19.8,-16.8,24.4C151.3,965.6,87.1,988.5,84,994.6c-4.6,9.2,-4.6,16.8,-4.6,36.7c0,19.8,1.6,29,4.6,38.1c22.9,6.2,261.3,12.3,389.6,12.3C710.4,1081.7,880,986.9,880,770C880,614.2,789.9,501.1,676.8,441.5C756.3,322.4,866.3,154.3,876.9,140.6c10.7,-12.3,19.9,-23,33.7,-27.5c21.3,-7.7,85.5,-32.1,91.6,-38.2c7.7,-7.7,9.2,-16.8,9.2,-36.7c0,-19.9,-1.5,-29,-4.6,-38.2l-223,0C776.1,1.5,770,6.1,765.4,13.8l-249,381.9l-19.9,0c-55,0,-111.5,0,-146.6,6.1l0,-256.7c0,-16.8,9.1,-27.5,22.9,-32C389.6,103.9,447.6,81,450.7,74.9c4.6,-9.2,4.6,-16.8,4.6,-36.7c0,-19.9,-1.5,-29,-4.6,-38.2Z" 
	id="Tc1_20"
	 />

	<path d="M389.6,-9.1C189.4,-9.1,73.3,81,81,81l0,241.4c0,3,19.8,9.1,42.8,9.1c22.9,0,41.2,-6.1,41.2,-9.1c0,-107,59.6,-191,210.8,-191c88.6,1.5,206.3,45.8,206.3,158.9C582.1,414,375.8,472.1,311.7,504.2C250.6,534.7,81,589.7,81,783.8c0,184.8,204.7,300.9,380.4,300.9c165,0,239.9,-56.5,239.9,-64.1l0,-212.4c0,-4.6,-19.9,-9.2,-38.2,-9.2c-18.4,0,-36.7,6.1,-36.7,9.2c0,56.5,-33.6,139,-180.3,139C357.5,947.2,249,887.6,249,799C249,669.2,418.6,632.5,484.3,605C536.3,580.6,744,514.9,744,301C744,113.1,576,-9.1,389.6,-9.1Z" 
	id="Tc1_21"
	 />

	<path d="M264.3,0c-3,9.2,-4.6,18.3,-4.6,38.2c0,19.9,0,27.5,4.6,36.7l1.5,1.5c7.7,7.6,68.8,32.1,84.1,41.2c12.2,4.6,18.3,13.8,18.3,24.5l0,768.5c0,10.7,-9.2,19.8,-21.4,24.4l-180.3,0c-7.6,0,-15.2,-6.1,-18.3,-18.3c-7.6,-18.4,-27.5,-94.8,-32.1,-97.8c-7.6,-4.6,-29,-4.6,-44.3,-4.6c-6.8,0,-12.1,-0.6,-16.4,-0.6c-5.4,0,-9.2,0.9,-12.6,5.2c-1.5,3,9.1,253.6,16.8,253.6l789.8,0c6.2,0,18.4,-250.6,15.3,-253.6c-2.5,-4.3,-6.5,-5.2,-12.1,-5.2c-4.5,0,-10.1,0.6,-16.9,0.6c-15.3,0,-35.1,0,-42.8,4.6c-4.6,3,-26,79.4,-32.1,97.8c-3,12.2,-10.7,18.3,-18.3,18.3l-186.4,0c-12.2,-4.6,-21.4,-13.7,-21.4,-24.4l0,-768.5c0,-10.7,6.1,-19.9,18.4,-24.5C569.9,108.5,635.6,81,638.6,74.9c4.6,-9.2,4.6,-16.8,4.6,-36.7c0,-19.9,-1.5,-29,-4.6,-38.2Z" 
	id="Tc1_22"
	 />

	<path d="M546.9,-21.3c-328.4,0,-398.7,213.8,-398.7,563.7l0,385c0,10.7,-7.6,19.8,-18.3,24.4c-26,13.8,-96.3,36.7,-99.3,42.8c-6.2,9.2,-6.2,16.8,-6.2,36.7c0,19.8,1.6,29,6.2,38.1l414,0c3,-9.1,4.6,-18.3,4.6,-38.1c0,-19.9,0,-27.5,-4.6,-36.7C441.5,988.5,356,961,334.6,951.8c-12.2,-4.6,-19.9,-13.7,-19.9,-24.4l0,-392.7C314.7,301,343.8,122.2,550,122.2c206.3,0,258.2,177.2,258.2,409.5l0,395.7c0,10.7,-6.1,19.8,-18.3,24.4c-26,10.7,-107,36.7,-111.6,42.8c-4.5,9.2,-4.5,16.8,-4.5,36.7c0,19.8,1.5,29,4.5,38.1l415.6,0c3,-9.1,4.6,-18.3,4.6,-38.1c0,-19.9,0,-27.5,-4.6,-36.7c-4.6,-6.1,-79.5,-33.6,-99.3,-42.8c-12.2,-4.6,-19.9,-13.7,-19.9,-24.4l0,-377.4C974.7,192.5,883.1,-21.3,546.9,-21.3Z" 
	id="Tc1_23"
	 />

	<path d="M493.5,0C404.9,232.2,140.6,916.7,136,927.4c-4.6,10.7,-10.7,18.3,-16.8,22.9c-7.7,6.1,-94.8,35.1,-96.3,41.2c-3,9.2,-3,26,-3,41.3c0,13.7,1.5,27.5,3,36.6l378.9,0c1.5,-10.6,4.6,-24.4,4.6,-38.1c0,-15.3,-4.6,-36.7,-9.2,-39.8c-6.1,-3,-67.2,-32.1,-82.5,-41.2c-3,-1.5,-3,-18.4,0,-21.4L588.2,194L858.6,927.4c3.1,7.6,1.5,19.8,-1.5,22.9c-18.3,12.2,-73.3,38.2,-79.5,41.2c-4.5,3.1,-9.1,24.5,-9.1,39.8c0,13.7,3,27.5,4.6,38.1l378.8,0c1.6,-9.1,3.1,-22.9,3.1,-36.6c0,-15.3,0,-32.1,-3.1,-41.3c-1.5,-6.1,-88.6,-35.1,-96.2,-41.2c-6.1,-4.6,-12.2,-12.2,-16.8,-22.9L656.9,0Z" 
	id="Tc1_24"
	 />

	<path d="M392.6,0L134.4,927.4c-4.5,10.7,-10.6,18.3,-16.8,22.9c-7.6,6.1,-94.7,35.1,-96.2,41.2c-3.1,9.2,-3.1,26,-3.1,41.3c0,13.7,1.6,27.5,3.1,36.6l388,0c1.6,-10.6,4.6,-24.4,4.6,-38.1c0,-15.3,-4.6,-36.7,-9.1,-39.8c-6.1,-3,-76.4,-32.1,-91.7,-41.2c-3.1,-1.5,-3.1,-18.4,0,-21.4L491.9,212.4l230.7,844.8l188,0L1171.8,223.1l168.1,704.3c3,7.6,1.5,19.8,-1.6,22.9c-18.3,12.2,-91.6,38.2,-97.7,41.2c-4.6,3.1,-9.2,24.5,-9.2,39.8c0,13.7,3,27.5,4.6,38.1l397.2,0c1.5,-9.1,3.1,-22.9,3.1,-36.6c0,-15.3,0,-32.1,-3.1,-41.3c-1.5,-6.1,-88.6,-35.1,-96.3,-41.2c-6.1,-4.6,-12.2,-12.2,-16.8,-22.9L1254.3,0L1072.5,0L806.7,854L582.1,0Z" 
	id="Tc1_25"
	 />

	<path d="M32.1,-1.4C30.6,7.6,29,21.4,29,35.1c0,15.3,0,32.1,3.1,41.3c1.5,6.1,97.8,35.1,105.4,41.2c6.1,4.6,10.7,12.3,19.9,21.4c13.7,13.8,212.3,281.1,307,409.5C372.8,670.7,178.8,921.3,172.6,930.4c-6.1,9.2,-15.2,15.3,-21.3,19.9c-7.7,6.1,-93.2,35.1,-94.8,41.2c-3,9.2,-3,26,-3,41.3c0,13.7,1.5,27.5,3,36.6l403.4,0c1.5,-10.6,4.5,-24.4,4.5,-38.1c0,-15.3,-4.5,-36.7,-9.1,-39.8c-6.1,-3,-64.2,-32.1,-79.5,-41.2c-3,-1.5,-4.5,-9.2,4.6,-22.9c6.1,-7.7,129.9,-171.1,194,-259.8c73.4,93.2,189.5,246,197.1,259.8c4.6,7.6,1.6,19.8,-1.5,22.9c-18.3,12.2,-73.3,38.2,-79.4,41.2c-4.6,3.1,-9.2,24.5,-9.2,39.8c0,13.7,3,27.5,4.6,38.1l388,0c1.6,-9.1,3.1,-22.9,3.1,-36.6c0,-15.3,0,-32.1,-3.1,-41.3c-1.5,-6.1,-88.6,-36.6,-96.2,-39.7c-9.2,-3,-16.8,-6.1,-27.5,-16.8C938.1,924.3,756.3,684.4,666.1,559.2C771.5,418.6,977.8,148.2,983.9,142.1c9.2,-10.7,18.3,-19.9,24.4,-24.5c7.7,-6.1,94.8,-35.1,96.3,-41.2c3,-9.2,3,-26,3,-41.3c0,-13.7,-1.5,-27.5,-3,-36.5l-407.9,0c-1.6,10.6,-4.6,24.3,-4.6,38.1c0,15.2,4.6,36.6,9.2,39.7c6.1,3,61.1,29,79.4,41.2c3.1,3.1,4.6,15.3,1.5,23c-4.6,9.1,-145.1,192.5,-220,291.8C485.8,331.5,359,152.8,352.9,139c-4.6,-7.6,-3,-19.8,0,-21.4c15.3,-9.1,76.4,-38.2,82.5,-41.2c4.6,-3.1,9.2,-24.5,9.2,-39.7C444.6,22.9,441.5,9.2,440,-1.4Z" 
	id="Tc1_26"
	 />

	<path d="M301,1.5c-3.1,9.2,-4.6,18.4,-4.6,38.2c0,19.9,0,27.5,4.6,36.7c3,6.1,65.7,27.5,87.1,38.2c10.7,4.6,19.8,10.7,19.8,27.5l0,271.9l-301,533.2c-3,7.7,-7.6,12.2,-12.2,16.8c-4.6,4.6,-71.8,24.5,-73.3,30.6c-1.5,4.6,-4.6,27.5,-4.6,38.2c0,10.7,3.1,29,4.6,36.6l337.6,0c1.6,-7.6,6.1,-27.5,6.1,-36.6c0,-10.7,-6.1,-36.7,-9.1,-38.2C351.4,993.1,294.9,970.1,285.7,964c-1.5,0,-1.5,-13.7,0,-15.2L502.6,550L716.5,947.2c1.6,4.6,0,13.8,-1.5,16.8c-12.2,9.2,-62.6,29.1,-67.2,30.6c-3.1,1.5,-9.2,27.5,-9.2,38.2c0,9.1,4.6,29,6.1,36.6l327,0c0,-7.6,4.6,-25.9,4.6,-36.6c0,-10.7,-3.1,-33.6,-4.6,-38.2c-1.6,-6.1,-68.8,-26,-73.4,-30.6c-6.1,-4.6,-9.1,-9.1,-12.2,-16.8L571.4,414l0,-267.3c0,-16.8,4.6,-27.5,18.3,-32.1c16.8,-9.2,85.6,-32.1,88.6,-38.2c4.6,-9.2,4.6,-16.8,4.6,-36.7c0,-19.8,-1.5,-29,-4.6,-38.2Z" 
	id="Tc1_27"
	 />

	<path d="M88.6,1.5C70.3,1.5,56.5,10.7,56.5,36.7c0,24.4,-1.5,91.6,6.1,103.9L652.4,925.8l-394.2,0c-2.4,0.5,-4.8,0.7,-7.2,0.7c-13.9,0,-26.2,-7.7,-34.1,-22.1C206.3,884.6,169.6,782.2,163.5,777.6c-9.2,-4.5,-16.8,-4.5,-36.7,-4.5c-19.9,0,-29,1.5,-38.2,4.5l19.9,265.9c3,13.7,9.1,21.4,21.4,25.9l693.6,0c13.7,0,15.3,-128.3,12.2,-142L267.4,140.6l432.3,0c16.8,0,22.9,10.7,27.5,22.9c10.7,25.9,48.9,125.3,55,128.3c9.2,6.1,16.8,6.1,36.7,6.1c19.9,0,29,-3,38.2,-6.1L837.2,1.5Z" 
	id="Tc1_28"
	 />

	<path d="M496.5,96.3c174.2,0,276.6,135.9,290.3,313.1C618.8,404.9,313.2,378.9,313.2,253.6c0,-77.9,58.1,-157.3,183.3,-157.3ZM464.4,-22.8C281.1,-22.8,165,113.1,165,252.1c0,230.7,441.5,258.2,618.8,261.2C763.9,664.6,669.2,742.5,519.4,742.5C360.6,742.5,302.5,676.8,256.7,631l-47.4,90.1c76.4,71.8,174.2,142.1,323.9,142.1c227.6,0,383.5,-131.4,383.5,-357.5l0,-352.9c0,-56.5,24.4,-77.9,65.7,-77.9l39.7,0l0,-74.9L890.7,0C815.8,0,796,47.4,791.4,146.7C751.7,71.8,641.7,-22.8,464.4,-22.8Z" 
	id="Tc1_29"
	 />

	<path d="M559.2,113.1c161.9,0,259.7,143.6,259.7,311.6c0,198.6,-117.6,307.1,-273.5,307.1C397.2,731.8,278.1,585.1,278.1,418.6c0,-191,116.1,-305.5,281.1,-305.5ZM551.5,-24.3c-142.1,0,-245.9,73.2,-271.9,138.9L220,22.9C213.9,10.7,206.3,0,189.4,0L145.1,0l0,991.5c0,47.4,-47.3,74.9,-110,76.4l0,77.9l171.2,0c45.8,0,79.4,-47.3,79.4,-87l3.1,-337.7c45.8,65.7,158.8,142.1,285.6,142.1C814.3,863.2,964,669.2,964,436.9C964,140.6,766.9,-24.3,551.5,-24.3Z" 
	id="Tc1_30"
	 />

	<path d="M676.8,745.6c3.1,0,6.1,0,9.2,1.5l-9.2,-1.5ZM502.6,-21.3C262.8,-21.3,68.8,139,68.8,412.5c0,287.2,210.8,449.2,438.4,449.2c85.6,0,162,-27.5,212.4,-58.1c6.1,26,7.6,53.5,7.6,58.1l103.9,0L826.5,563.8l-91.6,0c0,87,-61.1,181.8,-212.4,181.8C366.7,745.6,223.1,640.1,223.1,409.4C223.1,233.8,330,88.6,508.8,88.6c155.8,0,242.9,84,278,117.7l52,-97.8C805.1,73.3,701.3,-21.3,502.6,-21.3Z" 
	id="Tc1_31"
	 />

	<path d="M519.4,117.6c181.9,0,282.7,137.5,282.7,302.5c0,165,-120.7,310.2,-279.6,310.2C356,730.3,239.9,582.1,239.9,417.1c0,-165,110,-299.5,279.5,-299.5ZM481.3,-22.8c-221.6,0,-388.1,197,-388.1,441.4c0,246,163.5,443.1,426.2,443.1c126.9,0,241.4,-79.5,284.2,-163.5l0,281.1c0,58.1,-32.1,88.6,-100.8,88.6l0,77.9l168,0c47.4,0,81,-36.6,81,-77.9l0,-876.9C950.3,117.6,976.3,74.9,1067.9,74.9l0,-74.9L925.8,0C876.9,0,820.4,56.5,805.1,152.8C768.5,76.4,656.9,-22.8,481.3,-22.8Z" 
	id="Tc1_32"
	 />

	<path d="M756.3,517.9c-19.9,100.9,-110,218.5,-246,218.5C372.8,736.4,270.4,640.1,233.8,517.9ZM487.4,-21.3C250.6,-21.3,68.8,157.4,68.8,418.6c0,246,192.5,447.7,449.1,447.7C724.2,866.3,895.3,693.6,895.3,466L828.1,400.3l-608.1,0C227.6,212.4,334.6,103.9,491.9,103.9c143.7,0,239.9,56.5,319.4,131.4l62.6,-85.6C806.7,77.9,701.3,-21.3,487.4,-21.3Z" 
	id="Tc1_33"
	 />

	<path d="M35.1,0l0,74.9c65.7,0,123.8,24.4,123.8,79.4l0,487.4l-85.6,0l0,106.9l85.6,0l0,99.3c0,160.4,61.1,322.4,299.4,322.4c136,0,188,-38.2,194.1,-44.3L673.8,941.1l-81,0c0,67.2,-36.7,123.8,-126.8,123.8c-123.8,0,-162,-88.6,-162,-212.4l0,-103.9l197.1,0l0,-106.9l-197.1,0l0,-490.4c0,-56.6,88.6,-78,175.7,-78L479.7,0Z" 
	id="Tc1_34"
	 />

	<path d="M505.7,203.2c154.3,0,255.1,91.7,255.1,256.7c0,148.2,-91.6,275,-253.6,275c-145.1,0,-250.5,-117.7,-250.5,-275c0,-162,100.8,-256.7,249,-256.7Zm41.2,-554.5c-233.7,0,-346.8,146.7,-346.8,221.5l110,48.9c0,-59.6,93.2,-143.6,220,-143.6c113.1,0,189.5,55,189.5,136c0,71.8,-50.4,120.6,-247.5,149.6C256.7,93.2,88.6,252.1,88.6,452.2c0,209.3,148.2,404.9,417.1,404.9c100.8,0,186.4,-27.5,253.6,-73.3c33.6,24.4,68.8,45.8,110,56.5c61.1,15.3,100.8,16.8,125.3,16.8L983.9,730.3c-10.5,0,-20,2,-33.6,2c-10.2,0,-22.7,-1.1,-39.7,-5.1c-21.4,-4.6,-44.3,-13.7,-65.7,-24.4c53.4,-67.2,80.9,-151.3,80.9,-239.9c0,-201.6,-149.7,-313.2,-252,-349.8C771.5,91.7,880,24.4,880,-93.1C880,-264.2,690.6,-351.3,546.9,-351.3Z" 
	id="Tc1_35"
	 />

	<path d="M99.3,0l0,74.9c39.7,0,71.8,18.3,71.8,73.3l0,797.5c0,79.4,-18.3,123.7,-91.7,123.7l0,76.4l145.2,0c61.1,0,94.7,-70.2,94.7,-114.5l0,-294.9C363.6,799,453.8,863.2,595.8,863.2c239.9,0,327,-166.5,327,-378.9l0,-331.5c0,-47.4,44.3,-77.9,119.1,-77.9l0,-74.9L696.7,0l0,74.9c51.9,0,76.4,32,76.4,80.9l0,310.2c0,186.4,-74.9,270.4,-212.4,270.4C435.4,736.4,323.9,635.6,323.9,470.6l0,-317.8C328.5,94.7,383.5,74.9,447.6,74.9L449.2,0Z" 
	id="Tc1_36"
	 />

	<path d="M48.9,0l0,74.9c99.3,0,120.7,36.6,120.7,134.4l0,409.5c0,110,-4.6,145.1,-116.1,145.1l0,76.4l215.4,0c27.5,0,44.3,-12.2,45.8,-41.3l0,-589.7C314.7,108.5,345.3,74.9,435.4,74.9L436.9,0ZM223.1,965.6c-65.7,0,-94.8,19.8,-94.8,93.2c0,71.8,29.1,90.1,94.8,90.1c68.7,0,99.3,-18.3,99.3,-90.1c0,-73.4,-30.6,-93.2,-99.3,-93.2Z" 
	id="Tc1_37"
	 />

	<path d="M59.6,-329.9c-102.3,0,-177.1,53.5,-181.7,58.1c-7.7,9.1,-7.7,24.4,4.6,58c8.7,23.8,21.6,35.3,31.8,35.3c2.3,0,4.4,-0.6,6.4,-1.7c13.7,-7.6,55,-18.3,88.5,-18.3c123.7,0,146.6,79.4,146.6,203.1l0,693.6c0,10.7,-6.1,19.9,-18.3,24.4c-16.8,9.2,-85.6,36.7,-88.6,42.8c-4.6,9.2,-4.6,16.8,-4.6,36.7c0,19.8,1.5,29,4.6,38.2l246,0c16.8,0,21.4,-15.3,21.4,-50.4l0,-828c0,-171.1,-79.5,-291.8,-256.7,-291.8ZM215.4,950.3c-65.7,0,-94.7,19.8,-94.7,93.2c0,71.8,29,90.1,94.7,90.1c68.8,0,99.3,-18.3,99.3,-90.1c0,-73.4,-30.5,-93.2,-99.3,-93.2Z" 
	id="Tc1_38"
	 />

	<path d="M97.8,0l0,74.9c44.3,0,87.1,24.4,87.1,77.9l0,825c0,67.2,-29.1,99.3,-88.6,99.3l0,68.7l160.4,0c48.9,0,73.3,-55,73.3,-113l0,-557.7c108.5,91.7,293.3,258.2,293.3,281.2c0,27.5,-36.6,35.1,-84,35.1c-9.2,0,-15.3,68.7,-6.1,68.7l345.3,0c12.2,0,7.6,-76.3,-3.1,-76.3c-44.3,0,-53.5,0,-102.3,-48.9C763.9,725.7,675.3,638.6,574.4,539.3l246,-368.2c36.7,-55,84,-96.2,160.4,-96.2L980.8,0L768.5,0c-7.7,1.5,-13.8,6.1,-18.4,13.8l-275,427.7C420.1,388.1,368.2,336.1,330,299.4l0,-146.6c0,-55,56.5,-77.9,136,-77.9L466,0Z" 
	id="Tc1_39"
	 />

	<path d="M103.9,0l0,74.9c27.5,0,56.5,32,56.5,64.1l0,852.5c0,47.4,-22.9,88.6,-93.2,88.6l0,68.8l163.5,0c51.9,0,79.4,-35.1,79.4,-74.9l0,-928.9C314.7,96.3,368.2,74.9,436.9,74.9L430.8,0Z" 
	id="Tc1_40"
	 />

	<path d="M113.1,0c-6.2,0,-10.7,74.9,0,74.9c38.2,0,62.6,29,62.6,77.9l0,540.8c0,36.7,-42.8,70.3,-110,70.3l0,76.4l151.2,0c42.8,0,73.4,-35.2,73.4,-76.4l1.5,-82.5c29,84,119.2,181.8,276.5,181.8c125.3,0,218.5,-65.7,249.1,-137.5c42.7,71.8,166.5,136,293.3,136c203.2,0,313.2,-142.1,313.2,-333.1l0,-375.8c0,-59.6,30.5,-77.9,108.5,-77.9c7.6,0,6.1,-74.9,-4.6,-74.9L1220.7,0c-6.1,0,-7.6,74.9,0,74.9c36.7,0,59.6,24.4,59.6,77.9l0,340.7c0,180.3,-100.9,241.4,-191,241.4C970.1,734.9,878.5,631,878.5,493.5l0,-340.7c0,-55,42.8,-77.9,126.8,-77.9c7.6,0,6.1,-74.9,-4.6,-74.9L667.6,0c-6.1,0,-6.1,74.9,0,74.9c30.6,0,64.2,19.8,64.2,76.4l0,342.2c0,180.3,-93.2,241.4,-204.7,241.4C424.7,734.9,322.4,655.4,322.4,485.8l0,-333c0,-53.5,44.3,-77.9,116.1,-77.9c7.6,0,3,-74.9,-3.1,-74.9Z" 
	id="Tc1_41"
	 />

	<path d="M110,0l0,74.9c45.8,0,65.7,24.4,65.7,93.2l0,438.4c0,123.8,-26,157.4,-100.8,157.4l0,76.4l135.9,0c45.9,0,71.8,-39.7,73.4,-76.4L288.8,689C330,777.6,441.5,863.2,588.2,863.2c223.1,0,337.6,-116.1,337.6,-432.4l0,-264.3c0,-70.2,33.6,-91.6,113.1,-91.6l0,-74.9L713.5,0l0,74.9c47.3,0,65.7,29,65.7,94.7l0,285.7c0,177.2,-76.4,278,-224.6,278c-145.2,0,-233.8,-110,-233.8,-279.5l0,-285.7C320.8,96.3,359,74.9,446.1,74.9L446.1,0Z" 
	id="Tc1_42"
	 />

	<path d="M502.6,97.8c175.7,0,287.3,140.5,287.3,320.8c0,180.3,-116.1,327,-285.7,327c-175.7,0,-291.8,-146.7,-291.8,-327C212.4,238.3,326.9,97.8,502.6,97.8Zm1.6,-125.2c-242.9,0,-441.6,201.6,-441.6,446c0,246,198.7,447.7,441.6,447.7c242.9,0,441.5,-201.7,441.5,-447.7c0,-244.4,-198.6,-446,-441.5,-446Z" 
	id="Tc1_43"
	 />

	<path d="M548.5,122.2c192.5,0,287.2,132.9,287.2,297.9c0,165,-100.8,299.5,-270.4,299.5C411,719.6,282.6,594.3,282.6,420.1c0,-178.7,120.7,-297.9,265.9,-297.9ZM68.8,-381.8c-1.6,7.6,-3.1,16.8,-4.6,38.1c1.5,18.4,1.5,26,4.6,36.7c4.5,4.6,30.5,29,42.7,38.2c9.2,7.6,26,13.8,26,27.5l0,945.6c0,10.7,-6.1,19.9,-16.8,24.5C96.3,737.9,29,765.4,26,771.5c-4.6,9.2,-4.6,10.7,-4.6,30.6c0,19.8,1.5,29,4.6,38.2l207.8,0c27.5,0,44.3,-12.2,45.8,-41.3l4.6,-111.5c36.6,74.9,145.1,171.1,300.9,171.1c243,0,411,-192.5,411,-436.9c0,-246,-184.8,-436.9,-427.8,-436.9c-123.7,0,-232.2,70.2,-278,139l0,-368.1c1.5,-12.3,6.1,-19.9,18.3,-24.5c19.9,-9.2,108.5,-33.6,110,-38.2c6.1,-10.7,7.7,-18.3,7.7,-36.7c0,-21.3,-3.1,-30.5,-6.2,-38.1Z" 
	id="Tc1_44"
	 />

	<path d="M482.8,99.3c163.5,0,276.5,149.7,276.5,316.3c0,190.9,-110,304,-275,304C322.4,719.6,224.6,571.4,224.6,403.3c0,-198.6,117.6,-304,258.2,-304ZM797.5,-381.8c-27.5,0,-44.3,12.2,-45.8,41.2l0,446C707.4,36.7,601.9,-28.9,467.5,-28.9C212.4,-28.9,61.1,165,61.1,397.2c0,296.4,213.9,461.4,429.3,461.4c116.1,0,239.9,-74.8,273.5,-145.1l58,97.8c6.2,12.2,13.8,22.9,30.6,22.9l53.5,0l0,-1083.1l110,-55c7.6,0,15.3,-22.9,15.3,-39.8c0,-18.3,-6.2,-38.1,-15.3,-38.1Z" 
	id="Tc1_45"
	 />

	<path d="M55,0l0,74.9c62.6,0,106.9,21.4,106.9,74.8l0,522.5c0,71.8,-44.3,91.7,-110,91.7l0,76.4l155.9,0c27.5,0,62.6,-18.4,67.2,-52l9.2,-62.6C316.3,794.4,418.6,863.2,521,863.2c64.1,0,111.5,-16.8,135.9,-42.8L640.1,689l-58,0c0,3.1,-36.7,50.4,-100.8,50.4c-108.5,0,-169.6,-84,-169.6,-238.3l0,-351.4c0,-55,50.4,-74.8,126.8,-74.8L438.5,0Z" 
	id="Tc1_46"
	 />

	<path d="M342.2,-18.2C168.1,-18.2,76.4,76.4,82.5,76.4l-26,171.1l107,4.6c0,-74.9,50.4,-155.8,163.4,-155.8c100.9,0,184.9,44.3,184.9,129.8c0,94.7,-186.4,136,-239.9,160.4C218.5,411,77.9,466,77.9,623.3c0,148.2,169.6,241.4,320.9,241.4c143.6,0,209.3,-55,209.3,-61.1L617.2,634l-77.9,-3c0,42.8,-58,120.7,-152.8,120.7c-76.4,0,-163.4,-39.8,-163.4,-116.1C223.1,550,366.7,508.8,423.2,485.8C469,467.5,650.8,404.9,650.8,241.4C650.8,79.4,504.2,-18.2,342.2,-18.2Z" 
	id="Tc1_47"
	 />

	<path d="M446.1,-15.2c-236.8,0,-284.2,157.3,-284.2,337.6l0,406.4l-116.1,0l0,80.9c103.9,0,157.4,59.6,157.4,227.7l113.1,0l0,-197.1l265.8,0l1.5,-114.6l-265.8,0l0,-391.1c0,-181.8,29,-242.9,136,-242.9c91.6,0,126.8,15.2,139,15.2l1.5,-91.6C589.7,9.2,556.1,-15.2,446.1,-15.2Z" 
	id="Tc1_48"
	 />

	<path d="M504.2,-22.8c-220,0,-319.3,146.6,-319.3,334.5l0,374.3c0,51.9,-41.3,77.9,-108.5,77.9l0,76.4l187.9,0c42.8,0,65.7,-48.9,65.7,-97.8l0,-395.7C330,166.5,407.9,102.4,543.9,102.4c142.1,3,236.8,135.9,236.8,250.5l0,334.6c0,50.4,-38.2,76.4,-113.1,76.4l0,76.4l189.5,0c41.2,0,68.7,-41.3,68.7,-97.8l0,-580.6c0,-61.1,47.4,-87,113.1,-87c10.7,0,12.2,-74.9,1.5,-74.9L910.6,0c-52,0,-96.3,44.3,-110,139C759.3,59.6,646.3,-22.8,504.2,-22.8Z" 
	id="Tc1_49"
	 />

	<path d="M397.2,0C385,3.1,375.8,10.7,372.8,19.9L106.9,718.1c-3,6.1,-4.5,18.3,-16.8,25.9L0,760.8c-9.1,1.6,-16.7,24.5,-16.7,36.7c0,13.8,3,42.8,13.7,42.8l209.3,0c27.5,0,41.2,-13.8,45.8,-41.3L481.3,168.1l255.1,550c0,3,0,10.7,-7.6,10.7l-94.8,32c-4.6,3.1,-7.6,24.5,-7.6,39.8c0,12.2,1.5,39.7,7.6,39.7l313.2,0c10.7,0,13.8,-26,13.8,-38.2c0,-18.3,-1.6,-39.7,-7.7,-42.8C941.1,753.2,909,739.4,901.4,734.9c-7.6,-4.6,-10.7,-7.7,-13.8,-13.8L542.4,22.9C539.3,12.2,528.6,4.6,516.4,0Z" 
	id="Tc1_50"
	 />

	<path d="M342.2,0c-4.6,3.1,-6.1,3.1,-9.1,7.6L119.2,728.8c-6.1,16.8,-76.4,25.9,-85.6,29c-9.2,3,-18.3,27.5,-18.3,39.7c0,13.8,3,42.8,13.7,42.8l203.2,0c6.1,-1.5,10.7,-6.1,13.8,-10.7L440,163.5L663.1,831.1c3,4.6,9.1,9.2,15.2,10.7l108.5,0c9.2,-1.5,13.8,-6.1,16.8,-10.7l209.3,-660l200.2,554.6c0,3.1,0,10.7,-7.7,10.7l-84,30.5c-4.6,3.1,-10.7,18.4,-10.7,33.7c0,12.2,1.5,39.7,7.6,39.7l294.9,0c10.7,0,13.7,-26,13.7,-38.2c0,-18.3,-3,-32.1,-7.6,-36.7l-67.2,-30.5L1072.5,13.8C1069.4,6.1,1064.9,1.5,1058.8,0L916.7,0C910.6,0,906,4.6,902.9,10.7L721.1,624.9L505.7,9.2C502.6,4.6,499.6,1.5,493.5,0Z" 
	id="Tc1_51"
	 />

	<path d="M4.6,0C3.1,7.6,1.5,16.8,0,38.2c1.5,18.3,1.5,26,4.6,36.7c4.6,4.5,74.8,29,87.1,38.2L377.4,433.9l-236.8,304c-13.8,7.7,-87.1,29,-96.3,35.2c-9.2,6.1,-13.7,12.2,-13.7,36.6c0,19.9,6.1,30.6,10.7,30.6l375.8,0c7.6,0,10.7,-9.2,10.7,-26c0,-15.3,-1.5,-27.5,-9.2,-32.1c-12.2,-6.1,-79.4,-13.7,-79.4,-21.4c0,-4.5,6.1,-12.2,7.6,-15.2L501.1,543.9L681.4,742.5c1.5,4.6,0,7.6,-3.1,10.7c-12.2,9.2,-82.5,22.9,-87,27.5c-3.1,10.7,-3.1,9.2,-4.6,27.5c1.5,21.4,3,24.4,4.6,32.1l330,0c3,-7.7,6.1,-10.7,6.1,-32.1c0,-18.3,-1.6,-16.8,-7.7,-27.5c-1.5,-4.6,-42.8,-18.3,-62.6,-35.1L583.6,444.6L852.5,113.1c13.8,-7.7,93.2,-39.8,102.4,-45.9C964,61.1,965.6,56.5,965.6,32.1C965.6,12.2,956.4,0,951.8,0L583.6,0C576,0,572.9,24.4,572.9,38.2c0,10.7,-1.5,27.5,6.1,36.7c7.7,7.6,52,12.2,59.6,18.3c7.7,6.1,13.8,15.3,9.2,19.9L473.6,337.6L287.2,114.6c1.6,-12.2,6.1,-19.9,18.4,-24.5c19.8,-9.1,56.5,-10.7,58,-15.2c6.1,-10.7,7.7,-18.4,7.7,-36.7C371.3,16.8,368.2,7.6,365.1,0Z" 
	id="Tc1_52"
	 />

	<path d="M319.3,-406.3c-16.8,0,-161.9,19.9,-171.1,27.5c-4.6,4.6,-3.1,16.8,4.6,27.5c9.1,12.2,65.7,79.5,76.4,94.7c53.4,71.8,123.7,180.3,165,262.7L123.8,725.7L7.6,757.8c-9,1.5,-16.7,27.5,-16.7,39.7c0,13.8,3.1,42.8,13.7,42.8l226.1,0c27.5,0,38.2,-13.8,45.8,-41.3L501.1,172.6l256.7,550c0,3.1,0,10.7,-7.7,10.7L634,763.9c-4.6,3,-7.6,21.4,-7.6,36.7c0,12.2,1.5,39.7,7.6,39.7l334.6,0c10.7,0,13.8,-26,13.8,-38.2c0,-18.3,-1.6,-39.7,-7.7,-42.8c-12.2,-6.1,-44.3,-19.9,-51.9,-24.4c-7.7,-4.6,-10.7,-7.7,-13.8,-13.8C883.1,673.8,377.4,-337.5,348.3,-394.1c-4.5,-7.6,-15.2,-12.2,-29,-12.2Z" 
	id="Tc1_53"
	 />

	<path d="M67.2,1.5C51.9,1.5,41.3,30.6,41.3,51.9c0,18.4,4.5,50.5,10.6,59.6L513.3,707.4l-290.2,0c-1.4,0.1,-2.8,0.2,-4.2,0.2c-12.3,0,-24.1,-6.1,-31,-17C178.8,673.8,128.3,592.8,123.8,588.2c-7.7,-3.1,-18.4,-3.1,-35.2,-3.1c-16.8,0,-24.4,1.6,-32.1,3.1L97.8,818.9c3,10.7,7.6,16.8,18.3,21.4l579,0c15.3,0,24.5,-27.5,24.5,-42.8c0,-19.9,0,-61.1,-10.7,-70.3L249,125.3l346.8,0c13.8,0,19.9,9.1,23,18.3c9.1,21.4,38.1,90.2,44.3,91.7c7.6,4.6,24.4,4.6,41.2,4.6c16.8,0,24.5,-1.6,32.1,-4.6L695.1,1.5Z" 
	id="Tc1_54"
	 />

	<path d="M357.5,-27.4c-90.1,0,-122.2,26,-122.2,120.6c0,93.2,32.1,117.6,119.1,117.6c90.2,0,120.7,-24.4,120.7,-117.6C475.1,-1.4,444.6,-27.4,357.5,-27.4ZM297.9,287.2c-12.2,0,-19.8,4.6,-19.8,15.3l0,117.6c0,209.3,221.5,281.2,221.5,412.5c0,102.4,-36.7,174.2,-146.7,174.2c-125.3,0,-146.6,-110,-146.6,-184.9l-133,0L38.2,1017.5c0,16.8,119.2,140.6,326.9,140.6c229.2,0,343.8,-113.1,343.8,-323.9c0,-217,-272,-304.1,-272,-437l0,-93.2c0,-10.7,-6.1,-16.8,-21.3,-16.8Z" 
	id="Tc1_63"
	 />

	<path d="M246,-27.4c-90.2,0,-122.2,26,-122.2,120.6c0,93.2,32,117.6,119.1,117.6c90.2,0,120.7,-24.4,120.7,-117.6C363.6,-1.4,333.1,-27.4,246,-27.4ZM180.3,322.4c-12.2,0,-19.9,6.1,-19.9,13.7l-44.3,760.8c0,29.1,18.3,48.9,42.8,48.9l151.2,0c27.5,0,44.3,-12.2,45.9,-41.2L323.9,336.1c0,-9.2,-12.2,-13.7,-22.9,-13.7Z" 
	id="Tc1_56"
	 />

	<path d="M282.6,128.3c-90.1,0,-122.2,26,-122.2,120.7c0,93.2,32.1,117.7,119.2,117.7c90.1,0,120.7,-24.5,120.7,-117.7c0,-94.7,-30.6,-120.7,-117.7,-120.7Zm0,412.5c-90.1,0,-122.2,26,-122.2,120.7c0,93.2,32.1,117.7,119.2,117.7c90.1,0,120.7,-24.5,120.7,-117.7c0,-94.7,-30.6,-120.7,-117.7,-120.7Z" 
	id="Tc1_61"
	 />

	<path d="M273.5,-71.7c-12.2,0,-15.3,6.1,-15.3,22.9l-1.5,175.6c-88.6,6.1,-96.3,42.8,-96.3,123.8c0,93.2,32.1,117.6,119.2,117.6c90.1,0,120.7,-24.4,120.7,-117.6l0,-296.3c0,-18.4,-12.2,-26,-21.4,-26Zm9.1,612.5c-90.1,0,-122.2,26,-122.2,120.7c0,93.2,32.1,117.7,119.2,117.7c90.1,0,120.7,-24.5,120.7,-117.7c0,-94.7,-30.6,-120.7,-117.7,-120.7Z" 
	id="Tc1_62"
	 />

	<path d="M241.4,-71.7c-12.2,0,-15.3,6.1,-15.3,22.9l-1.5,175.6c-88.6,6.1,-96.3,42.8,-96.3,123.8c0,93.2,32.1,117.6,119.2,117.6c90.1,0,120.7,-24.4,120.7,-117.6l0,-296.3c0,-18.4,-12.2,-26,-21.4,-26Z" 
	id="Tc1_59"
	 />

	<path d="M282.6,3.1C192.5,3.1,160.4,29,160.4,123.8c0,93.1,32.1,117.6,119.2,117.6c90.1,0,120.7,-24.5,120.7,-117.6C400.3,29,369.7,3.1,282.6,3.1Z" 
	id="Tc1_60"
	 />

	<path d="M374.3,103.9c114.6,0,195.6,70.3,250.6,157.4c-71.8,62.6,-157.4,126.8,-246,184.8C261.3,383.5,195.6,328.5,195.6,244.4c0,-80.9,59.5,-140.5,178.7,-140.5Zm18.3,487.4C536.3,660,574.4,693.6,574.4,771.5c0,62.7,-55,132.9,-165,132.9C305.6,904.4,255.1,837.2,255.1,779.2c0,-56.6,50.5,-120.7,137.5,-187.9ZM383.5,-22.8C122.2,-22.8,45.8,117.6,45.8,236.8c0,139,87.1,218.5,220,291.8C160.4,612.6,111.5,692.1,111.5,788.3c0,105.5,85.6,229.2,299.5,229.2c249,0,307.1,-132.9,307.1,-238.3C718.1,655.4,632.5,579,507.2,511.8C566.8,470.6,627.9,426.3,684.4,380.4c23,64.2,36.7,123.8,41.3,160.4c3.1,9.2,15.3,10.7,27.5,10.7l213.9,0c15.3,0,19.8,-15.2,19.8,-36.6c0,-15.3,-3,-33.6,-18.3,-39.8L854,430.8c-19.8,-6.1,-35.1,-13.7,-38.2,-27.5C811.3,385,802.1,345.3,785.3,296.4C872.4,218.5,933.5,146.7,933.5,100.8L878.5,-3l-44.3,0c0,41.2,-42.8,102.3,-111.6,172.6C658.5,70.3,553.1,-22.8,383.5,-22.8Z" 
	id="Tc1_58"
	 />

	<path d="M597.4,134.4c0,0,111.5,0,198.6,177.3l0,359c0,0,-58.1,13.7,-90.2,13.7c0,0,-227.6,0,-227.6,-348.3c0,0,0,-201.7,119.2,-201.7Zm110,-446c0,0,-290.3,0,-464.5,186.4c0,0,-174.1,186.3,-174.1,498c0,0,0,311.6,186.3,521c0,0,186.4,210.8,463,210.8c0,0,239.8,0,388,-169.6c0,0,149.7,-171.1,149.7,-443.1c0,0,0,-215.4,-70.2,-336.1c0,0,-71.8,-120.7,-198.7,-120.7c0,0,-126.8,0,-181.8,152.8C805.1,187.9,689,35.1,569.9,35.1c0,0,-94.8,0,-149.8,78c0,0,-56.5,79.4,-56.5,212.3c0,0,0,197.1,102.4,320.9c0,0,103.9,125.2,265.8,125.2c0,0,59.6,0,174.2,-12.2l0,-385l1.5,-68.7c0,0,0,-105.5,19.9,-143.7c0,0,21.4,-38.1,77.9,-38.1c0,0,163.5,0,163.5,330c0,0,0,268.8,-116.2,415.5c0,0,-117.6,146.7,-333,146.7c0,0,-242.9,0,-401.8,-181.8c0,0,-160.4,-183.4,-160.4,-459.9c0,0,0,-275,146.6,-436.8c0,0,148.2,-162,398.8,-162c0,0,99.3,0,226.1,32.1l0,-88.6c0,0,-125.3,-30.6,-221.5,-30.6Z" 
	id="TT1_2"
	 />

	<path d="M527.1,427.8l16.8,195.5l-178.8,0L346.8,427.8ZM296.4,77.9L192.5,87.1c-12.2,1.5,-18.3,7.6,-16.8,24.4L191,285.7l-128.4,0c-16.8,0,-22.9,6.1,-22.9,18.3l0,105.4c0,9.2,7.7,18.4,26,18.4l139,0l16.8,195.5l-128.3,0c-16.8,0,-22.9,6.1,-22.9,18.4l0,105.4c0,9.2,7.6,18.3,26,18.3l137.5,0l18.3,197.1c1.4,15.2,7.7,21.6,17.9,21.6c1.1,0,2.3,-0.1,3.5,-0.2l103.9,-9.2c9.1,-1.5,18.3,-9.1,16.8,-27.5L377.4,765.4l178.7,0l18.3,197.1c1.4,15.2,7.8,21.6,18,21.6c1.1,0,2.2,-0.1,3.4,-0.2l103.9,-9.2c9.2,-1.5,18.4,-9.1,16.8,-27.5L699.7,765.4l126.8,0c18.4,0,26,-9.1,26,-18.3l0,-105.4c0,-12.3,-6.1,-18.4,-22.9,-18.4l-142.1,0L669.2,427.8l126.8,0c18.3,0,25.9,-9.2,25.9,-18.4l0,-105.4c0,-12.2,-6.1,-18.3,-22.9,-18.3l-142.1,0L640.1,102.4C638.6,84,627.9,77.9,618.8,77.9L514.9,87.1c-12.3,1.5,-18.4,7.6,-16.8,24.4l15.2,174.2l-178.7,0L317.8,102.4C316.3,84,305.6,77.9,296.4,77.9Z" 
	id="Tc1_57"
	 />

	<path d="M310.1,-157.3c-12.2,0,-18.3,6.1,-18.3,23l0,293.2C157.4,174.2,91.7,238.3,97.8,238.3L73.3,356l38.2,4.6L151.3,356c0,-42.8,71.8,-82.5,184.8,-82.5c79.5,0,166.5,27.5,166.5,97.8c0,88.6,-161.9,120.6,-215.4,142C233.8,534.7,97.8,583.6,97.8,722.6c0,97.8,87.1,168.1,194,197.1l0,297.9c0,16.8,6.1,23,18.3,23l105.5,0c9.1,0,18.3,-7.7,18.3,-26l0,-279.6c120.7,-4.6,163.5,-32.1,163.5,-36.7L609.6,770L576,766.9L545.4,770c0,36.7,-93.2,58.1,-154.3,58.1c-76.4,0,-151.2,-27.5,-151.2,-91.7c0,-74.9,126.8,-116.1,183.3,-136C469,585.1,641.7,528.6,641.7,385C641.7,267.4,554.6,187.9,433.9,163.5l0,-1.6l0,-293.2c0,-18.3,-9.2,-26,-18.3,-26Z" 
	id="Tc1_64"
	 />


</defs>

<!-- Any embedded fonts defined here -->
<style type="text/css" ><![CDATA[

@font-face {
	font-family: LucidaGrande_f2;
	src: url("fonts/LucidaGrande_f.woff") format("woff");
}

@font-face {
	font-family: RiterNeue-Regular_82;
	src: url("fonts/RiterNeue-Regular_8.woff") format("woff");
}

]]></style>

<title>Untitled Page2</title>
</svg>
