<?xml version="1.0" encoding="UTF-8" standalone="no"?>
<!DOCTYPE svg PUBLIC "-//W3C//DTD SVG 1.1//EN"
"http://www.w3.org/Graphics/SVG/1.1/DTD/svg11.dtd">


<!-- Page 2 -->
<svg x="0" y="0" width="935" height="1210" version="1.1" xmlns="http://www.w3.org/2000/svg" xmlns:xlink="http://www.w3.org/1999/xlink"
style="display: block;margin-left: auto;margin-right: auto;">
<defs>
<clipPath id="c0_2"><path d="M0.5,1210.5L0.5,0.5l935,0l0,1210Z" /></clipPath>

<style type="text/css"><![CDATA[


.s1_2{
font-size: 195.56px;
font-family: Riter-base_82;
fill: TRANSPARENT;
}

]]></style>

</defs>
<path d="M0,0
L0,1210
L935,1210
L935,0 Z " 
fill="#FFFFFF" stroke="none" />
<g clip-path="url(#c0_2)">
<use 
xlink:href ="#Tc1_3" 
 transform="matrix(0.128 , 0, 0 , -0.128, 239.1 , 319.3)"
fill="#231F20" 
stroke="none" 
 />
<use 
xlink:href ="#Tc1_4" 
 transform="matrix(0.128 , 0, 0 , -0.128, 355.1 , 319.3)"
fill="#231F20" 
stroke="none" 
 />
<use 
xlink:href ="#Tc1_5" 
 transform="matrix(0.128 , 0, 0 , -0.128, 475.9 , 319.3)"
fill="#231F20" 
stroke="none" 
 />
<use 
xlink:href ="#Tc1_6" 
 transform="matrix(0.128 , 0, 0 , -0.128, 576.4 , 319.3)"
fill="#231F20" 
stroke="none" 
 />
<use 
xlink:href ="#Tc1_7" 
 transform="matrix(0.128 , 0, 0 , -0.128, 197.1 , 554)"
fill="#231F20" 
stroke="none" 
 />
</g>
<text 
x="239" 
y="319" 
dx="0,0,0,0" 
class="s1_2"
>abcd</text>

<g clip-path="url(#c0_2)">
<use 
xlink:href ="#Tc1_8" 
 transform="matrix(0.128 , 0, 0 , -0.128, 307.8 , 554)"
fill="#231F20" 
stroke="none" 
 />
<use 
xlink:href ="#Tc1_9" 
 transform="matrix(0.128 , 0, 0 , -0.128, 376.1 , 554)"
fill="#231F20" 
stroke="none" 
 />
<use 
xlink:href ="#Tc1_10" 
 transform="matrix(0.128 , 0, 0 , -0.128, 493.6 , 554)"
fill="#231F20" 
stroke="none" 
 />
<use 
xlink:href ="#Tc1_11" 
 transform="matrix(0.128 , 0, 0 , -0.128, 623.3 , 554)"
fill="#231F20" 
stroke="none" 
 />
<use 
xlink:href ="#Tc1_12" 
 transform="matrix(0.128 , 0, 0 , -0.128, 684.5 , 554)"
fill="#231F20" 
stroke="none" 
 />
<use 
xlink:href ="#Tc1_13" 
 transform="matrix(0.128 , 0, 0 , -0.128, 217.4 , 788.6)"
fill="#231F20" 
stroke="none" 
 />
</g>
<text 
x="197" 
y="553" 
dx="0,0,0,0,0,0" 
class="s1_2"
>efghij</text>

<g clip-path="url(#c0_2)">
<use 
xlink:href ="#Tc1_14" 
 transform="matrix(0.128 , 0, 0 , -0.128, 275.3 , 788.6)"
fill="#231F20" 
stroke="none" 
 />
<use 
xlink:href ="#Tc1_15" 
 transform="matrix(0.128 , 0, 0 , -0.128, 470.8 , 788.6)"
fill="#231F20" 
stroke="none" 
 />
<use 
xlink:href ="#Tc1_16" 
 transform="matrix(0.128 , 0, 0 , -0.128, 599.1 , 788.6)"
fill="#231F20" 
stroke="none" 
 />
<use 
xlink:href ="#Tc1_17" 
 transform="matrix(0.128 , 0, 0 , -0.128, 284.7 , 1023.3)"
fill="#231F20" 
stroke="none" 
 />
</g>
<text 
x="217" 
y="788" 
dx="0,0,0,0" 
class="s1_2"
>lmno</text>

<g clip-path="url(#c0_2)">
<use 
xlink:href ="#Tc1_18" 
 transform="matrix(0.128 , 0, 0 , -0.128, 405.3 , 1023.3)"
fill="#231F20" 
stroke="none" 
 />
<use 
xlink:href ="#Tc1_19" 
 transform="matrix(0.128 , 0, 0 , -0.128, 525 , 1023.3)"
fill="#231F20" 
stroke="none" 
 />
</g>
<text 
x="284" 
y="1023" 
dx="0,0,0" 
class="s1_2"
>pqu</text>


<defs>
	<path d="M357.5,106.9c94.7,0,226.1,116.2,278.1,183.4l0,88.6C576,389.6,501.1,395.7,440,395.7C304,395.7,223.1,365.1,223.1,265.8c0,-88.6,42.7,-158.9,134.4,-158.9ZM339.2,-21.3C146.7,-21.3,76.4,110,76.4,273.5c0,207.8,213.9,239.8,354.4,239.8c76.4,0,149.8,-7.6,204.8,-16.8l0,59.6c0,88.6,-82.5,155.8,-200.2,155.8c-120.7,0,-192.5,-30.5,-256.6,-71.8L119.2,741c65.7,45.8,194,93.2,331.5,93.2C682.9,834.2,770,731.8,770,534.7l0,-420.1L867.8,71.8L867.8,0L646.3,0l0,158.9C601.9,87.1,501.1,-21.3,339.2,-21.3Z" 
	id="Tc1_3"
	 />

	<path d="M507.2,100.8c154.3,0,192.5,137.5,192.5,323.9c0,195.6,-44.3,285.7,-146.6,285.7C395.7,710.4,319.3,579,268.9,495L267.4,203.2c29,-48.9,100.8,-102.4,239.8,-102.4ZM530.1,-24.3c-139,0,-212.3,48.7,-265.8,100.7L209.3,1.5l-85.5,0l0,1089.3L7.6,1158.1l0,64.1l262.8,0l-1.5,-550c53.5,87.1,137.5,166.6,297.9,166.6c195.6,0,290.3,-117.7,290.3,-414.1c0,-282.6,-102.4,-449,-327,-449Z" 
	id="Tc1_4"
	 />

	<path d="M692.1,166.5l0,0ZM467.5,-25.9C169.6,-25.9,73.3,128.3,73.3,403.3c0,275,126.8,429.3,394.2,429.3c88.6,0,198.6,-33.6,256.7,-68.7l0,-204.7l-107,0l-29,119.1c-26,23,-65.7,35.2,-120.7,35.2C291.8,713.5,230.7,597.4,230.7,403.3c0,-194,65.7,-307,236.8,-307c111.5,0,186.4,38.1,224.6,70.2L745.6,55C686,16.8,597.4,-25.9,467.5,-25.9Z" 
	id="Tc1_5"
	 />

	<path d="M397.2,93.2c126.8,0,201.7,88.6,253.6,180.3l0,372.8c-36.6,39.7,-110,73.3,-223,73.3C256.7,719.6,224.6,588.2,224.6,401.8C224.6,223.1,287.2,93.2,397.2,93.2ZM363.6,-24.3C180.3,-24.3,67.2,123.8,67.2,401.8c0,282.6,82.5,435.4,328.5,435.4c123.7,0,203.2,-25.9,255.1,-62.6l0,316.2l-106.9,53.5l0,77.9l258.2,0l0,-1087.8L895.3,71.8l0,-70.3l-223.1,0L656.9,123.8C608.1,45.8,530.1,-24.3,363.6,-24.3Z" 
	id="Tc1_6"
	 />

	<path d="M634,455.3C634,576,621.8,713.5,449.2,713.5c-146.7,0,-207.8,-71.8,-217,-258.2ZM461.4,-24.3C206.3,-24.3,73.3,114.6,73.3,403.3c0,275,117.7,429.3,385,429.3c290.3,0,328.5,-151.2,328.5,-499.5l-553,0C247.5,161.9,320.8,97.8,461.4,97.8c155.8,0,221.5,38.2,259.7,70.3L774.6,51.9C715,13.8,649.3,-24.3,461.4,-24.3Z" 
	id="Tc1_7"
	 />

	<path d="M90.1,0l0,74.9l64.2,39.7l0,591.2l-97.8,0l0,94.8l97.8,0l0,119.1c0,267.4,88.6,320.9,250.6,320.9c3.7,0,7.4,0.1,11.2,0.1c84.7,0,182,-16.1,198.1,-32.2l0,-155.9l-79.5,0l-56.5,87.1c-143.6,0,-172.6,-33.6,-172.6,-236.8l0,-102.3l192.5,0l0,-94.8l-192.5,0l0,-591.2l165,-39.7L470.6,0Z" 
	id="Tc1_8"
	 />

	<path d="M378.9,97.8C498.1,97.8,579,191,634,276.5l0,348.4c-39.7,41.2,-105.4,85.5,-213.9,85.5C265.8,710.4,216.9,585.1,216.9,398.8c0,-195.6,59.6,-301,162,-301Zm29,-418.5c-158.9,0,-241.4,68.7,-276.5,93.2l42.8,105.4c51.9,-30.6,103.9,-79.5,220,-79.5c187.9,0,239.8,62.7,239.8,223l0,85.5C574.4,30.6,490.4,-32,365.1,-32c-195.5,0,-304,134.4,-304,430.8c0,282.6,111.5,435.4,336.1,435.4c132.9,0,207.8,-39.8,258.2,-87.1l22.9,55l188,0l0,-77.9l-81,-44.3l0,-666.1C785.3,-236.7,631,-320.7,407.9,-320.7Z" 
	id="Tc1_9"
	 />

	<path d="M85.6,0l0,74.9l64.1,39.7l7.7,0l0,976.2L33.6,1144.3l0,77.9l267.4,0l0,-580.5c50.4,84,146.6,180.2,323.9,180.2c186.4,0,242.9,-96.2,242.9,-302.5l0,-404.8L982.4,74.9L982.4,0L643.2,0l0,74.9L715,114.6l0,342.2c0,191,-38.2,236.8,-120.7,236.8C432.4,693.6,330,514.9,308.6,438.5l0,-325.4L453.8,74.9L453.8,0Z" 
	id="Tc1_10"
	 />

	<path d="M88.6,0l0,74.9l71.8,39.7l0,556.1L53.5,724.2l0,77.9l258.2,0l0,-687.5L427.8,74.9L427.8,0Zm35.2,979.3l0,246l186.3,0l0,-246Z" 
	id="Tc1_11"
	 />

	<path d="M-27.4,-308.5l0,110c87,0,171,67.2,171,229.1l0,640.1L36.7,724.2l0,77.9l253.6,0l0,-788.3c0,-271.9,-175.7,-322.3,-317.7,-322.3ZM106.9,979.3l0,246l186.4,0l0,-246Z" 
	id="Tc1_12"
	 />

	<path d="M71.8,0l0,74.9l71.8,39.7l0,974.7L35.1,1142.8l0,77.9l108.5,0l0,1.5l151.3,0l0,-1107.6L411,74.9L411,0Z" 
	id="Tc1_13"
	 />

	<path d="M85.6,0l0,74.9l64.1,39.7l0,556.1L41.3,724.2l0,77.9l232.2,0l0,-194c47.3,90.1,152.8,213.8,323.9,213.8c132.9,0,197,-44.3,216.9,-183.3c55,84,171.1,183.3,340.7,183.3c174.2,0,226.1,-68.7,226.1,-305.5l0,-401.8L1497.2,74.9l0,-74.9L1158.1,0l0,74.9l70.2,38.2l0,354.4c0,160.4,-19.8,226.1,-122.2,226.1C973.2,693.6,870.8,545.4,840.3,455.3l0,-340.7L991.5,74.9L991.5,0L623.3,0l0,74.9l64.2,39.7l0,351.4c0,163.4,-24.4,227.6,-125.3,227.6C432.4,693.6,333.1,530.1,301,449.2l0,-334.6L453.8,74.9L453.8,0Z" 
	id="Tc1_14"
	 />

	<path d="M85.6,0l0,74.9l64.1,39.7l0,556.1L41.3,724.2l0,77.9l232.2,0l0,-186.4c48.9,88.6,161.9,198.6,340.7,198.6c187.9,0,241.4,-81,241.4,-310.1l0,-389.6L971.7,74.9L971.7,0L632.5,0l0,74.9l71.8,39.7l0,346.8c0,191,-27.5,232.2,-123.7,232.2C436.9,693.6,336.1,550,301,447.6l0,-333L453.8,74.9L453.8,0Z" 
	id="Tc1_15"
	 />

	<path d="M464.4,94.7C637.1,94.7,689,207.8,689,403.3c0,195.6,-39.7,317.8,-224.6,317.8C279.6,721.1,238.3,598.9,238.3,403.3c0,-194,53.5,-308.6,226.1,-308.6Zm0,-122.1c-278,0,-385,155.7,-385,430.7c0,276.6,100.9,437,385,437c284.2,0,382,-160.4,382,-437c0,-275,-103.9,-430.7,-382,-430.7Z" 
	id="Tc1_16"
	 />

	<path d="M517.9,100.8c154.3,0,184.9,137.5,184.9,323.9c0,195.6,-36.7,284.2,-139,284.2c-134.5,0,-223.1,-105.4,-279.6,-191l0,-356c36.6,-35.1,108.4,-61.1,233.7,-61.1ZM73.3,-305.5l0,74.9l64.2,39.7l0,860.1L33.6,731.8l0,70.3l229.2,0L278.1,678.3c62.6,85.6,154.3,163.5,299.4,163.5c195.6,0,282.6,-120.7,282.6,-417.1C860.1,142.1,765.4,-32,540.8,-32C411,-32,334.6,-6,284.2,29l0,-213.8l139,-45.8l0,-74.9Z" 
	id="Tc1_17"
	 />

	<path d="M371.3,108.5c134.4,0,223,113,279.5,201.6l0,319.3l0,3.1c-36.6,35.1,-108.4,64.2,-233.7,64.2C262.8,696.7,236.8,566.8,236.8,380.4c0,-195.5,32.1,-271.9,134.5,-271.9Zm203.1,-414l0,74.9l71.9,39.7l4.5,0l0,329.9C588.2,51.9,498.1,-24.3,357.5,-24.3C161.9,-24.3,79.4,84,79.4,380.4c0,282.7,90.2,449.2,314.8,449.2c143.6,0,223,-32.1,271.9,-74.9l6.1,47.4l229.2,0l0,-70.3L797.5,669.2l0,-860.1l116.1,-39.7l0,-74.9Z" 
	id="Tc1_18"
	 />

	<path d="M363.6,-19.8C186.4,-19.8,136,70.3,136,299.4l0,385L32.1,721.1l0,81l256.7,0l0,-443.1c0,-190.9,25.9,-255.1,132.9,-255.1c148.2,0,230.7,123.7,262.7,233.7l0,342.3L557.6,721.1l0,81l278.1,0l0,-676.8L948.8,71.8L948.8,0L708.9,0l1.5,149.7C663.1,64.2,560.7,-19.8,363.6,-19.8Z" 
	id="Tc1_19"
	 />


</defs>

<!-- Any embedded fonts defined here -->
<style type="text/css" ><![CDATA[

@font-face {
	font-family: Riter-base_82;
	src: url("fonts/Riter-base_8.woff") format("woff");
}

]]></style>

<title>riter_base_proof Page2</title>
</svg>
